<?xml version="1.0" encoding="utf-8"?>
<!-- Generator: Adobe Illustrator 24.0.3, SVG Export Plug-In . SVG Version: 6.00 Build 0)  -->
<svg version="1.1" id="Layer_1" xmlns="http://www.w3.org/2000/svg" xmlns:xlink="http://www.w3.org/1999/xlink" x="0px" y="0px"
	 width="345px" height="263.4px" viewBox="0 0 345 263.4" style="enable-background:new 0 0 345 263.4;" xml:space="preserve">
<style type="text/css">
	.st0{fill:none;}
	.st1{fill:#88898A;}
	.st2{fill:#0051BA;}
</style>
<g>
	<rect x="0" y="215.9" class="st0" width="345" height="47.6"/>
	<path d="M11,216.4h2.5l6.8,15.5h-2.9l-1.6-3.7H8.5L7,231.9H4.2L11,216.4z M14.8,225.8l-2.7-6.2l-2.6,6.2H14.8z"/>
	<path d="M21.4,226.2L21.4,226.2c0-3.3,2.6-6.1,6.1-6.1c2.2,0,3.5,0.8,4.6,2l-1.7,1.8c-0.8-0.8-1.7-1.5-3-1.5
		c-1.9,0-3.4,1.7-3.4,3.7v0c0,2.1,1.4,3.7,3.5,3.7c1.3,0,2.2-0.6,3-1.4l1.6,1.6c-1.1,1.3-2.5,2.2-4.8,2.2
		C23.9,232.2,21.4,229.5,21.4,226.2z"/>
	<path d="M33.6,226.2L33.6,226.2c0-3.3,2.6-6.1,6.1-6.1c2.2,0,3.5,0.8,4.6,2l-1.7,1.8c-0.8-0.8-1.7-1.5-3-1.5
		c-1.9,0-3.4,1.7-3.4,3.7v0c0,2.1,1.4,3.7,3.5,3.7c1.3,0,2.2-0.6,3-1.4l1.6,1.6c-1.1,1.3-2.5,2.2-4.8,2.2
		C36.2,232.2,33.6,229.5,33.6,226.2z"/>
	<path d="M45.9,226.2L45.9,226.2c0-3.4,2.4-6.1,5.7-6.1c3.7,0,5.6,2.9,5.6,6.2c0,0.2,0,0.5,0,0.7h-8.5c0.3,1.9,1.6,2.9,3.3,2.9
		c1.3,0,2.2-0.5,3.1-1.4l1.6,1.4c-1.1,1.3-2.6,2.2-4.8,2.2C48.5,232.2,45.9,229.8,45.9,226.2z M54.5,225.3c-0.2-1.7-1.2-3.1-2.9-3.1
		c-1.6,0-2.8,1.3-3,3.1H54.5z"/>
	<path d="M58.8,230.4l1.2-1.8c1.3,0.9,2.6,1.4,3.8,1.4c1.1,0,1.8-0.5,1.8-1.3v0c0-0.9-1.2-1.2-2.6-1.6c-1.7-0.5-3.6-1.2-3.6-3.4v0
		c0-2.2,1.8-3.6,4.1-3.6c1.5,0,3,0.5,4.3,1.3l-1.1,1.9c-1.1-0.7-2.3-1.1-3.3-1.1c-1,0-1.6,0.5-1.6,1.1v0c0,0.9,1.3,1.2,2.6,1.6
		c1.7,0.5,3.6,1.3,3.6,3.4v0c0,2.4-1.9,3.7-4.3,3.7C62.1,232.2,60.3,231.6,58.8,230.4z"/>
	<path d="M69.6,230.4l1.2-1.8c1.3,0.9,2.6,1.4,3.8,1.4c1.1,0,1.8-0.5,1.8-1.3v0c0-0.9-1.2-1.2-2.6-1.6c-1.7-0.5-3.6-1.2-3.6-3.4v0
		c0-2.2,1.8-3.6,4.1-3.6c1.5,0,3,0.5,4.3,1.3l-1.1,1.9c-1.1-0.7-2.3-1.1-3.3-1.1c-1,0-1.6,0.5-1.6,1.1v0c0,0.9,1.3,1.2,2.6,1.6
		c1.7,0.5,3.6,1.3,3.6,3.4v0c0,2.4-1.9,3.7-4.3,3.7C72.9,232.2,71.1,231.6,69.6,230.4z"/>
	<path d="M81.7,216h2.9v2.5h-2.9V216z M81.7,220.3h2.7v11.6h-2.7V220.3z"/>
	<path d="M90.6,230.1v1.8h-2.7v-16.1h2.7v6.4c0.9-1.2,2.1-2.2,4-2.2c2.7,0,5.4,2.2,5.4,6v0c0,3.8-2.6,6-5.4,6
		C92.6,232.2,91.4,231.2,90.6,230.1z M97.2,226.2L97.2,226.2c0-2.3-1.5-3.8-3.3-3.8c-1.8,0-3.4,1.5-3.4,3.7v0c0,2.2,1.6,3.7,3.4,3.7
		C95.7,229.9,97.2,228.4,97.2,226.2z"/>
	<path d="M102.8,215.9h2.7v16.1h-2.7V215.9z"/>
	<path d="M108.3,226.2L108.3,226.2c0-3.4,2.4-6.1,5.7-6.1c3.7,0,5.6,2.9,5.6,6.2c0,0.2,0,0.5,0,0.7H111c0.3,1.9,1.6,2.9,3.3,2.9
		c1.3,0,2.2-0.5,3.1-1.4l1.6,1.4c-1.1,1.3-2.6,2.2-4.8,2.2C110.9,232.2,108.3,229.8,108.3,226.2z M116.9,225.3
		c-0.2-1.7-1.2-3.1-2.9-3.1c-1.6,0-2.8,1.3-3,3.1H116.9z"/>
	<path d="M132.9,219H128v-2.5h12.5v2.5h-4.9v12.9h-2.7V219z"/>
	<path d="M139.9,226.2L139.9,226.2c0-3.4,2.4-6.1,5.7-6.1c3.7,0,5.6,2.9,5.6,6.2c0,0.2,0,0.5,0,0.7h-8.5c0.3,1.9,1.6,2.9,3.3,2.9
		c1.3,0,2.2-0.5,3.1-1.4l1.6,1.4c-1.1,1.3-2.6,2.2-4.8,2.2C142.5,232.2,139.9,229.8,139.9,226.2z M148.5,225.3
		c-0.2-1.7-1.2-3.1-2.9-3.1c-1.6,0-2.8,1.3-3,3.1H148.5z"/>
	<path d="M153.1,228.6L153.1,228.6c0-2.6,2-3.8,4.8-3.8c1.3,0,2.2,0.2,3.1,0.5V225c0-1.7-1-2.5-2.9-2.5c-1.3,0-2.3,0.3-3.3,0.7
		l-0.7-2.1c1.3-0.6,2.6-0.9,4.4-0.9c1.7,0,3,0.5,3.9,1.3c0.9,0.8,1.3,2.1,1.3,3.6v6.9H161v-1.5c-0.8,0.9-2,1.7-3.8,1.7
		C155,232.2,153.1,230.9,153.1,228.6z M161.1,227.8V227c-0.7-0.3-1.6-0.5-2.6-0.5c-1.7,0-2.7,0.7-2.7,1.9v0c0,1.1,1,1.8,2.3,1.8
		C159.7,230.2,161.1,229.2,161.1,227.8z"/>
	<path d="M166.1,226.2L166.1,226.2c0-3.3,2.6-6.1,6.1-6.1c2.2,0,3.5,0.8,4.6,2l-1.7,1.8c-0.8-0.8-1.7-1.5-3-1.5
		c-1.9,0-3.4,1.7-3.4,3.7v0c0,2.1,1.4,3.7,3.5,3.7c1.3,0,2.2-0.6,3-1.4l1.6,1.6c-1.1,1.3-2.5,2.2-4.8,2.2
		C168.7,232.2,166.1,229.5,166.1,226.2z"/>
	<path d="M179.3,215.9h2.7v6.2c0.7-1.1,1.8-2,3.6-2c2.6,0,4.1,1.8,4.1,4.4v7.4h-2.7v-6.6c0-1.8-0.9-2.8-2.5-2.8
		c-1.5,0-2.6,1.1-2.6,2.9v6.6h-2.7V215.9z"/>
	<path d="M193,216h2.9v2.5H193V216z M193.1,220.3h2.7v11.6h-2.7V220.3z"/>
	<path d="M199.2,220.3h2.7v1.8c0.7-1.1,1.8-2,3.6-2c2.6,0,4.1,1.8,4.1,4.4v7.4H207v-6.6c0-1.8-0.9-2.8-2.5-2.8
		c-1.5,0-2.6,1.1-2.6,2.9v6.6h-2.7V220.3z"/>
	<path d="M212.9,234.1l1-2c1.3,0.8,2.6,1.2,4.1,1.2c2.4,0,3.7-1.2,3.7-3.5v-0.9c-1,1.2-2.2,2.1-4.1,2.1c-2.8,0-5.3-2-5.3-5.4v0
		c0-3.4,2.6-5.5,5.3-5.5c2,0,3.2,0.9,4.1,2v-1.7h2.7v9.2c0,2-0.5,3.4-1.5,4.4c-1.1,1.1-2.7,1.6-4.8,1.6
		C216.2,235.5,214.4,235,212.9,234.1z M221.7,225.6L221.7,225.6c0-1.9-1.6-3.2-3.4-3.2c-1.8,0-3.3,1.3-3.3,3.2v0
		c0,1.9,1.5,3.2,3.3,3.2C220.1,228.8,221.7,227.5,221.7,225.6z"/>
	<path d="M226.7,234c1.3-0.3,2-0.9,1.9-2.1h-1.1v-3h2.9v2.6c0,2.4-1.2,3.5-3.4,3.7L226.7,234z"/>
	<path d="M240.5,216.5h2.7v12.9h8.1v2.5h-10.8V216.5z"/>
	<path d="M252.9,226.2L252.9,226.2c0-3.4,2.4-6.1,5.7-6.1c3.7,0,5.6,2.9,5.6,6.2c0,0.2,0,0.5,0,0.7h-8.5c0.3,1.9,1.6,2.9,3.3,2.9
		c1.3,0,2.2-0.5,3.1-1.4l1.6,1.4c-1.1,1.3-2.6,2.2-4.8,2.2C255.5,232.2,252.9,229.8,252.9,226.2z M261.5,225.3
		c-0.2-1.7-1.2-3.1-2.9-3.1c-1.6,0-2.8,1.3-3,3.1H261.5z"/>
	<path d="M266.1,228.6L266.1,228.6c0-2.6,2-3.8,4.8-3.8c1.3,0,2.2,0.2,3.1,0.5V225c0-1.7-1-2.5-2.9-2.5c-1.3,0-2.3,0.3-3.3,0.7
		l-0.7-2.1c1.3-0.6,2.6-0.9,4.4-0.9c1.7,0,3,0.5,3.9,1.3c0.9,0.8,1.3,2.1,1.3,3.6v6.9H274v-1.5c-0.8,0.9-2,1.7-3.8,1.7
		C268,232.2,266.1,230.9,266.1,228.6z M274.1,227.8V227c-0.7-0.3-1.6-0.5-2.6-0.5c-1.7,0-2.7,0.7-2.7,1.9v0c0,1.1,1,1.8,2.3,1.8
		C272.7,230.2,274.1,229.2,274.1,227.8z"/>
	<path d="M279.8,220.3h2.7v2.6c0.7-1.7,2.1-2.9,4.1-2.8v2.8h-0.2c-2.3,0-4,1.5-4,4.6v4.4h-2.7V220.3z"/>
	<path d="M288.8,220.3h2.7v1.8c0.7-1.1,1.8-2,3.6-2c2.6,0,4.1,1.8,4.1,4.4v7.4h-2.7v-6.6c0-1.8-0.9-2.8-2.5-2.8
		c-1.5,0-2.6,1.1-2.6,2.9v6.6h-2.7V220.3z"/>
	<path d="M302.6,216h2.9v2.5h-2.9V216z M302.6,220.3h2.7v11.6h-2.7V220.3z"/>
	<path d="M308.8,220.3h2.7v1.8c0.7-1.1,1.8-2,3.6-2c2.6,0,4.1,1.8,4.1,4.4v7.4h-2.7v-6.6c0-1.8-0.9-2.8-2.5-2.8
		c-1.5,0-2.6,1.1-2.6,2.9v6.6h-2.7V220.3z"/>
	<path d="M322.4,234.1l1-2c1.3,0.8,2.6,1.2,4.1,1.2c2.4,0,3.7-1.2,3.7-3.5v-0.9c-1,1.2-2.2,2.1-4.1,2.1c-2.8,0-5.3-2-5.3-5.4v0
		c0-3.4,2.6-5.5,5.3-5.5c2,0,3.2,0.9,4.1,2v-1.7h2.7v9.2c0,2-0.5,3.4-1.5,4.4c-1.1,1.1-2.7,1.6-4.8,1.6
		C325.7,235.5,323.9,235,322.4,234.1z M331.2,225.6L331.2,225.6c0-1.9-1.6-3.2-3.4-3.2c-1.8,0-3.3,1.3-3.3,3.2v0
		c0,1.9,1.5,3.2,3.3,3.2C329.7,228.8,331.2,227.5,331.2,225.6z"/>
	<path d="M336.3,234c1.3-0.3,2-0.9,1.9-2.1H337v-3h2.9v2.6c0,2.4-1.2,3.5-3.4,3.7L336.3,234z"/>
	<path d="M57.7,256.6c-1.3,1.2-2.9,2-4.7,2c-2.9,0-5.1-1.7-5.1-4.4v0c0-2,1.2-3.4,3.3-4.3c-0.9-1.1-1.3-2.1-1.3-3.2v0
		c0-2.1,1.7-3.9,4.4-3.9c2.4,0,4.1,1.7,4.1,3.7v0c0,2-1.3,3.2-3.4,4l2.6,2.7c0.6-0.9,1.1-1.9,1.6-3l2,1.1c-0.6,1.2-1.3,2.4-2.1,3.5
		l2.4,2.5l-2,1.5L57.7,256.6z M56.2,255l-3.4-3.5c-1.4,0.6-2,1.6-2,2.6v0c0,1.3,1.1,2.2,2.6,2.2C54.3,256.3,55.3,255.8,56.2,255z
		 M56.1,246.6L56.1,246.6c0-1.1-0.7-1.8-1.7-1.8c-1.1,0-1.8,0.8-1.8,1.8v0c0,0.8,0.3,1.3,1.2,2.3C55.2,248.4,56.1,247.7,56.1,246.6z
		"/>
	<path d="M76.4,242.8h2.5l6.8,15.5h-2.9l-1.6-3.7H74l-1.6,3.7h-2.8L76.4,242.8z M80.3,252.2l-2.7-6.2l-2.6,6.2H80.3z"/>
	<path d="M87.1,256.8l1.2-1.8c1.3,0.9,2.6,1.4,3.8,1.4c1.1,0,1.8-0.5,1.8-1.3v0c0-0.9-1.2-1.2-2.6-1.6c-1.7-0.5-3.6-1.2-3.6-3.4v0
		c0-2.2,1.8-3.6,4.1-3.6c1.5,0,3,0.5,4.3,1.3l-1.1,1.9c-1.1-0.7-2.3-1.1-3.3-1.1c-1,0-1.6,0.5-1.6,1.1v0c0,0.9,1.3,1.2,2.6,1.7
		c1.7,0.5,3.6,1.3,3.6,3.4v0c0,2.4-1.9,3.7-4.3,3.7C90.4,258.6,88.6,258,87.1,256.8z"/>
	<path d="M97.9,256.8l1.2-1.8c1.3,0.9,2.6,1.4,3.8,1.4c1.1,0,1.8-0.5,1.8-1.3v0c0-0.9-1.2-1.2-2.6-1.6c-1.7-0.5-3.6-1.2-3.6-3.4v0
		c0-2.2,1.8-3.6,4.1-3.6c1.5,0,3,0.5,4.3,1.3l-1.1,1.9c-1.1-0.7-2.3-1.1-3.3-1.1c-1,0-1.6,0.5-1.6,1.1v0c0,0.9,1.3,1.2,2.6,1.7
		c1.7,0.5,3.6,1.3,3.6,3.4v0c0,2.4-1.9,3.7-4.3,3.7C101.2,258.6,99.4,258,97.9,256.8z"/>
	<path d="M109.2,252.6L109.2,252.6c0-3.4,2.4-6.1,5.7-6.1c3.7,0,5.6,2.9,5.6,6.2c0,0.2,0,0.5,0,0.7h-8.5c0.3,1.9,1.6,2.9,3.3,2.9
		c1.3,0,2.2-0.5,3.1-1.4l1.6,1.4c-1.1,1.3-2.6,2.2-4.8,2.2C111.8,258.6,109.2,256.2,109.2,252.6z M117.8,251.7
		c-0.2-1.7-1.2-3.1-2.9-3.1c-1.6,0-2.8,1.3-3,3.1H117.8z"/>
	<path d="M122.2,256.8l1.2-1.8c1.3,0.9,2.6,1.4,3.8,1.4c1.1,0,1.8-0.5,1.8-1.3v0c0-0.9-1.2-1.2-2.6-1.6c-1.7-0.5-3.6-1.2-3.6-3.4v0
		c0-2.2,1.8-3.6,4.1-3.6c1.5,0,3,0.5,4.3,1.3l-1.1,1.9c-1.1-0.7-2.3-1.1-3.3-1.1c-1,0-1.6,0.5-1.6,1.1v0c0,0.9,1.3,1.2,2.6,1.7
		c1.7,0.5,3.6,1.3,3.6,3.4v0c0,2.4-1.9,3.7-4.3,3.7C125.5,258.6,123.7,258,122.2,256.8z"/>
	<path d="M133,256.8l1.2-1.8c1.3,0.9,2.6,1.4,3.8,1.4c1.1,0,1.8-0.5,1.8-1.3v0c0-0.9-1.2-1.2-2.6-1.6c-1.7-0.5-3.6-1.2-3.6-3.4v0
		c0-2.2,1.8-3.6,4.1-3.6c1.5,0,3,0.5,4.3,1.3l-1.1,1.9c-1.1-0.7-2.3-1.1-3.3-1.1c-1,0-1.6,0.5-1.6,1.1v0c0,0.9,1.3,1.2,2.6,1.7
		c1.7,0.5,3.6,1.3,3.6,3.4v0c0,2.4-1.9,3.7-4.3,3.7C136.3,258.6,134.5,258,133,256.8z"/>
	<path d="M145,246.7h2.7v1.8c0.7-1,1.8-2,3.5-2c1.7,0,2.9,0.8,3.5,2c0.9-1.2,2.2-2,3.9-2c2.5,0,4.1,1.6,4.1,4.4v7.4H160v-6.6
		c0-1.8-0.9-2.8-2.4-2.8c-1.5,0-2.5,1-2.5,2.9v6.6h-2.7v-6.6c0-1.8-0.9-2.8-2.4-2.8c-1.5,0-2.5,1.1-2.5,2.9v6.6H145V246.7z"/>
	<path d="M165.2,252.6L165.2,252.6c0-3.4,2.4-6.1,5.7-6.1c3.7,0,5.6,2.9,5.6,6.2c0,0.2,0,0.5,0,0.7h-8.5c0.3,1.9,1.6,2.9,3.3,2.9
		c1.3,0,2.2-0.5,3.1-1.4l1.6,1.4c-1.1,1.3-2.6,2.2-4.8,2.2C167.8,258.6,165.2,256.2,165.2,252.6z M173.8,251.7
		c-0.2-1.7-1.2-3.1-2.9-3.1c-1.6,0-2.8,1.3-3,3.1H173.8z"/>
	<path d="M179.1,246.7h2.7v1.8c0.7-1.1,1.8-2,3.6-2c2.6,0,4.1,1.8,4.1,4.4v7.4h-2.7v-6.6c0-1.8-0.9-2.8-2.5-2.8
		c-1.5,0-2.6,1.1-2.6,2.9v6.6h-2.7V246.7z"/>
	<path d="M193.3,255.1V249h-1.5v-2.3h1.5v-3.2h2.7v3.2h3.1v2.3H196v5.7c0,1,0.5,1.5,1.4,1.5c0.6,0,1.1-0.1,1.7-0.4v2.2
		c-0.7,0.4-1.4,0.6-2.4,0.6C194.7,258.5,193.3,257.7,193.3,255.1z"/>
	<path d="M207.7,256.1l1.6-1.9c1.5,1.3,3,2,4.9,2c1.7,0,2.7-0.8,2.7-1.9v0c0-1.1-0.6-1.7-3.5-2.4c-3.3-0.8-5.1-1.8-5.1-4.6v0
		c0-2.6,2.2-4.5,5.3-4.5c2.2,0,4,0.7,5.6,1.9l-1.5,2c-1.4-1-2.8-1.6-4.2-1.6c-1.6,0-2.5,0.8-2.5,1.8v0c0,1.2,0.7,1.7,3.7,2.4
		c3.3,0.8,4.9,2,4.9,4.5v0c0,2.9-2.3,4.6-5.5,4.6C211.8,258.6,209.6,257.7,207.7,256.1z"/>
	<path d="M230.2,246.7h2.8l-4.6,11.9c-0.9,2.4-2,3.3-3.8,3.3c-1.1,0-1.9-0.3-2.8-0.7l0.9-2c0.5,0.3,1,0.4,1.6,0.4
		c0.7,0,1.2-0.3,1.7-1.3l-4.8-11.6h2.9l3.3,8.6L230.2,246.7z"/>
	<path d="M233.9,256.8l1.2-1.8c1.3,0.9,2.6,1.4,3.8,1.4c1.1,0,1.8-0.5,1.8-1.3v0c0-0.9-1.2-1.2-2.6-1.6c-1.7-0.5-3.6-1.2-3.6-3.4v0
		c0-2.2,1.8-3.6,4.1-3.6c1.5,0,3,0.5,4.3,1.3l-1.1,1.9c-1.1-0.7-2.3-1.1-3.3-1.1c-1,0-1.6,0.5-1.6,1.1v0c0,0.9,1.3,1.2,2.6,1.7
		c1.7,0.5,3.6,1.3,3.6,3.4v0c0,2.4-1.9,3.7-4.3,3.7C237.2,258.6,235.4,258,233.9,256.8z"/>
	<path d="M246.2,255.1V249h-1.5v-2.3h1.5v-3.2h2.7v3.2h3.1v2.3h-3.1v5.7c0,1,0.5,1.5,1.4,1.5c0.6,0,1.1-0.1,1.7-0.4v2.2
		c-0.7,0.4-1.4,0.6-2.4,0.6C247.6,258.5,246.2,257.7,246.2,255.1z"/>
	<path d="M253.7,252.6L253.7,252.6c0-3.4,2.4-6.1,5.7-6.1c3.7,0,5.6,2.9,5.6,6.2c0,0.2,0,0.5,0,0.7h-8.5c0.3,1.9,1.6,2.9,3.3,2.9
		c1.3,0,2.2-0.5,3.1-1.4l1.6,1.4c-1.1,1.3-2.6,2.2-4.8,2.2C256.3,258.6,253.7,256.2,253.7,252.6z M262.3,251.7
		c-0.2-1.7-1.2-3.1-2.9-3.1c-1.6,0-2.8,1.3-3,3.1H262.3z"/>
	<path d="M267.6,246.7h2.7v1.8c0.7-1,1.8-2,3.5-2c1.7,0,2.9,0.8,3.5,2c0.9-1.2,2.2-2,3.9-2c2.5,0,4.1,1.6,4.1,4.4v7.4h-2.7v-6.6
		c0-1.8-0.9-2.8-2.4-2.8c-1.5,0-2.5,1-2.5,2.9v6.6h-2.7v-6.6c0-1.8-0.9-2.8-2.4-2.8c-1.5,0-2.5,1.1-2.5,2.9v6.6h-2.7V246.7z"/>
	<path d="M287.6,256.8l1.2-1.8c1.3,0.9,2.6,1.4,3.8,1.4c1.1,0,1.8-0.5,1.8-1.3v0c0-0.9-1.2-1.2-2.6-1.6c-1.7-0.5-3.6-1.2-3.6-3.4v0
		c0-2.2,1.8-3.6,4.1-3.6c1.5,0,3,0.5,4.3,1.3l-1.1,1.9c-1.1-0.7-2.3-1.1-3.3-1.1c-1,0-1.6,0.5-1.6,1.1v0c0,0.9,1.3,1.2,2.6,1.7
		c1.7,0.5,3.6,1.3,3.6,3.4v0c0,2.4-1.9,3.7-4.3,3.7C290.9,258.6,289,258,287.6,256.8z"/>
</g>
<g>
	<path class="st1" d="M99.2,108.5c-0.1,0-0.1,0-0.2,0.2l-1.1,2.7c-0.2,0.4-0.3,0.8-0.3,1.2c0,0.3,0.2,0.6,0.8,0.6h0.3
		c0.2,0,0.3,0,0.3,0.1s-0.1,0.2-0.3,0.2c-0.6,0-1.4,0-2,0c-0.2,0-1.2,0-2.2,0c-0.3,0-0.4,0-0.4-0.2s0.1-0.1,0.2-0.1h0.6
		c0.9-0.1,1.2-0.8,1.6-1.7l4.8-11.9c0.2-0.6,0.3-0.8,0.5-0.8c0.2,0,0.3,0.2,0.5,0.6c0.5,1,3.5,8.8,4.7,11.7c0.7,1.7,1.2,2,1.7,2.1
		c0.3,0,0.5,0.1,0.8,0.1c0.1,0,0.2,0,0.2,0.1s-0.2,0.2-0.9,0.2c-0.7,0-2.1,0-3.6,0c-0.3,0-0.6,0-0.6-0.2s0.1-0.1,0.3-0.2
		c0.2-0.1,0.2-0.2,0.2-0.4c0,0,0,0,0,0l-1.5-4.2c0-0.1-0.1-0.1-0.2-0.1H99.2z M103.1,107.6C103.2,107.6,103.2,107.5,103.1,107.6
		c0.1-0.1,0.1-0.1,0.1-0.1l-1.7-4.7c0-0.1,0-0.2-0.1-0.2s-0.1,0.1-0.1,0.2l-1.7,4.7c0,0.1,0,0.1,0.1,0.1H103.1z"/>
	<path class="st1" d="M111.8,111.7c-3-2.9-3.1-7.6-0.3-10.6c0-0.1,0.1-0.1,0.1-0.2c1.7-1.4,3.8-2.2,6-2c0.9,0,1.8,0.1,2.8,0.2
		c0.7,0.1,1.3,0.3,1.9,0.3c0.2,0,0.3,0.1,0.3,0.2s-0.1,0.4-0.1,1.1s0,1.7-0.1,2c-0.1,0.4,0,0.4-0.2,0.4c-0.2,0-0.2-0.2-0.2-0.4
		c0-0.7-0.3-1.3-0.7-1.7c-1.1-0.9-2.5-1.3-3.9-1.2c-1.3-0.1-2.6,0.4-3.6,1.2c-1.3,1.3-1.9,3.1-1.7,4.9c-0.2,3.5,2.5,6.5,6,6.8
		c1.7,0,2.7-0.2,3.5-1.1c0.3-0.4,0.5-0.8,0.6-1.2c0.1-0.3,0.1-0.4,0.2-0.4c0.1,0,0.2,0.1,0.2,0.3c-0.1,0.8-0.2,1.7-0.4,2.5
		c0,0.3-0.2,0.5-0.5,0.6c-1.1,0.3-2.3,0.5-3.4,0.4C116,113.9,113.7,113.1,111.8,111.7z"/>
	<path class="st1" d="M136.1,105.2c0.1,0,0.1,0,0.1-0.1v-0.4c0-2.9,0-3.4,0-4s-0.2-1-0.8-1.1c-0.2,0-0.5,0-0.7,0
		c-0.2,0-0.3,0-0.3-0.2c0-0.2,0.1-0.2,0.4-0.2c1,0,2.2,0,2.7,0c0.5,0,1.7,0,2.4,0c0.3,0,0.4,0,0.4,0.2c0,0.2-0.1,0.2-0.3,0.2
		c-0.2,0-0.4,0-0.6,0c-0.5,0.1-0.7,0.4-0.7,1.1c0,0.7,0,1.1,0,4v3.3c0,1.7,0,3.2,0.1,4.1c0,0.5,0.2,0.9,0.7,1c0.3,0,0.6,0.1,1,0.1
		c0.2,0,0.3,0,0.3,0.1s-0.1,0.2-0.4,0.2c-1.2,0-2.4,0-3,0c-0.5,0-1.6,0-2.4,0c-0.3,0-0.4,0-0.4-0.2s0.1-0.1,0.3-0.1
		c0.2,0,0.5,0,0.7-0.1c0.4-0.1,0.5-0.5,0.6-1.1c0.1-0.8,0.1-2.3,0.1-4v-1.7c0-0.1,0-0.1-0.1-0.1c0,0,0,0,0,0h-7.4
		c-0.1,0-0.1,0-0.1,0.1c0,0,0,0,0,0v1.7c0,1.7,0,3.2,0.1,4.1c0.1,0.5,0.2,0.9,0.7,1c0.3,0,0.6,0.1,1,0.1c0.2,0,0.3,0,0.3,0.1
		c0,0.1-0.1,0.2-0.4,0.2c-1.2,0-2.4,0-2.9,0c-0.5,0-1.6,0-2.4,0c-0.2,0-0.4,0-0.4-0.2c0-0.2,0.1-0.1,0.3-0.1c0.2,0,0.5,0,0.7-0.1
		c0.4-0.1,0.5-0.5,0.6-1.1c0.1-0.8,0.1-2.3,0.1-4v-3.3c0-2.9,0-3.4,0-4s-0.2-1-0.8-1.1c-0.2,0-0.5,0-0.7,0c-0.2,0-0.3,0-0.3-0.2
		s0.1-0.2,0.4-0.2c1,0,2.2,0,2.7,0c0.5,0,1.7,0,2.4,0c0.3,0,0.4,0,0.4,0.2s-0.1,0.2-0.3,0.2c-0.2,0-0.4,0-0.6,0
		c-0.5,0.1-0.7,0.4-0.7,1.1c0,0.7,0,1.1,0,4v0.4c0,0.1,0,0.1,0.1,0.1c0,0,0,0,0,0L136.1,105.2z"/>
	<path class="st1" d="M143.9,104.6c0-2.9,0-3.4,0-4s-0.2-1-0.6-1.1c-0.2-0.1-0.4-0.1-0.7-0.1c-0.2,0-0.3,0-0.3-0.2s0.1-0.1,0.5-0.1
		c0.7,0,1.9,0,2.4,0s1.6,0,2.3,0c0.2,0,0.4,0,0.4,0.1c0,0.1-0.1,0.2-0.3,0.2c-0.2,0-0.4,0-0.6,0c-0.5,0.1-0.7,0.4-0.7,1.1s0,1.1,0,4
		v3.3c0,1.8,0,3.3,0.1,4.2c0,0.5,0.2,0.8,0.8,0.9c0.3,0,0.6,0.1,1,0.1c0.2,0,0.3,0,0.3,0.1s-0.2,0.2-0.4,0.2c-1.2,0-2.4,0-3,0
		s-1.6,0-2.4,0c-0.2,0-0.4,0-0.4-0.2s0.1-0.1,0.3-0.1c0.2,0,0.5,0,0.7-0.1c0.4-0.1,0.5-0.4,0.5-1c0.1-0.8,0.1-2.3,0.1-4.1
		L143.9,104.6z"/>
	<path class="st1" d="M151.9,104.6c0-2.9,0-3.4,0-4s-0.2-1-0.8-1.1c-0.2,0-0.5,0-0.7,0c-0.2,0-0.3,0-0.3-0.2s0.1-0.2,0.4-0.2h1.5
		h1.2h4.7c0.3,0,0.5-0.1,0.8-0.1c0.1,0,0.2-0.1,0.3-0.1c0.1,0,0.1,0.1,0.1,0.2s-0.1,0.4-0.1,1.2c0,0.2,0,1-0.1,1.2
		c-0.1,0.2,0,0.2-0.2,0.2c-0.2,0-0.2-0.1-0.2-0.3c0-0.2,0-0.5-0.1-0.7c-0.1-0.3-0.3-0.6-1.2-0.7c-0.3,0-2.3-0.1-2.7-0.1
		c-0.1,0-0.1,0.1-0.1,0.2v4.8c0,0.1,0,0.2,0.1,0.2c0.4,0,2.6,0,3,0s0.7-0.1,0.9-0.3c0.2-0.2,0.2-0.2,0.3-0.2s0.1,0,0.1,0.2
		c-0.1,0.5-0.1,0.9-0.2,1.4c0,0.4-0.1,1.1-0.1,1.2c0,0.1,0,0.4-0.2,0.4c-0.2,0-0.2-0.1-0.2-0.2s0-0.4-0.1-0.7
		c-0.1-0.2-0.4-0.7-1.1-0.7c-0.4,0-2.2-0.1-2.7-0.1c-0.1,0-0.1,0.1-0.1,0.2v1.5c0,0.6,0,2.4,0,2.9c0,1.3,0.3,1.6,2.3,1.6
		c0.6,0,1.2,0,1.8-0.2c0.5-0.2,0.7-0.6,0.9-1.4c0-0.2,0.1-0.3,0.2-0.3s0.2,0.1,0.2,0.3c0,0.7-0.1,1.4-0.3,2.1
		c-0.1,0.5-0.3,0.5-1,0.5c-1.4,0-2.4,0-3.3,0s-1.4,0-2,0h-1.1h-1.3c-0.2,0-0.4,0-0.4-0.2s0.1-0.1,0.3-0.1c0.2,0,0.5,0,0.7-0.1
		c0.4-0.1,0.5-0.5,0.5-1.1c0.1-0.8,0.1-2.3,0.1-4L151.9,104.6z"/>
	<path class="st1" d="M162.6,101c-0.4-1.1-0.8-1.2-1.4-1.4c-0.2-0.1-0.5-0.1-0.7-0.1c-0.2,0-0.2,0-0.2-0.2s0.2-0.2,0.5-0.2
		c1,0,2.1,0,2.8,0c0.5,0,1.4,0,2.3,0c0.2,0,0.4,0,0.4,0.2s-0.1,0.2-0.3,0.2c-0.3,0-0.5,0-0.7,0.1c-0.1,0.1-0.2,0.2-0.2,0.4
		c0.1,0.5,0.2,1,0.4,1.5l3.3,8.6h0.1c0.8-2.1,3.3-8.2,3.7-9.4c0.1-0.2,0.1-0.5,0.2-0.7c0-0.2-0.1-0.3-0.3-0.4
		c-0.2-0.1-0.5-0.1-0.8-0.1c-0.2,0-0.3,0-0.3-0.2c0-0.2,0.2-0.2,0.5-0.2c1,0,1.7,0,2,0s1.2,0,1.8,0c0.2,0,0.4,0,0.4,0.2
		c0,0.2-0.1,0.2-0.3,0.2c-0.3,0-0.6,0.1-0.9,0.2c-0.2,0.2-0.5,0.5-1.1,1.7c-0.7,1.8-1.2,2.8-2.3,5.1c-1.2,2.8-2.1,4.8-2.5,5.8
		s-0.6,1.4-0.9,1.4c-0.3,0-0.4-0.3-0.7-1.2L162.6,101z"/>
	<path class="st1" d="M178.3,104.6c0-2.9,0-3.4,0-4s-0.2-1-0.8-1.1c-0.2,0-0.5,0-0.7,0c-0.2,0-0.3,0-0.3-0.2s0.1-0.2,0.4-0.2h1.5
		h1.2h4.7c0.3,0,0.6-0.1,0.8-0.1c0.1,0,0.2-0.1,0.3-0.1c0.1,0,0.1,0.1,0.1,0.2c-0.1,0.4-0.1,0.8-0.1,1.2c0,0.2-0.1,1-0.1,1.2
		c0,0.2,0,0.2-0.2,0.2s-0.2-0.1-0.2-0.3c0-0.2,0-0.5-0.1-0.7c-0.1-0.3-0.3-0.6-1.2-0.7c-0.3,0-2.3-0.1-2.7-0.1
		c-0.1,0-0.1,0.1-0.1,0.2v4.8c0,0.1,0,0.2,0.1,0.2c0.4,0,2.6,0,3,0s0.7-0.1,0.9-0.3c0.2-0.2,0.2-0.2,0.3-0.2s0.1,0,0.1,0.2
		c-0.1,0.5-0.1,0.9-0.1,1.4c0,0.4-0.1,1.1-0.1,1.2c0,0.1,0,0.4-0.2,0.4c-0.2,0-0.2-0.1-0.2-0.2c0-0.2,0-0.5-0.1-0.7
		c-0.1-0.4-0.4-0.7-1.1-0.7c-0.4,0-2.2-0.1-2.7-0.1c-0.1,0-0.1,0.1-0.1,0.2v1.5c0,0.6,0,2.4,0,2.9c0,1.3,0.3,1.6,2.3,1.6
		c0.6,0,1.2,0,1.8-0.2c0.5-0.2,0.7-0.6,0.9-1.4c0-0.2,0.1-0.3,0.2-0.3s0.1,0.1,0.1,0.3c0,0.7-0.1,1.4-0.2,2.1
		c-0.1,0.5-0.3,0.5-1,0.5c-1.4,0-2.4,0-3.3,0c-0.8,0-1.4,0-2,0h-1.1h-1.3c-0.3,0-0.4,0-0.4-0.2s0.1-0.1,0.3-0.1c0.2,0,0.5,0,0.7-0.1
		c0.4-0.1,0.5-0.5,0.6-1.1c0.1-0.8,0.1-2.3,0.1-4L178.3,104.6z"/>
	<path class="st1" d="M190.9,99.2c0-0.3,0.2-0.5,0.3-0.5s0.3,0.1,0.5,0.6l5.2,10.7l5.1-10.8c0.1-0.3,0.2-0.5,0.4-0.5
		c0.2,0,0.3,0.2,0.3,0.6l1.7,11.7c0.2,1.2,0.4,1.7,0.9,1.9c0.4,0.1,0.8,0.2,1.2,0.2c0.2,0,0.3,0,0.3,0.1s-0.2,0.2-0.5,0.2
		c-0.5,0-3.1,0-3.9-0.1c-0.4,0-0.6-0.1-0.6-0.2c0-0.1,0.1-0.1,0.2-0.2s0.2-0.3,0.1-0.8l-1.1-8.3h-0.1l-4.1,8.6
		c-0.4,0.9-0.5,1.1-0.7,1.1c-0.2,0-0.4-0.4-0.7-0.9c-0.5-0.9-2-3.8-2.2-4.3c-0.2-0.5-1.2-2.8-2-4.2h-0.1l-1,7.5
		c0,0.3-0.1,0.6-0.1,0.9c0,0.4,0.2,0.5,0.6,0.6c0.3,0.1,0.5,0.1,0.8,0.1c0.1,0,0.3,0,0.3,0.1s-0.2,0.2-0.5,0.2c-0.8,0-1.7,0-2,0
		s-1.2,0-1.9,0c-0.2,0-0.3,0-0.3-0.2c0-0.2,0.1-0.1,0.3-0.1c0.2,0,0.4,0,0.6,0c0.5-0.1,0.7-0.9,0.8-1.5L190.9,99.2z"/>
	<path class="st1" d="M208.9,104.6c0-2.9,0-3.4,0-4s-0.2-1-0.8-1.1c-0.2,0-0.5,0-0.7,0c-0.2,0-0.3,0-0.3-0.2s0.1-0.2,0.4-0.2h1.5
		h1.2h4.7c0.3,0,0.6-0.1,0.8-0.1c0.1,0,0.2-0.1,0.3-0.1c0.1,0,0.1,0.1,0.1,0.2s-0.1,0.4-0.2,1.2c0,0.2,0,1-0.1,1.2s0,0.2-0.2,0.2
		c-0.2,0-0.2-0.1-0.2-0.2c0-0.2,0-0.5-0.1-0.7c-0.1-0.3-0.3-0.6-1.2-0.7c-0.3,0-2.3-0.1-2.7-0.1c-0.1,0-0.1,0.1-0.1,0.2v4.8
		c0,0.1,0,0.2,0.1,0.2c0.4,0,2.6,0,3,0c0.4,0,0.7-0.1,0.9-0.3c0.2-0.2,0.2-0.2,0.3-0.2c0.1,0,0.1,0,0.1,0.2
		c-0.1,0.5-0.1,0.9-0.1,1.4c0,0.4-0.1,1.1-0.1,1.2s0,0.4-0.2,0.4c-0.2,0-0.2-0.1-0.2-0.2c0-0.2,0-0.5-0.1-0.7
		c-0.1-0.4-0.4-0.7-1.1-0.7c-0.4,0-2.2-0.1-2.7-0.1c-0.1,0-0.1,0.1-0.1,0.2v1.5c0,0.6,0,2.4,0,2.9c0,1.3,0.3,1.6,2.3,1.6
		c0.6,0,1.2,0,1.8-0.2c0.5-0.2,0.7-0.6,0.9-1.4c0-0.2,0.1-0.3,0.2-0.3s0.1,0.1,0.1,0.3c0,0.7-0.1,1.4-0.2,2.1
		c-0.1,0.5-0.3,0.5-1,0.5c-1.4,0-2.4,0-3.3,0s-1.4,0-2,0H209h-1.3c-0.2,0-0.4,0-0.4-0.2s0.1-0.1,0.3-0.1c0.2,0,0.5,0,0.7-0.1
		c0.4-0.1,0.5-0.5,0.6-1.1c0.1-0.8,0.1-2.3,0.1-4L208.9,104.6z"/>
	<path class="st1" d="M221.5,110.9c0,1.5,0.3,2,0.7,2.1c0.3,0.1,0.6,0.1,1,0.1c0.2,0,0.3,0,0.3,0.1s-0.2,0.2-0.4,0.2
		c-1.2,0-2,0-2.3,0c-0.2,0-1.1,0-2.1,0c-0.2,0-0.4,0-0.4-0.2s0.1-0.1,0.3-0.1c0.3,0,0.6,0,0.9-0.1c0.5-0.1,0.6-0.7,0.6-2.3l0.2-11.2
		c0-0.4,0-0.6,0.2-0.6c0.2,0,0.4,0.2,0.7,0.6c0.3,0.3,3.1,3.3,5.9,6.1c1.3,1.2,3.9,4,4.2,4.3h0.1l-0.2-8.6c0-1.2-0.2-1.5-0.6-1.7
		c-0.3-0.1-0.7-0.1-1-0.1c-0.2,0-0.3,0-0.3-0.2s0.2-0.2,0.5-0.2c1,0,1.9,0,2.3,0c0.2,0,0.9,0,1.9,0c0.2,0,0.4,0,0.4,0.2
		s-0.1,0.2-0.3,0.2c-0.2,0-0.4,0-0.6,0c-0.5,0.2-0.7,0.6-0.7,1.6l-0.2,12c0,0.4-0.1,0.6-0.2,0.6c-0.2,0-0.4-0.2-0.6-0.4
		c-1.2-1.1-3.7-3.7-5.6-5.6c-1.9-1.9-4.2-4.4-4.5-4.8h-0.1L221.5,110.9z"/>
	<path class="st1" d="M240.8,100.2l-2.8,0.1c-1.1,0-1.6,0.1-1.8,0.6c-0.1,0.2-0.3,0.4-0.3,0.7c0,0.1-0.1,0.2-0.2,0.2
		s-0.2-0.1-0.2-0.3c0-0.2,0.4-2,0.4-2.2c0-0.2,0.1-0.4,0.2-0.4c0.3,0.1,0.5,0.2,0.8,0.2c0.6,0,1.2,0.1,1.9,0.1h7.5
		c0.4,0,0.9,0,1.3-0.1c0.2,0,0.3-0.1,0.5-0.1c0.1,0,0.1,0.1,0.1,0.4c0,0.3,0,1.7,0,2.2c0,0.2,0,0.3-0.2,0.3c-0.2,0-0.2-0.1-0.2-0.4
		v-0.2c0-0.5-0.6-1-2.2-1.1h-2.4v7.8c0,1.7,0,3.2,0.1,4.1c0.1,0.5,0.2,0.9,0.7,1c0.3,0,0.6,0.1,1,0.1c0.2,0,0.3,0,0.3,0.1
		s-0.2,0.2-0.4,0.2c-1.2,0-2.4,0-3,0c-0.5,0-1.6,0-2.4,0c-0.3,0-0.4,0-0.4-0.2s0.1-0.1,0.3-0.1c0.2,0,0.5,0,0.7-0.1
		c0.4-0.1,0.5-0.5,0.6-1.1c0.1-0.8,0.1-2.3,0.1-4L240.8,100.2z"/>
	<path class="st1" d="M102.7,125.2c-0.6-0.8-1-1.7-1-2.7c0-1.5,1.3-3.5,4.6-3.5c0.8,0,1.6,0.1,2.3,0.4c0.3,0.1,0.3,0.3,0.3,0.5
		c0,0.6-0.2,2.1-0.2,2.4s-0.1,0.3-0.2,0.3s-0.1-0.1-0.1-0.4c0-0.6-0.2-1.1-0.6-1.6c-0.5-0.6-1.3-0.9-2.1-0.9c-1.1,0-2,0.9-2,2.1
		c0,0,0,0.1,0,0.1c0,1.8,1.6,3.3,3.2,5c0.6,0.7,3,2.8,3.3,3.2c0.6-0.9,0.9-1.9,0.9-2.9c0-0.3-0.1-0.7-0.4-0.9
		c-0.3-0.2-0.6-0.3-0.9-0.3c-0.1,0-0.2,0-0.2-0.1s0.1-0.2,0.3-0.2c0.8,0,1.5,0.1,2.3,0.1c0.4,0,0.6,0.2,0.6,0.4
		c-0.1,1.7-0.8,3.2-1.9,4.5c0.8,0.7,1.7,1.3,2.6,1.8c0.6,0.4,1.3,0.6,2,0.7c0.2,0,0.3,0,0.3,0.2c0,0.2-0.2,0.2-0.6,0.2h-1.5
		c-1.6,0.2-3.3-0.4-4.5-1.5c-1.2,1.2-2.8,1.8-4.5,1.7c-4,0-5.3-2.5-5.3-4.2C99.8,127.8,100.9,126.1,102.7,125.2z M108.6,131.6
		c-1.1-1-2.9-2.7-3.4-3.3c-0.5-0.5-1.7-1.9-2-2.4c-0.9,0.7-1.4,1.8-1.3,2.9c-0.1,2,1.4,3.8,3.4,3.9c0.1,0,0.2,0,0.2,0
		C106.7,132.7,107.7,132.3,108.6,131.6z"/>
	<path class="st1" d="M124,128.7c-0.1,0-0.1,0-0.2,0.1l-1,2.7c-0.2,0.4-0.3,0.8-0.3,1.2c0,0.3,0.2,0.6,0.8,0.6h0.3
		c0.2,0,0.3,0,0.3,0.1s-0.1,0.2-0.3,0.2c-0.6,0-1.4,0-2,0c-0.2,0-1.2,0-2.2,0c-0.2,0-0.4,0-0.4-0.2c0-0.2,0.1-0.1,0.2-0.1h0.6
		c0.9-0.1,1.2-0.8,1.6-1.7l4.8-12c0.2-0.6,0.3-0.8,0.5-0.8c0.2,0,0.3,0.2,0.5,0.6c0.5,1,3.5,8.8,4.7,11.7c0.7,1.7,1.2,2,1.7,2.1
		c0.3,0,0.5,0.1,0.8,0.1c0.1,0,0.2,0,0.2,0.1s-0.2,0.2-0.9,0.2c-0.7,0-2.1,0-3.6,0c-0.3,0-0.6,0-0.6-0.2c0-0.2,0.1-0.1,0.3-0.2
		c0.2-0.1,0.2-0.2,0.2-0.4c0,0,0,0,0,0l-1.5-4c0-0.1-0.1-0.1-0.2-0.1L124,128.7z M127.8,127.7c0.1,0,0.1,0,0.1-0.1l-1.7-4.7
		c0-0.1,0-0.2-0.1-0.2s-0.1,0.1-0.1,0.2l-1.7,4.7c0,0.1,0,0.1,0.1,0.1H127.8z"/>
	<path class="st1" d="M135.5,133.4c-0.3-0.1-0.4-0.2-0.4-0.6c0-1,0.1-2.2,0.1-2.4c0-0.3,0.1-0.5,0.2-0.5s0.2,0.2,0.2,0.3
		c0,0.3,0.1,0.7,0.2,1c0.3,1.2,1.5,2,2.7,1.9c1.3,0.1,2.4-0.8,2.5-2.1c0,0,0-0.1,0-0.1c0-0.9-0.3-1.8-1.9-3l-0.8-0.7
		c-2.1-1.6-2.8-2.9-2.8-4.5c0-2.1,1.7-3.6,4.4-3.6c0.9,0,1.7,0.1,2.5,0.3c0.2,0,0.3,0.1,0.3,0.2s-0.1,0.8-0.1,2.3
		c0,0.4,0,0.6-0.2,0.6s-0.2-0.1-0.2-0.3c0-0.4-0.2-0.9-0.5-1.2c-0.5-0.6-1.3-1-2.1-0.9c-1.1-0.1-2.1,0.6-2.2,1.7c0,0.1,0,0.1,0,0.2
		c0,0.9,0.4,1.5,2,2.7l0.5,0.4c2.3,1.8,3.1,3,3.1,4.9c0,1.3-0.7,2.6-1.8,3.3c-0.9,0.5-2,0.8-3,0.8
		C137.3,134,136.4,133.8,135.5,133.4z"/>
	<path class="st1" d="M145.7,133.4c-0.3-0.1-0.4-0.2-0.4-0.6c0-1,0.1-2.2,0.1-2.4c0-0.3,0.1-0.5,0.2-0.5c0.2,0,0.2,0.2,0.2,0.3
		c0,0.3,0.1,0.7,0.2,1c0.3,1.2,1.5,2,2.7,1.9c1.3,0.1,2.4-0.8,2.5-2.1c0,0,0-0.1,0-0.1c0-0.9-0.3-1.8-1.9-3l-0.9-0.7
		c-2.1-1.6-2.8-2.9-2.8-4.5c0-2.1,1.7-3.6,4.4-3.6c0.9,0,1.7,0.1,2.5,0.3c0.2,0,0.3,0.1,0.3,0.2s-0.1,0.8-0.1,2.3
		c0,0.4,0,0.6-0.2,0.6c-0.2,0-0.2-0.1-0.2-0.3c0-0.4-0.2-0.9-0.5-1.2c-0.5-0.6-1.3-1-2.1-0.9c-1.1-0.1-2.1,0.6-2.2,1.7
		c0,0.1,0,0.2,0,0.2c0,0.9,0.4,1.5,2,2.7l0.5,0.4c2.3,1.8,3.1,3,3.1,4.9c0,1.3-0.6,2.6-1.8,3.3c-0.9,0.5-2,0.8-3,0.8
		C147.5,134,146.6,133.8,145.7,133.4z"/>
	<path class="st1" d="M156.6,124.8c0-2.9,0-3.4,0-4s-0.2-1-0.8-1.1c-0.2,0-0.5,0-0.7,0c-0.2,0-0.3,0-0.3-0.2s0.1-0.2,0.4-0.2h1.5
		h1.2h4.7c0.3,0,0.6-0.1,0.8-0.1c0.1,0,0.2-0.1,0.3-0.1c0.1,0,0.1,0.1,0.1,0.2c0,0.1-0.1,0.4-0.2,1.2c0,0.2,0,1-0.1,1.2
		c-0.1,0.2,0,0.2-0.2,0.2s-0.2-0.1-0.2-0.3c0-0.2,0-0.5-0.1-0.7c-0.1-0.3-0.3-0.6-1.2-0.7c-0.3,0-2.3-0.1-2.7-0.1
		c-0.1,0-0.1,0-0.1,0.2v4.8c0,0.1,0,0.2,0.1,0.2c0.4,0,2.6,0,3,0c0.4,0,0.7-0.1,0.9-0.3s0.2-0.2,0.3-0.2c0.1,0,0.1,0,0.1,0.1
		c-0.1,0.5-0.1,0.9-0.1,1.4c0,0.4-0.1,1.1-0.1,1.2c0,0.1,0,0.4-0.2,0.4c-0.2,0-0.2-0.1-0.2-0.2c0-0.2,0-0.5-0.1-0.7
		c-0.1-0.4-0.4-0.7-1.1-0.7c-0.4,0-2.2-0.1-2.7-0.1c-0.1,0-0.1,0.1-0.1,0.2v1.5c0,0.6,0,2.4,0,2.9c0,1.3,0.3,1.6,2.3,1.6
		c0.6,0,1.2,0,1.8-0.2c0.5-0.2,0.7-0.6,0.9-1.4c0-0.2,0.1-0.3,0.2-0.3s0.1,0.1,0.1,0.3c0,0.7-0.1,1.4-0.2,2.1
		c-0.1,0.5-0.3,0.5-1,0.5c-1.4,0-2.4,0-3.3,0c-0.8,0-1.4,0-2,0h-1.1h-1.3c-0.2,0-0.4,0-0.4-0.2c0-0.2,0.1-0.1,0.3-0.1
		c0.2,0,0.5,0,0.7-0.1c0.4-0.1,0.5-0.5,0.6-1.1c0.1-0.8,0.1-2.3,0.1-4L156.6,124.8z"/>
	<path class="st1" d="M166.8,133.4c-0.3-0.1-0.4-0.2-0.4-0.6c0-1,0.1-2.2,0.1-2.4s0.1-0.5,0.2-0.5c0.2,0,0.2,0.2,0.2,0.3
		c0,0.3,0.1,0.7,0.2,1c0.3,1.2,1.5,2,2.7,1.9c1.3,0.1,2.4-0.8,2.5-2.1c0,0,0-0.1,0-0.1c0-0.9-0.3-1.8-1.9-3l-0.9-0.7
		c-2.1-1.6-2.8-2.9-2.8-4.5c0-2.1,1.7-3.6,4.4-3.6c0.9,0,1.7,0.1,2.5,0.3c0.2,0,0.3,0.1,0.3,0.2s-0.1,0.8-0.1,2.3
		c0,0.4,0,0.6-0.2,0.6s-0.2-0.1-0.2-0.3c0-0.4-0.2-0.9-0.5-1.2c-0.5-0.6-1.3-1-2.1-0.9c-1.1-0.1-2.1,0.6-2.2,1.7c0,0.1,0,0.2,0,0.2
		c0,0.9,0.4,1.5,2,2.7l0.5,0.4c2.3,1.8,3.1,3,3.1,4.9c0,1.3-0.6,2.5-1.7,3.2c-0.9,0.5-2,0.8-3,0.8
		C168.6,134,167.7,133.8,166.8,133.4z"/>
	<path class="st1" d="M177,133.4c-0.3-0.1-0.4-0.2-0.4-0.6c0-1,0.1-2.2,0.1-2.4s0.1-0.5,0.2-0.5s0.2,0.2,0.2,0.3
		c0,0.3,0.1,0.7,0.2,1c0.3,1.2,1.5,2,2.7,1.9c1.3,0.1,2.4-0.8,2.5-2.1c0,0,0-0.1,0-0.1c0-0.9-0.3-1.8-1.9-3l-0.9-0.7
		c-2.1-1.6-2.8-2.9-2.8-4.5c0-2.1,1.7-3.6,4.4-3.6c0.9,0,1.7,0.1,2.5,0.3c0.2,0,0.3,0.1,0.3,0.2s-0.1,0.8-0.1,2.3
		c0,0.4,0,0.6-0.2,0.6s-0.2-0.1-0.2-0.3c0-0.4-0.2-0.9-0.5-1.2c-0.5-0.6-1.2-1-2-1c-1.1-0.1-2.1,0.6-2.2,1.7c0,0.1,0,0.1,0,0.2
		c0,0.9,0.4,1.5,2,2.7l0.5,0.4c2.3,1.8,3.1,3,3.1,4.9c0,1.3-0.7,2.6-1.8,3.3c-0.9,0.5-2,0.8-3,0.8C178.8,134,177.9,133.8,177,133.4z
		"/>
	<path class="st1" d="M188.9,119.4c0-0.3,0.2-0.5,0.3-0.5c0.2,0,0.3,0.1,0.5,0.6l5.2,10.7l5.2-10.8c0.1-0.3,0.3-0.5,0.4-0.5
		c0.2,0,0.3,0.2,0.3,0.6l1.7,11.7c0.2,1.2,0.4,1.7,0.9,1.9c0.4,0.1,0.8,0.2,1.2,0.2c0.2,0,0.3,0,0.3,0.1s-0.2,0.2-0.5,0.2
		c-0.5,0-3.1,0-3.9-0.1c-0.4,0-0.6-0.1-0.6-0.2s0.1-0.1,0.2-0.2s0.2-0.3,0.1-0.8l-1.1-8.4h-0.1l-4.1,8.6c-0.4,0.9-0.5,1.1-0.7,1.1
		c-0.2,0-0.4-0.4-0.7-0.9c-0.5-0.9-1.9-3.8-2.2-4.3c-0.2-0.5-1.3-2.8-2-4.2h-0.1l-1,7.5c0,0.3,0,0.6,0,0.9c0,0.4,0.3,0.5,0.6,0.6
		c0.3,0.1,0.5,0.1,0.8,0.1c0.2,0,0.3,0,0.3,0.1s-0.2,0.2-0.5,0.2c-0.8,0-1.7,0-2,0c-0.3,0-1.2,0-1.9,0c-0.2,0-0.3,0-0.3-0.2
		s0.1-0.1,0.3-0.1c0.2,0,0.4,0,0.6,0c0.5-0.1,0.7-0.9,0.8-1.5L188.9,119.4z"/>
	<path class="st1" d="M206.1,124.8c0-2.9,0-3.4,0-4s-0.2-1-0.8-1.1c-0.2,0-0.5,0-0.7,0c-0.2,0-0.3,0-0.3-0.2s0.1-0.2,0.4-0.2h1.5
		h1.2h4.7c0.3,0,0.5-0.1,0.8-0.1c0.1,0,0.2-0.1,0.3-0.1c0.1,0,0.1,0.1,0.1,0.2c0,0.1-0.1,0.4-0.1,1.2c0,0.2-0.1,1-0.1,1.2
		c0,0.2,0,0.2-0.2,0.2c-0.2,0-0.2-0.1-0.2-0.3c0-0.2,0-0.5-0.1-0.7c-0.1-0.3-0.3-0.6-1.2-0.7c-0.3,0-2.3-0.1-2.7-0.1
		c-0.1,0-0.1,0-0.1,0.2v4.8c0,0.1,0,0.2,0.1,0.2c0.4,0,2.6,0,3,0c0.4,0,0.7-0.1,0.9-0.3c0.2-0.2,0.2-0.2,0.3-0.2
		c0.1,0,0.1,0,0.1,0.1s-0.1,0.4-0.2,1.4c0,0.4-0.1,1.1-0.1,1.2c0,0.1,0,0.4-0.2,0.4c-0.2,0-0.2-0.1-0.2-0.2c0-0.2,0-0.5-0.1-0.7
		c-0.1-0.4-0.4-0.7-1.1-0.7c-0.4,0-2.2-0.1-2.7-0.1c-0.1,0-0.1,0.1-0.1,0.2v1.5c0,0.6,0,2.4,0,2.9c0,1.3,0.3,1.6,2.3,1.6
		c0.6,0,1.2,0,1.8-0.2c0.5-0.2,0.7-0.6,0.9-1.4c0-0.2,0.1-0.3,0.2-0.3s0.2,0.1,0.2,0.3c0,0.7-0.1,1.4-0.2,2.1
		c-0.1,0.5-0.3,0.5-1,0.5c-1.4,0-2.4,0-3.3,0s-1.4,0-2,0h-1.1H205c-0.2,0-0.4,0-0.4-0.2c0-0.2,0.1-0.1,0.3-0.1c0.2,0,0.5,0,0.7-0.1
		c0.4-0.1,0.5-0.5,0.6-1.1c0.1-0.8,0.1-2.3,0.1-4L206.1,124.8z"/>
	<path class="st1" d="M218.7,131.1c0,1.5,0.3,2,0.7,2.1c0.3,0.1,0.7,0.1,1,0.1c0.2,0,0.3,0,0.3,0.1s-0.2,0.2-0.4,0.2
		c-1.2,0-2,0-2.3,0c-0.2,0-1.1,0-2,0c-0.2,0-0.4,0-0.4-0.2c0-0.2,0.1-0.1,0.3-0.1c0.3,0,0.6,0,0.9-0.1c0.5-0.1,0.6-0.7,0.6-2.3
		l0.2-11.2c0-0.4,0-0.6,0.2-0.6s0.4,0.2,0.7,0.6c0.3,0.3,3.1,3.3,5.9,6.1c1.3,1.2,3.9,4,4.2,4.3h0.1l-0.2-8.6c0-1.2-0.2-1.5-0.6-1.7
		c-0.3-0.1-0.7-0.1-1-0.1c-0.2,0-0.3-0.1-0.3-0.2s0.2-0.2,0.5-0.2c1,0,1.9,0,2.3,0c0.2,0,0.9,0,1.9,0c0.2,0,0.4,0,0.4,0.2
		s-0.1,0.2-0.3,0.2c-0.2,0-0.4,0-0.6,0c-0.5,0.2-0.7,0.6-0.7,1.6l-0.2,12c0,0.4-0.1,0.6-0.3,0.6s-0.4-0.2-0.6-0.4
		c-1.2-1.1-3.7-3.7-5.6-5.6s-4.2-4.4-4.5-4.8l0,0L218.7,131.1z"/>
	<path class="st1" d="M237.6,120.4l-2.8,0.1c-1.1,0-1.6,0.1-1.8,0.6c-0.1,0.2-0.2,0.4-0.3,0.7c0,0.1-0.1,0.2-0.2,0.2
		s-0.2-0.1-0.2-0.3c0.1-0.7,0.2-1.5,0.4-2.2c0-0.2,0.1-0.4,0.2-0.4c0.3,0.1,0.5,0.2,0.8,0.2c0.6,0,1.2,0.1,1.9,0.1h7.5
		c0.4,0,0.9,0,1.3-0.1c0.2,0,0.3-0.1,0.5-0.1c0.1,0,0.1,0.1,0.1,0.4s0,1.7,0,2.2c0,0.2,0,0.3-0.2,0.3c-0.2,0-0.2-0.1-0.2-0.4v-0.2
		c0-0.5-0.6-1-2.2-1.1H240v7.8c0,1.7,0,3.2,0.1,4.1c0.1,0.5,0.2,0.9,0.7,1c0.3,0,0.6,0.1,1,0.1c0.2,0,0.3,0,0.3,0.1
		s-0.2,0.2-0.4,0.2c-1.2,0-2.4,0-3,0c-0.5,0-1.6,0-2.4,0c-0.2,0-0.4,0-0.4-0.2c0-0.2,0.1-0.1,0.3-0.1c0.2,0,0.5,0,0.7-0.1
		c0.4-0.1,0.5-0.5,0.6-1.1c0.1-0.8,0.1-2.3,0.1-4L237.6,120.4z"/>
	<path class="st1" d="M118.9,145c0-2.9,0-3.4,0-4s-0.2-1-0.6-1.1c-0.2-0.1-0.5-0.1-0.7-0.1c-0.2,0-0.3,0-0.3-0.2
		c0-0.2,0.2-0.1,0.5-0.1c0.7,0,1.9,0,2.4,0c0.5,0,1.6,0,2.3,0c0.2,0,0.4,0,0.4,0.1s-0.1,0.2-0.3,0.2c-0.2,0-0.4,0-0.6,0
		c-0.5,0.1-0.7,0.4-0.7,1.1c0,0.7,0,1.1,0,4v3.3c0,1.8,0,3.3,0.1,4.2c0.1,0.5,0.2,0.8,0.8,0.9c0.3,0,0.6,0.1,1,0.1
		c0.2,0,0.3,0,0.3,0.1s-0.1,0.2-0.4,0.2c-1.2,0-2.4,0-2.9,0c-0.5,0-1.6,0-2.4,0c-0.2,0-0.4,0-0.4-0.2c0-0.2,0.1-0.1,0.3-0.1
		c0.2,0,0.5,0,0.7-0.1c0.4-0.1,0.5-0.4,0.6-1c0.1-0.8,0.1-2.3,0.1-4.1V145z"/>
	<path class="st1" d="M127.5,151.3c0,1.5,0.3,2,0.7,2.1c0.3,0.1,0.7,0.1,1,0.1c0.2,0,0.3,0,0.3,0.1c0,0.1-0.2,0.2-0.4,0.2
		c-1.2,0-2,0-2.3,0c-0.2,0-1.1,0-2,0c-0.2,0-0.4,0-0.4-0.2c0-0.2,0.1-0.1,0.3-0.1c0.3,0,0.6,0,0.9-0.1c0.5-0.1,0.6-0.7,0.6-2.3
		l0.2-11.2c0-0.4,0.1-0.6,0.2-0.6c0.2,0,0.4,0.2,0.7,0.6c0.3,0.3,3.1,3.3,5.9,6.1c1.3,1.2,3.9,4,4.2,4.3h0.1l-0.2-8.6
		c0-1.2-0.2-1.5-0.6-1.7c-0.3-0.1-0.7-0.1-1-0.1c-0.2,0-0.3-0.1-0.3-0.2c0-0.1,0.2-0.2,0.5-0.2c1,0,1.9,0,2.3,0c0.2,0,0.9,0,1.9,0
		c0.2,0,0.4,0,0.4,0.2c0,0.2-0.1,0.2-0.3,0.2c-0.2,0-0.4,0-0.6,0c-0.5,0.2-0.7,0.6-0.7,1.6l-0.2,12c0,0.4-0.1,0.6-0.2,0.6
		s-0.4-0.2-0.6-0.4c-1.2-1.1-3.7-3.7-5.6-5.6c-1.9-1.9-4.2-4.4-4.5-4.7l0,0L127.5,151.3z"/>
	<path class="st1" d="M141.8,153.6c-0.3-0.1-0.4-0.2-0.4-0.6c0-1,0.1-2.2,0.1-2.4c0-0.3,0.1-0.5,0.2-0.5s0.2,0.2,0.2,0.3
		c0,0.3,0.1,0.7,0.2,1c0.3,1.2,1.5,2,2.7,1.9c1.3,0.1,2.4-0.8,2.5-2.1c0,0,0-0.1,0-0.1c0-0.9-0.3-1.8-1.9-3l-0.9-0.7
		c-2.1-1.6-2.8-2.9-2.8-4.5c0-2.1,1.7-3.6,4.4-3.6c0.9,0,1.7,0.1,2.5,0.3c0.2,0,0.3,0.1,0.3,0.2c0,0.1-0.1,0.8-0.1,2.3
		c0,0.4,0,0.6-0.2,0.6s-0.2-0.1-0.2-0.3c0-0.4-0.2-0.9-0.5-1.2c-0.5-0.6-1.3-1-2.1-0.9c-1.1-0.1-2.1,0.6-2.2,1.7c0,0.1,0,0.1,0,0.2
		c0,0.9,0.4,1.5,2,2.7l0.5,0.4c2.3,1.8,3.1,3,3.1,4.8c0,1.3-0.7,2.6-1.8,3.3c-0.9,0.5-2,0.8-3,0.8
		C143.6,154.1,142.7,154,141.8,153.6z"/>
	<path class="st1" d="M156.1,140.6l-2.8,0.1c-1.1,0-1.6,0.1-1.8,0.6c-0.1,0.2-0.3,0.4-0.3,0.7c0,0.1-0.1,0.2-0.2,0.2
		s-0.2-0.1-0.2-0.3s0.4-2,0.4-2.2c0-0.2,0.1-0.4,0.2-0.4c0.3,0.1,0.5,0.2,0.8,0.2c0.6,0,1.2,0.1,1.9,0.1h7.5c0.4,0,0.9,0,1.3-0.1
		c0.2,0,0.3-0.1,0.5-0.1c0.1,0,0.2,0.1,0.2,0.4s0,1.7,0,2.2c0,0.2,0,0.3-0.2,0.3c-0.2,0-0.2-0.1-0.2-0.4v-0.2c0-0.5-0.6-1-2.2-1.1
		h-2.4v7.8c0,1.7,0,3.2,0.1,4.1c0,0.5,0.2,0.9,0.7,1c0.3,0,0.6,0.1,1,0.1c0.2,0,0.3,0,0.3,0.1s-0.1,0.2-0.4,0.2c-1.2,0-2.4,0-3,0
		s-1.6,0-2.4,0c-0.2,0-0.4,0-0.4-0.2c0-0.2,0.1-0.1,0.3-0.1c0.2,0,0.5,0,0.7-0.1c0.4-0.1,0.5-0.5,0.6-1.1c0.1-0.8,0.1-2.3,0.1-4
		L156.1,140.6z"/>
	<path class="st1" d="M167.2,145c0-2.9,0-3.4,0-4s-0.2-1-0.6-1.1c-0.2-0.1-0.5-0.1-0.7-0.1c-0.2,0-0.3,0-0.3-0.2
		c0-0.2,0.1-0.1,0.5-0.1c0.7,0,1.9,0,2.4,0s1.6,0,2.3,0c0.3,0,0.4,0,0.4,0.1s-0.1,0.2-0.3,0.2c-0.2,0-0.4,0-0.6,0
		c-0.5,0.1-0.7,0.4-0.7,1.1c0,0.7,0,1.1,0,4v3.3c0,1.8,0,3.3,0.1,4.2c0,0.5,0.2,0.8,0.8,0.9c0.3,0,0.6,0.1,1,0.1
		c0.2,0,0.3,0,0.3,0.1s-0.1,0.2-0.4,0.2c-1.2,0-2.4,0-3,0c-0.5,0-1.6,0-2.4,0c-0.3,0-0.4,0-0.4-0.2c0-0.2,0.1-0.1,0.3-0.1
		c0.2,0,0.5,0,0.7-0.1c0.4-0.1,0.5-0.4,0.6-1c0.1-0.8,0.1-2.3,0.1-4.1L167.2,145z"/>
	<path class="st1" d="M178.3,140.6l-2.8,0.1c-1.1,0-1.6,0.1-1.8,0.6c-0.1,0.2-0.3,0.4-0.3,0.7c0,0.1-0.1,0.2-0.2,0.2
		s-0.2-0.1-0.2-0.3s0.4-2,0.4-2.2c0-0.2,0.1-0.4,0.2-0.4c0.3,0.1,0.5,0.2,0.8,0.2c0.6,0,1.2,0.1,1.9,0.1h7.5c0.4,0,0.9,0,1.3-0.1
		c0.2,0,0.3-0.1,0.5-0.1c0.1,0,0.1,0.1,0.1,0.4c0,0.3,0,1.7,0,2.2c0,0.2,0,0.3-0.2,0.3c-0.2,0-0.2-0.1-0.2-0.4v-0.2
		c0-0.5-0.6-1-2.2-1.1h-2.4v7.8c0,1.7,0,3.2,0.1,4.1c0,0.5,0.2,0.9,0.7,1c0.3,0,0.6,0.1,1,0.1c0.2,0,0.3,0,0.3,0.1s-0.2,0.2-0.4,0.2
		c-1.2,0-2.4,0-3,0s-1.6,0-2.4,0c-0.3,0-0.4,0-0.4-0.2c0-0.2,0.1-0.1,0.3-0.1c0.2,0,0.5,0,0.7-0.1c0.4-0.1,0.5-0.5,0.6-1.1
		c0.1-0.8,0.1-2.3,0.1-4L178.3,140.6z"/>
	<path class="st1" d="M188.8,145c0-2.9,0-3.4,0-4s-0.2-1-0.8-1.1c-0.2,0-0.5,0-0.7,0c-0.2,0-0.3,0-0.3-0.2c0-0.2,0.1-0.2,0.4-0.2
		c1,0,2.2,0,2.8,0c0.6,0,1.7,0,2.3,0c0.3,0,0.4,0,0.4,0.2c0,0.2-0.1,0.2-0.3,0.2c-0.2,0-0.4,0-0.6,0c-0.5,0.1-0.7,0.4-0.7,1.1
		c0,0.7,0,1.1,0,4v2.7c0,2.8,0.6,3.9,1.5,4.7c0.7,0.5,1.5,0.8,2.4,0.8c1,0,1.9-0.4,2.6-1c1.1-1,1.1-2.7,1.1-4.7V145c0-2.9,0-3.4,0-4
		s-0.2-1-0.8-1.1c-0.2,0-0.5,0-0.7,0c-0.2,0-0.3,0-0.3-0.2c0-0.2,0.1-0.2,0.4-0.2c1,0,2.2,0,2.2,0c0.2,0,1.4,0,2.2,0
		c0.3,0,0.4,0,0.4,0.2c0,0.2-0.1,0.2-0.3,0.2c-0.2,0-0.4,0-0.6,0c-0.5,0.1-0.7,0.4-0.7,1.1c0,0.7,0,1.1,0,4v2c0,2.1-0.2,4.3-1.8,5.7
		c-1.1,1-2.6,1.5-4.1,1.4c-1.5,0.1-3-0.4-4.2-1.3c-1-0.9-1.7-2.3-1.7-5L188.8,145z"/>
	<path class="st1" d="M208.4,140.6l-2.8,0.1c-1.1,0-1.6,0.1-1.8,0.6c-0.1,0.2-0.3,0.4-0.3,0.7c0,0.1-0.1,0.2-0.2,0.2
		c-0.1,0-0.2-0.1-0.2-0.3s0.4-2,0.4-2.2c0-0.2,0.1-0.4,0.2-0.4c0.3,0.1,0.5,0.2,0.8,0.2c0.6,0,1.2,0.1,1.9,0.1h7.5
		c0.4,0,0.9,0,1.3-0.1c0.2,0,0.3-0.1,0.5-0.1c0.1,0,0.1,0.1,0.1,0.4c0,0.3,0,1.7,0,2.2c0,0.2,0,0.3-0.2,0.3s-0.2-0.1-0.2-0.4v-0.2
		c0-0.5-0.6-1-2.2-1.1h-2.4v7.8c0,1.7,0,3.2,0.1,4.1c0,0.5,0.2,0.9,0.7,1c0.3,0,0.6,0.1,1,0.1c0.2,0,0.3,0,0.3,0.1s-0.1,0.2-0.4,0.2
		c-1.2,0-2.4,0-3,0s-1.6,0-2.4,0c-0.2,0-0.4,0-0.4-0.2c0-0.2,0.1-0.1,0.3-0.1c0.2,0,0.5,0,0.7-0.1c0.4-0.1,0.5-0.5,0.6-1.1
		c0.1-0.8,0.1-2.3,0.1-4L208.4,140.6z"/>
	<path class="st1" d="M219.3,145c0-2.9,0-3.4,0-4s-0.2-1-0.8-1.1c-0.2,0-0.5,0-0.7,0c-0.2,0-0.3,0-0.3-0.2c0-0.2,0.1-0.2,0.4-0.2
		h1.5h1.2h4.6c0.3,0,0.6-0.1,0.8-0.1c0.1,0,0.2-0.1,0.3-0.1c0.1,0,0.1,0.1,0.1,0.2c0,0.1-0.1,0.4-0.2,1.2c0,0.2,0,1-0.1,1.2
		c-0.1,0.2,0,0.2-0.2,0.2c-0.2,0-0.2-0.1-0.2-0.3c0-0.2,0-0.5-0.1-0.7c-0.1-0.3-0.3-0.6-1.2-0.7c-0.3,0-2.3-0.1-2.7-0.1
		c-0.1,0-0.1,0-0.1,0.2v4.8c0,0.1,0,0.2,0.1,0.2c0.4,0,2.6,0,3,0c0.4,0,0.7-0.1,0.9-0.3c0.2-0.2,0.2-0.2,0.3-0.2
		c0.1,0,0.1,0,0.1,0.1c-0.1,0.5-0.1,0.9-0.1,1.4c0,0.4-0.1,1.1-0.1,1.2c0,0.1,0,0.4-0.2,0.4c-0.1,0-0.2-0.1-0.2-0.1c0,0,0,0,0,0
		c0-0.2,0-0.5-0.1-0.7c-0.1-0.4-0.4-0.7-1.1-0.7c-0.4,0-2.2-0.1-2.7-0.1c-0.1,0-0.1,0.1-0.1,0.2v1.5c0,0.6,0,2.4,0,2.9
		c0,1.3,0.3,1.6,2.3,1.6c0.6,0,1.2,0,1.8-0.2c0.5-0.2,0.7-0.6,0.8-1.4c0-0.2,0.1-0.3,0.2-0.3s0.1,0.1,0.1,0.3c0,0.7-0.1,1.4-0.2,2.1
		c-0.1,0.5-0.3,0.5-1,0.5c-1.4,0-2.4,0-3.3,0c-0.8,0-1.4,0-2,0h-1.1h-1.3c-0.2,0-0.4,0-0.4-0.2c0-0.2,0.1-0.1,0.3-0.1
		c0.2,0,0.5,0,0.7-0.1c0.4-0.1,0.5-0.5,0.6-1.1c0.1-0.8,0.1-2.3,0.1-4L219.3,145z"/>
	<path class="st2" d="M159.9,34.5c-2.3,2.1-13,12.9-15.5,15.5l20.5,22l8.3,9c2.9,2.8,6.3,5.7,9.8,7.1c1.5,0.7,3.1,1.2,4.8,1.4
		c0.5,0,0.9,0.1,0.9,0.6c0,0.4-0.4,0.7-1.7,0.7h-6.2c-2.1,0-3.5,0-4.9-0.1c-3.9-0.4-5.8-1.9-8.9-4.6L138.9,55l-0.8-1.1h-0.4v6.5
		c0,6.6,0,12.2,0.2,15.3c0.1,2,0.8,3.6,2.6,3.9c1.2,0.2,2.3,0.3,3.5,0.3c0.6,0,0.9,0.2,0.9,0.6c0,0.4-0.6,0.7-1.4,0.7
		c-4,0-8.6-0.2-10.3-0.2c-1.7,0-6.1,0.2-9,0.2c-0.9,0-1.4-0.2-1.4-0.7s0.3-0.6,1.2-0.6c0.9,0,1.7-0.1,2.6-0.3
		c1.4-0.3,1.8-1.9,2.1-3.9c0.4-3,0.4-8.7,0.4-15.2V47.9c0-10.9,0-12.9-0.1-15.2s-0.7-3.6-3.1-4.1c-0.9-0.2-1.9-0.2-2.8-0.2
		c-0.8,0-1.2-0.1-1.2-0.6s0.5-0.7,1.6-0.7c3.8,0,8.3,0.2,10,0.2s6.2-0.2,8.7-0.2c1,0,1.5,0.1,1.5,0.6c0,0.5-0.4,0.6-1,0.6
		c-0.7,0-1.3,0.1-2,0.2c-1.9,0.4-2.4,1.6-2.6,4.1c-0.1,2.3-0.1,4.3-0.1,15.2V51h0.4c2.4-2.7,12.9-13.4,14.9-15.8
		c2.1-2.4,3.6-4.1,3.6-5.4c0-0.8-0.3-1.2-1-1.4c-0.7-0.2-0.9-0.3-0.9-0.7c0-0.4,0.4-0.6,1.2-0.6c1.5,0,5.4,0.2,7.3,0.2H177
		c1.7,0,6.2-0.2,8.8-0.2c1.1,0,1.6,0.1,1.6,0.6c0,0.5-0.4,0.6-1.2,0.6c-0.7,0-1.4,0.1-2.1,0.2c-1.9,0.4-2.4,1.6-2.6,4.1
		c-0.1,2.3-0.1,4.3-0.1,15.1v10c0,10.3,2.1,14.7,5.6,17.6c2.5,2,5.7,3.1,8.9,2.9c3.6,0,7.1-1.3,9.8-3.9c3.9-3.9,4.1-10.4,4.1-17.7
		v-8.9c0-10.8,0-12.8-0.1-15.1c-0.1-2.3-0.7-3.6-3.1-4.1c-0.8-0.1-1.7-0.2-2.6-0.2c-0.8,0-1.2-0.1-1.2-0.6s0.6-0.6,1.5-0.6
		c3.7,0,8.1,0.2,8.2,0.2c0.9,0,5.3-0.2,8.1-0.2c1,0,1.5,0.1,1.5,0.6c0,0.5-0.4,0.6-1.2,0.6c-0.7,0-1.4,0.1-2.1,0.2
		c-1.9,0.4-2.4,1.6-2.6,4.1C216,34.9,216,37,216,47.8v7.6c0,7.9-0.8,16.3-6.8,21.5c-4.1,3.5-9.4,5.4-14.8,5.1
		c-3.8,0-10.6-0.2-15.9-4.9c-3.7-3.3-6.3-8.6-6.3-18.9V47.8c0-10.8,0-12.8-0.1-15.1s-0.8-4.1-3.1-4.1S163.6,31.2,159.9,34.5z"/>
	<path class="st2" d="M252.3,163.5H92.6c-0.4-0.1-0.7-0.4-0.7-0.9c0-0.3,0.3-0.6,0.7-0.7h159.7c0.4,0.1,0.7,0.4,0.7,0.9
		C253,163.2,252.7,163.4,252.3,163.5z"/>
	<path class="st2" d="M96.9,174.5h-2.6v-2h7.3v2H99v8.3h-2.1V174.5z"/>
	<path class="st2" d="M102.8,172.2h2.1v3.8c0.4-0.7,1.2-1.2,2-1.2c1.5,0,2.3,1,2.3,2.7v5.4h-2.1V178c0-0.9-0.4-1.4-1.1-1.4
		c-0.7,0-1.2,0.5-1.2,1.4v4.7h-2.1V172.2z"/>
	<path class="st2" d="M110.5,178.9v-0.1c0-2.3,1.5-4,3.4-4c2.2,0,3.3,1.8,3.3,4.2c0,0.1,0,0.4,0,0.7h-4.7c0.1,0.9,0.8,1.6,1.7,1.6
		c0.6,0,1.2-0.3,1.7-0.8l1.1,1.2c-0.7,0.8-1.7,1.2-2.8,1.2c-2,0-3.7-1.6-3.7-3.6C110.5,179.1,110.5,179,110.5,178.9z M115.3,178.3
		c-0.1-1.1-0.6-1.8-1.3-1.8c-0.8,0-1.2,0.6-1.4,1.8H115.3z"/>
	<path class="st2" d="M122,178.8v-6.3h2.1v6.3c0,1.5,0.7,2.2,1.8,2.2c1.1,0,1.8-0.7,1.8-2.1v-6.3h2.1v6.2c0,2.8-1.6,4.2-3.9,4.2
		C123.5,183,122,181.6,122,178.8z"/>
	<path class="st2" d="M131.6,174.9h2.1v1.1c0.4-0.7,1.2-1.2,2-1.2c1.5,0,2.3,1,2.3,2.7v5.4h-2.1V178c0-0.9-0.4-1.4-1.1-1.4
		s-1.2,0.5-1.2,1.4v4.7h-2.1L131.6,174.9z"/>
	<path class="st2" d="M139.6,172.2h2.2v1.9h-2.2V172.2z M139.6,174.9h2.1v7.9h-2.1V174.9z"/>
	<path class="st2" d="M143,174.9h2.2l1.5,5.2l1.5-5.2h2.1l-2.6,7.9h-1.9L143,174.9z"/>
	<path class="st2" d="M150.6,178.9v-0.1c0-2.3,1.4-4,3.4-4c2.3,0,3.4,1.8,3.4,4.2c0,0.1,0,0.4,0,0.7h-4.8c0,0.9,0.8,1.6,1.7,1.6
		c0.6,0,1.2-0.3,1.6-0.8l1.1,1.2c-0.7,0.8-1.7,1.2-2.8,1.2c-2,0-3.6-1.7-3.6-3.7C150.6,179.1,150.6,179,150.6,178.9z M155.4,178.3
		c-0.1-1.1-0.6-1.8-1.3-1.8c-0.8,0-1.2,0.6-1.4,1.8H155.4z"/>
	<path class="st2" d="M158.7,174.9h2.1v1.5c0.3-0.9,1.1-1.6,2.1-1.5v2.3h-0.1c-1.3,0-2,0.8-2,2.4v3.3h-2.1L158.7,174.9z"/>
	<path class="st2" d="M163.5,181.8l0.9-1.5c0.6,0.5,1.3,0.8,2.1,0.9c0.6,0,0.8-0.3,0.8-0.6l0,0c0-0.5-0.6-0.6-1.4-1
		c-1.1-0.5-2.1-1-2.1-2.4l0,0c0-1.4,1.1-2.5,2.4-2.5c0.1,0,0.2,0,0.3,0c0.9,0,1.8,0.3,2.6,0.8l-0.8,1.5c-0.5-0.4-1.1-0.6-1.8-0.7
		c-0.5,0-0.8,0.2-0.8,0.6l0,0c0,0.4,0.6,0.6,1.4,1c1.1,0.6,2.1,1.1,2.1,2.4l0,0c0,1.4-1.1,2.5-2.4,2.5c-0.1,0-0.2,0-0.4,0
		C165.4,182.9,164.3,182.5,163.5,181.8z"/>
	<path class="st2" d="M170.6,172.2h2.2v1.9h-2.2V172.2z M170.6,174.9h2.1v7.9h-2.1V174.9z"/>
	<path class="st2" d="M174.8,180.8v-4.1H174v-1.8h0.8v-2h2.1v2h1.6v1.8h-1.6v3.7c0,0.5,0.2,0.7,0.6,0.7c0.3,0,0.6-0.1,0.9-0.2v1.7
		c-0.5,0.3-1,0.4-1.5,0.4c-1,0.2-1.9-0.5-2.1-1.5C174.7,181.2,174.7,181,174.8,180.8z"/>
	<path class="st2" d="M184.2,174.9h2.1l-2.6,8c-0.5,1.6-1.1,2.2-2.4,2.2c-0.6,0-1.2-0.2-1.7-0.5l0.6-1.6c0.3,0.2,0.5,0.2,0.8,0.3
		c0.3,0,0.6-0.2,0.7-0.5l-2.7-7.9h2.2l1.5,5.2L184.2,174.9z"/>
	<path class="st2" d="M190.5,179v-0.1c0-2,1.6-3.7,3.7-3.7s3.7,1.6,3.7,3.7v0.2c0,2-1.6,3.7-3.7,3.7S190.5,181,190.5,179L190.5,179z
		 M195.8,179v-0.1c0-1.2-0.6-2.2-1.6-2.2s-1.6,1-1.6,2.2v0.1c0,1.2,0.7,2.2,1.7,2.2S195.8,180.2,195.8,179L195.8,179z"/>
	<path class="st2" d="M199.6,176.7h-0.8V175h0.8v-0.5c0-0.6,0.2-1.3,0.6-1.8c0.5-0.4,1.1-0.6,1.7-0.6c0.4,0,0.9,0.1,1.3,0.2v1.7
		c-0.2-0.1-0.5-0.1-0.8-0.1c-0.5,0-0.8,0.2-0.8,0.8v0.3h1.5v1.7h-1.5v6.1h-2.1V176.7z"/>
	<path class="st2" d="M207.6,172.5h2.1v4.4l3.4-4.4h2.4l-3.4,4.4l3.6,5.9h-2.4l-2.6-4.2l-1,1.2v3h-2.1V172.5z"/>
	<path class="st2" d="M216.2,180.5L216.2,180.5c0-1.8,1.1-2.6,2.8-2.6c0.6,0,1.1,0.1,1.6,0.3V178c0.1-0.7-0.5-1.3-1.2-1.4
		c-0.1,0-0.2,0-0.3,0c-0.6,0-1.2,0.2-1.8,0.4l-0.6-1.6c0.8-0.4,1.8-0.6,2.7-0.6c0.9-0.1,1.8,0.2,2.4,0.8c0.6,0.7,0.9,1.5,0.8,2.4
		v4.8h-2v-0.8c-0.5,0.6-1.2,1-2,1c-1.2,0.1-2.3-0.8-2.4-2.1C216.2,180.8,216.2,180.6,216.2,180.5z M220.6,180.2v-0.7
		c-0.4-0.2-0.8-0.2-1.2-0.2c-0.8,0-1.2,0.4-1.2,1.1l0,0c0,0.5,0.3,0.9,0.8,1c0.1,0,0.1,0,0.2,0c0.7,0.1,1.3-0.4,1.4-1.1
		C220.6,180.3,220.6,180.2,220.6,180.2z"/>
	<path class="st2" d="M224.2,174.9h2.1v1.1c0.4-0.7,1.2-1.2,2-1.2c1.5,0,2.3,1,2.3,2.7v5.4h-2.1V178c0-0.9-0.4-1.4-1.1-1.4
		c-0.7,0-1.1,0.5-1.1,1.4v4.7h-2.1V174.9z"/>
	<path class="st2" d="M231.6,181.8l0.9-1.5c0.6,0.5,1.3,0.8,2.1,0.9c0.6,0,0.8-0.3,0.8-0.6l0,0c0-0.5-0.6-0.6-1.4-1
		c-1.1-0.5-2.1-1-2.1-2.4l0,0c0-1.4,1.1-2.5,2.4-2.5c0.1,0,0.2,0,0.3,0c0.9,0,1.8,0.3,2.6,0.8l-0.8,1.5c-0.5-0.4-1.1-0.6-1.8-0.7
		c-0.5,0-0.8,0.2-0.8,0.6l0,0c0,0.4,0.6,0.6,1.4,1c1.1,0.6,2.1,1.1,2.1,2.4l0,0c0,1.4-1.1,2.5-2.4,2.5c-0.1,0-0.2,0-0.4,0
		C233.5,182.9,232.5,182.5,231.6,181.8z"/>
	<path class="st2" d="M238.3,180.5L238.3,180.5c0-1.8,1.1-2.6,2.7-2.6c0.6,0,1.1,0.1,1.7,0.3V178c0.1-0.7-0.5-1.3-1.2-1.4
		c-0.1,0-0.2,0-0.3,0c-0.6,0-1.2,0.2-1.8,0.4l-0.6-1.6c0.8-0.4,1.8-0.6,2.7-0.6c0.9-0.1,1.7,0.2,2.4,0.8c0.6,0.7,0.9,1.5,0.8,2.4
		v4.8h-2v-0.8c-0.5,0.6-1.2,1-2,1c-1.2,0.1-2.3-0.9-2.3-2.1C238.2,180.7,238.2,180.6,238.3,180.5z M242.7,180.2v-0.7
		c-0.4-0.2-0.8-0.2-1.2-0.2c-0.8,0-1.2,0.4-1.2,1.1l0,0c0,0.5,0.3,0.9,0.8,1c0.1,0,0.1,0,0.2,0c0.7,0.1,1.3-0.4,1.4-1.1
		C242.7,180.3,242.7,180.2,242.7,180.2z"/>
	<path class="st2" d="M245.7,181.8l0.9-1.5c0.6,0.5,1.3,0.8,2.1,0.9c0.6,0,0.8-0.3,0.8-0.6l0,0c0-0.5-0.6-0.6-1.4-1
		c-1.1-0.5-2.1-1-2.1-2.4l0,0c0-1.4,1.1-2.5,2.4-2.5c0.1,0,0.2,0,0.3,0c0.9,0,1.8,0.3,2.6,0.8l-0.8,1.5c-0.5-0.4-1.1-0.6-1.8-0.7
		c-0.5,0-0.8,0.2-0.8,0.6l0,0c0,0.4,0.6,0.6,1.4,1c1.1,0.6,2.1,1.1,2.1,2.4l0,0c0,1.4-1.1,2.5-2.4,2.5c-0.1,0-0.2,0-0.3,0
		C247.6,182.9,246.5,182.5,245.7,181.8z"/>
</g>
</svg>
