<?xml version="1.0" encoding="UTF-8"?>
<svg id="Layer_1" xmlns="http://www.w3.org/2000/svg" version="1.1" viewBox="0 0 691.6 83.7">
  <!-- Generator: Adobe Illustrator 29.5.1, SVG Export Plug-In . SVG Version: 2.1.0 Build 141)  -->
  <defs>
    <style>
      .st0, .st1 {
        fill: none;
      }

      .st2 {
        fill: #88898a;
      }

      .st1 {
        stroke: #000;
        stroke-miterlimit: 10;
      }

      .st3 {
        fill: #0051ba;
      }
    </style>
  </defs>
  <line class="st1" x1="316.4" y1=".1" x2="316.4" y2="81.5"/>
  <g>
    <rect class="st0" x="350.5" y="18" width="341.1" height="47.6"/>
    <path d="M357.9,18.6h2.5l6.8,15.5h-2.9l-1.6-3.7h-7.2l-1.6,3.7h-2.8l6.8-15.5ZM361.8,28l-2.7-6.2-2.6,6.2h5.3Z"/>
    <path d="M368.3,28.3h0c0-3.3,2.6-6.1,6.1-6.1s3.5.8,4.6,2l-1.7,1.8c-.8-.8-1.7-1.5-3-1.5-1.9,0-3.4,1.7-3.4,3.7h0c0,2.1,1.4,3.7,3.5,3.7s2.2-.6,3-1.4l1.6,1.6c-1.1,1.3-2.5,2.2-4.8,2.2-3.3,0-5.9-2.7-5.9-6Z"/>
    <path d="M380.6,28.3h0c0-3.3,2.6-6.1,6.1-6.1s3.5.8,4.6,2l-1.7,1.8c-.8-.8-1.7-1.5-3-1.5-1.9,0-3.4,1.7-3.4,3.7h0c0,2.1,1.4,3.7,3.5,3.7s2.2-.6,3-1.4l1.6,1.6c-1.1,1.3-2.5,2.2-4.8,2.2-3.4,0-5.9-2.7-5.9-6Z"/>
    <path d="M392.8,28.3h0c0-3.4,2.4-6.1,5.7-6.1s5.6,2.9,5.6,6.2v.7h-8.6c.3,1.9,1.6,2.9,3.3,2.9s2.2-.5,3.1-1.4l1.6,1.4c-1.1,1.3-2.6,2.2-4.8,2.2-3.3,0-5.9-2.3-5.9-5.9ZM401.4,27.5c-.2-1.7-1.2-3.1-2.9-3.1s-2.8,1.3-3,3.1h5.9Z"/>
    <path d="M405.8,32.6l1.2-1.8c1.3.9,2.6,1.4,3.8,1.4s1.8-.5,1.8-1.3h0c0-.9-1.2-1.2-2.6-1.6-1.7-.5-3.6-1.2-3.6-3.4h0c0-2.2,1.8-3.6,4.1-3.6s3,.5,4.3,1.3l-1.1,1.9c-1.1-.7-2.3-1.1-3.3-1.1s-1.6.5-1.6,1.1h0c0,.9,1.3,1.2,2.6,1.6,1.7.5,3.6,1.3,3.6,3.4h0c0,2.4-1.9,3.7-4.3,3.7-1.7,0-3.5-.5-4.9-1.6Z"/>
    <path d="M416.6,32.6l1.2-1.8c1.3.9,2.6,1.4,3.8,1.4s1.8-.5,1.8-1.3h0c0-.9-1.2-1.2-2.6-1.6-1.7-.5-3.6-1.2-3.6-3.4h0c0-2.2,1.8-3.6,4.1-3.6s3,.5,4.3,1.3l-1.1,1.9c-1.1-.7-2.3-1.1-3.3-1.1s-1.6.5-1.6,1.1h0c0,.9,1.3,1.2,2.6,1.6,1.7.5,3.6,1.3,3.6,3.4h0c0,2.4-1.9,3.7-4.3,3.7-1.6,0-3.5-.5-4.9-1.6Z"/>
    <path d="M428.6,18.1h2.9v2.5h-2.9v-2.5ZM428.7,22.5h2.7v11.6h-2.7v-11.6Z"/>
    <path d="M437.5,32.3v1.8h-2.7v-16.1h2.7v6.4c.9-1.2,2.1-2.2,4-2.2,2.7,0,5.4,2.2,5.4,6h0c0,3.9-2.6,6-5.4,6-2,0-3.2-.8-4-1.9ZM444.1,28.3h0c0-2.3-1.5-3.8-3.3-3.8s-3.4,1.5-3.4,3.7h0c0,2.2,1.6,3.7,3.4,3.7,1.8,0,3.3-1.3,3.3-3.6Z"/>
    <path d="M449.7,18h2.7v16.1h-2.7v-16.1Z"/>
    <path d="M455.2,28.3h0c0-3.4,2.4-6.1,5.7-6.1s5.6,2.9,5.6,6.2v.7h-8.5c.3,1.9,1.6,2.9,3.3,2.9s2.2-.5,3.1-1.4l1.6,1.4c-1.1,1.3-2.6,2.2-4.8,2.2-3.4,0-6-2.3-6-5.9ZM463.9,27.5c-.2-1.7-1.2-3.1-2.9-3.1s-2.8,1.3-3,3.1h5.9Z"/>
    <path d="M479.8,21.2h-4.9v-2.5h12.6v2.5h-5v12.9h-2.7v-12.9Z"/>
    <path d="M486.9,28.3h0c0-3.4,2.4-6.1,5.7-6.1s5.6,2.9,5.6,6.2v.7h-8.7c.3,1.9,1.6,2.9,3.3,2.9s2.2-.5,3.1-1.4l1.6,1.4c-1.1,1.3-2.6,2.2-4.8,2.2-3.2,0-5.8-2.3-5.8-5.9ZM495.5,27.5c-.2-1.7-1.2-3.1-2.9-3.1s-2.8,1.3-3,3.1h5.9Z"/>
    <path d="M500,30.7h0c0-2.6,2-3.8,4.8-3.8s2.2.2,3.1.5v-.3c0-1.6-1-2.5-2.9-2.5s-2.3.3-3.3.7l-.7-2.1c1.3-.6,2.6-.9,4.4-.9s3,.5,3.9,1.3,1.3,2.1,1.3,3.6v6.9h-2.6v-1.5c-.8.9-2,1.7-3.8,1.7-2.2,0-4.2-1.2-4.2-3.6ZM508,29.9v-.8c-.7-.3-1.6-.5-2.6-.5-1.7,0-2.7.7-2.7,1.9h0c0,1.1,1,1.8,2.3,1.8,1.6,0,3-.9,3-2.4Z"/>
    <path d="M513.1,28.3h0c0-3.3,2.6-6.1,6.1-6.1s3.5.8,4.6,2l-1.7,1.8c-.8-.8-1.7-1.5-3-1.5-1.9,0-3.4,1.7-3.4,3.7h0c0,2.1,1.4,3.7,3.5,3.7s2.2-.6,3-1.4l1.6,1.6c-1.1,1.3-2.5,2.2-4.8,2.2-3.4,0-5.9-2.7-5.9-6Z"/>
    <path d="M526.2,18h2.7v6.2c.7-1.1,1.8-2,3.6-2,2.6,0,4.1,1.8,4.1,4.4v7.4h-2.7v-6.6c0-1.8-.9-2.8-2.5-2.8s-2.6,1.1-2.6,2.9v6.6h-2.7v-16.1h.1Z"/>
    <path d="M539.9,18.1h2.9v2.5h-2.9v-2.5ZM540,22.5h2.7v11.6h-2.7v-11.6Z"/>
    <path d="M546.2,22.5h2.7v1.8c.7-1.1,1.8-2,3.6-2,2.6,0,4.1,1.8,4.1,4.4v7.4h-2.7v-6.6c0-1.8-.9-2.8-2.5-2.8s-2.6,1.1-2.6,2.9v6.6h-2.7v-11.7h.1Z"/>
    <path d="M559.8,36.3l1-2c1.3.8,2.6,1.2,4.1,1.2,2.4,0,3.7-1.2,3.7-3.5v-.9c-1,1.2-2.2,2.1-4.1,2.1-2.8,0-5.3-2-5.3-5.4h0c0-3.4,2.6-5.5,5.3-5.5s3.2.9,4.1,2v-1.7h2.7v9.2c0,2-.5,3.4-1.5,4.4-1.1,1.1-2.7,1.6-4.8,1.6-1.9-.2-3.7-.6-5.2-1.5ZM568.6,27.7h0c0-1.9-1.6-3.2-3.4-3.2s-3.3,1.3-3.3,3.2h0c0,1.9,1.5,3.2,3.3,3.2,1.9,0,3.4-1.3,3.4-3.2Z"/>
    <path d="M573.7,36.1c1.3-.3,2-.9,1.9-2.1h-1.1v-3h2.9v2.6c0,2.4-1.2,3.5-3.4,3.7l-.3-1.2Z"/>
    <path d="M587.4,18.7h2.7v12.9h8.1v2.5h-10.8v-15.4Z"/>
    <path d="M599.9,28.3h0c0-3.4,2.4-6.1,5.7-6.1s5.6,2.9,5.6,6.2v.7h-8.7c.3,1.9,1.6,2.9,3.3,2.9s2.2-.5,3.1-1.4l1.6,1.4c-1.1,1.3-2.6,2.2-4.8,2.2-3.2,0-5.8-2.3-5.8-5.9ZM608.5,27.5c-.2-1.7-1.2-3.1-2.9-3.1s-2.8,1.3-3,3.1h5.9Z"/>
    <path d="M613,30.7h0c0-2.6,2-3.8,4.8-3.8s2.2.2,3.1.5v-.3c0-1.6-1-2.5-2.9-2.5s-2.3.3-3.3.7l-.7-2.1c1.3-.6,2.6-.9,4.4-.9s3,.5,3.9,1.3,1.3,2.1,1.3,3.6v6.9h-2.6v-1.5c-.8.9-2,1.7-3.8,1.7-2.2,0-4.2-1.2-4.2-3.6ZM621,29.9v-.8c-.7-.3-1.6-.5-2.6-.5-1.7,0-2.7.7-2.7,1.9h0c0,1.1,1,1.8,2.3,1.8,1.7,0,3-.9,3-2.4Z"/>
    <path d="M626.7,22.5h2.7v2.6c.7-1.7,2.1-2.9,4.1-2.8v2.8h-.2c-2.3,0-4,1.5-4,4.6v4.4h-2.7v-11.6h.1Z"/>
    <path d="M635.8,22.5h2.7v1.8c.7-1.1,1.8-2,3.6-2,2.6,0,4.1,1.8,4.1,4.4v7.4h-2.7v-6.6c0-1.8-.9-2.8-2.5-2.8s-2.6,1.1-2.6,2.9v6.6h-2.7v-11.7h.1Z"/>
    <path d="M649.5,18.1h2.9v2.5h-2.9v-2.5ZM649.6,22.5h2.7v11.6h-2.7v-11.6Z"/>
    <path d="M655.7,22.5h2.7v1.8c.7-1.1,1.8-2,3.6-2,2.6,0,4.1,1.8,4.1,4.4v7.4h-2.6v-6.6c0-1.8-.9-2.8-2.5-2.8s-2.6,1.1-2.6,2.9v6.6h-2.7v-11.7Z"/>
    <path d="M669.3,36.3l1-2c1.3.8,2.6,1.2,4.1,1.2,2.4,0,3.7-1.2,3.7-3.5v-.9c-1,1.2-2.2,2.1-4.1,2.1-2.8,0-5.3-2-5.3-5.4h0c0-3.4,2.6-5.5,5.3-5.5s3.2.9,4.1,2v-1.7h2.7v9.2c0,2-.5,3.4-1.5,4.4-1.1,1.1-2.7,1.6-4.8,1.6-1.9-.2-3.7-.6-5.2-1.5ZM678.2,27.7h0c0-1.9-1.6-3.2-3.4-3.2s-3.3,1.3-3.3,3.2h0c0,1.9,1.5,3.2,3.3,3.2,1.8,0,3.4-1.3,3.4-3.2Z"/>
    <path d="M683.2,36.1c1.3-.3,2-.9,1.9-2.1h-1.1v-3h2.9v2.6c0,2.4-1.2,3.5-3.4,3.7l-.3-1.2Z"/>
    <path d="M361.1,58.7c-1.3,1.2-2.9,2-4.7,2-2.9,0-5.1-1.7-5.1-4.4h0c0-2,1.2-3.4,3.3-4.3-.9-1.1-1.3-2.1-1.3-3.2h0c0-2.1,1.7-3.9,4.4-3.9s4.1,1.7,4.1,3.7h0c0,2-1.3,3.2-3.4,4l2.6,2.7c.6-.9,1.1-1.9,1.6-3l2,1.1c-.6,1.2-1.3,2.4-2.1,3.5l2.4,2.5-2,1.5-1.8-2.2ZM359.5,57.1l-3.4-3.5c-1.4.6-2,1.6-2,2.6h0c0,1.3,1.1,2.2,2.6,2.2,1,0,1.9-.5,2.8-1.3ZM359.4,48.7h0c0-1.1-.7-1.8-1.7-1.8s-1.8.8-1.8,1.8h0c0,.8.3,1.3,1.2,2.3,1.5-.4,2.3-1.2,2.3-2.3Z"/>
    <path d="M379.8,45h2.5l6.8,15.5h-2.9l-1.6-3.7h-7.3l-1.6,3.7h-2.8l6.9-15.5ZM383.7,54.4l-2.7-6.2-2.6,6.2h5.3Z"/>
    <path d="M390.5,59l1.2-1.8c1.3.9,2.6,1.4,3.8,1.4s1.8-.5,1.8-1.3h0c0-.9-1.2-1.2-2.6-1.6-1.7-.5-3.6-1.2-3.6-3.4h0c0-2.2,1.8-3.6,4.1-3.6s3,.5,4.3,1.3l-1.1,1.9c-1.1-.7-2.3-1.1-3.3-1.1s-1.6.5-1.6,1.1h0c0,.9,1.3,1.2,2.6,1.7,1.7.5,3.6,1.3,3.6,3.4h0c0,2.4-1.9,3.7-4.3,3.7-1.6,0-3.5-.6-4.9-1.7Z"/>
    <path d="M401.3,59l1.2-1.8c1.3.9,2.6,1.4,3.8,1.4s1.8-.5,1.8-1.3h0c0-.9-1.2-1.2-2.6-1.6-1.7-.5-3.6-1.2-3.6-3.4h0c0-2.2,1.8-3.6,4.1-3.6s3,.5,4.3,1.3l-1.1,1.9c-1.1-.7-2.3-1.1-3.3-1.1s-1.6.5-1.6,1.1h0c0,.9,1.3,1.2,2.6,1.7,1.7.5,3.6,1.3,3.6,3.4h0c0,2.4-1.9,3.7-4.3,3.7-1.6,0-3.5-.6-4.9-1.7Z"/>
    <path d="M412.6,54.7h0c0-3.4,2.4-6.1,5.7-6.1s5.6,2.9,5.6,6.2v.7h-8.5c.3,1.9,1.6,2.9,3.3,2.9s2.2-.5,3.1-1.4l1.6,1.4c-1.1,1.3-2.6,2.2-4.8,2.2-3.4.1-6-2.3-6-5.9ZM421.2,53.9c-.2-1.7-1.2-3.1-2.9-3.1s-2.8,1.3-3,3.1h5.9Z"/>
    <path d="M425.6,59l1.2-1.8c1.3.9,2.6,1.4,3.8,1.4s1.8-.5,1.8-1.3h0c0-.9-1.2-1.2-2.6-1.6-1.7-.5-3.6-1.2-3.6-3.4h0c0-2.2,1.8-3.6,4.1-3.6s3,.5,4.3,1.3l-1.1,1.9c-1.1-.7-2.3-1.1-3.3-1.1s-1.6.5-1.6,1.1h0c0,.9,1.3,1.2,2.6,1.7,1.7.5,3.6,1.3,3.6,3.4h0c0,2.4-1.9,3.7-4.3,3.7-1.6,0-3.5-.6-4.9-1.7Z"/>
    <path d="M436.4,59l1.2-1.8c1.3.9,2.6,1.4,3.8,1.4s1.8-.5,1.8-1.3h0c0-.9-1.2-1.2-2.6-1.6-1.7-.5-3.6-1.2-3.6-3.4h0c0-2.2,1.8-3.6,4.1-3.6s3,.5,4.3,1.3l-1.1,1.9c-1.1-.7-2.3-1.1-3.3-1.1s-1.6.5-1.6,1.1h0c0,.9,1.3,1.2,2.6,1.7,1.7.5,3.6,1.3,3.6,3.4h0c0,2.4-1.9,3.7-4.3,3.7-1.6,0-3.5-.6-4.9-1.7Z"/>
    <path d="M448.3,48.9h2.7v1.8c.7-1,1.8-2,3.5-2s2.9.8,3.5,2c.9-1.2,2.2-2,3.9-2,2.5,0,4.1,1.6,4.1,4.4v7.4h-2.7v-6.6c0-1.8-.9-2.8-2.4-2.8s-2.5,1-2.5,2.9v6.6h-2.7v-6.6c0-1.8-.9-2.8-2.4-2.8s-2.5,1.1-2.5,2.9v6.6h-2.7v-11.8h.2Z"/>
    <path d="M468.6,54.7h0c0-3.4,2.4-6.1,5.7-6.1s5.6,2.9,5.6,6.2v.7h-8.5c.3,1.9,1.6,2.9,3.3,2.9s2.2-.5,3.1-1.4l1.6,1.4c-1.1,1.3-2.6,2.2-4.8,2.2-3.4.1-6-2.3-6-5.9ZM477.2,53.9c-.2-1.7-1.2-3.1-2.9-3.1s-2.8,1.3-3,3.1h5.9Z"/>
    <path d="M482.5,48.9h2.7v1.8c.7-1.1,1.8-2,3.6-2,2.6,0,4.1,1.8,4.1,4.4v7.4h-2.7v-6.6c0-1.8-.9-2.8-2.5-2.8s-2.6,1.1-2.6,2.9v6.6h-2.6v-11.7Z"/>
    <path d="M496.7,57.3v-6.1h-1.5v-2.3h1.5v-3.2h2.7v3.2h3.1v2.3h-3.1v5.6c0,1,.5,1.5,1.4,1.5s1.1,0,1.7-.4v2.2c-.7.4-1.4.6-2.4.6-2,0-3.4-.9-3.4-3.4Z"/>
    <path d="M511.1,58.2l1.6-1.9c1.5,1.3,3,2,4.9,2s2.7-.8,2.7-1.9h0c0-1.1-.6-1.7-3.5-2.4-3.3-.8-5.1-1.8-5.1-4.6h0c0-2.6,2.2-4.5,5.3-4.5s4,.7,5.6,1.9l-1.5,2c-1.4-1-2.8-1.6-4.2-1.6s-2.5.8-2.5,1.8h0c0,1.2.7,1.7,3.7,2.4,3.3.8,4.9,2,4.9,4.5h0c0,2.9-2.3,4.6-5.5,4.6-2.3.2-4.6-.6-6.4-2.3Z"/>
    <path d="M533.6,48.9h2.8l-4.6,11.9c-.9,2.4-2,3.3-3.8,3.3s-1.9-.3-2.8-.7l.9-2c.5.3,1,.4,1.6.4s1.2-.3,1.7-1.3l-4.9-11.6h2.9l3.3,8.6,2.9-8.6Z"/>
    <path d="M537.3,59l1.2-1.8c1.3.9,2.6,1.4,3.8,1.4s1.8-.5,1.8-1.3h0c0-.9-1.2-1.2-2.6-1.6-1.7-.5-3.6-1.2-3.6-3.4h0c0-2.2,1.8-3.6,4.1-3.6s3,.5,4.3,1.3l-1.1,1.9c-1.1-.7-2.3-1.1-3.3-1.1s-1.6.5-1.6,1.1h0c0,.9,1.3,1.2,2.6,1.7,1.7.5,3.6,1.3,3.6,3.4h0c0,2.4-1.9,3.7-4.3,3.7-1.6,0-3.5-.6-4.9-1.7Z"/>
    <path d="M549.6,57.3v-6.1h-1.5v-2.3h1.5v-3.2h2.7v3.2h3.1v2.3h-3.1v5.6c0,1,.5,1.5,1.4,1.5s1.1,0,1.7-.4v2.2c-.7.4-1.4.6-2.4.6-2,0-3.4-.9-3.4-3.4Z"/>
    <path d="M557.1,54.7h0c0-3.4,2.4-6.1,5.7-6.1s5.6,2.9,5.6,6.2v.7h-8.5c.3,1.9,1.6,2.9,3.3,2.9s2.2-.5,3.1-1.4l1.6,1.4c-1.1,1.3-2.6,2.2-4.8,2.2-3.4.1-6-2.3-6-5.9ZM565.7,53.9c-.2-1.7-1.2-3.1-2.9-3.1s-2.8,1.3-3,3.1h5.9Z"/>
    <path d="M571,48.9h2.7v1.8c.7-1,1.8-2,3.5-2s2.9.8,3.5,2c.9-1.2,2.2-2,3.9-2,2.5,0,4.1,1.6,4.1,4.4v7.4h-2.7v-6.6c0-1.8-.9-2.8-2.4-2.8s-2.5,1-2.5,2.9v6.6h-2.6v-6.6c0-1.8-.9-2.8-2.4-2.8s-2.5,1.1-2.5,2.9v6.6h-2.7v-11.8h.1Z"/>
    <path d="M591,59l1.2-1.8c1.3.9,2.6,1.4,3.8,1.4s1.8-.5,1.8-1.3h0c0-.9-1.2-1.2-2.6-1.6-1.7-.5-3.6-1.2-3.6-3.4h0c0-2.2,1.8-3.6,4.1-3.6s3,.5,4.3,1.3l-1.1,1.9c-1.1-.7-2.3-1.1-3.3-1.1s-1.6.5-1.6,1.1h0c0,.9,1.3,1.2,2.6,1.7,1.7.5,3.6,1.3,3.6,3.4h0c0,2.4-1.9,3.7-4.3,3.7-1.7,0-3.5-.6-4.9-1.7Z"/>
  </g>
  <g>
    <path class="st3" d="M260.9,63.7H103.5c-.4,0-.7-.4-.7-.9s.3-.6.7-.7h157.4c.4,0,.7.4.7.9-.1.4-.4.7-.7.7Z"/>
    <path class="st3" d="M37.6,7.5c-2.3,2.1-12.9,12.8-15.4,15.3l20.4,21.9,8.3,9c2.9,2.8,6.2,5.6,9.7,7,1.5.7,3.1,1.2,4.8,1.4.5,0,.9,0,.9.6s-.4.7-1.7.7h-6.2c-2.1,0-3.4,0-4.9,0-3.8-.4-5.8-1.9-8.8-4.6l-27.9-30.9-.8-1h-.4v6.5c0,6.5,0,12.1.2,15.2,0,2,.8,3.6,2.6,3.8,1.2.2,2.3.3,3.5.3s.9.2.9.6-.6.7-1.3.7c-4,0-8.5-.2-10.2-.2s-6.1.2-8.9.2-1.4-.2-1.4-.7.3-.6,1.1-.6,1.8,0,2.6-.3c1.4-.3,1.8-1.8,2.1-3.9.4-3,.4-8.6.4-15.1v-12.6c0-10.8,0-12.8,0-15.1s-.7-3.6-3.1-4.1c-.9-.2-1.8-.2-2.8-.2s-1.2-.1-1.2-.6S.5,0,1.6,0C5.4,0,9.8.3,11.5.3S17.7,0,20.1,0s1.5.1,1.5.6-.4.6-1,.6-1.3.1-2,.2c-1.9.4-2.5,1.6-2.6,4-.2,2.3-.2,4.3-.2,15.1v3.3h.4c2.4-2.6,12.8-13.2,14.8-15.6,2.1-2.4,3.6-4.1,3.6-5.3s-.3-1.2-1-1.4-1.1-.3-1.1-.7.4-.6,1.1-.6c1.5,0,5.4.2,7.3.2h13.7c1.7,0,6.2-.3,8.7-.3s1.6.1,1.6.6-.4.6-1.1.6-1.4.1-2.1.2c-1.9.4-2.4,1.6-2.6,4,0,2.3,0,4.3,0,15v9.9c0,10.3,2.1,14.6,5.5,17.4,2.5,2,5.6,3.1,8.9,2.9,3.6,0,7.1-1.3,9.8-3.8,3.9-3.9,4.1-10.3,4.1-17.6v-8.9c0-10.8,0-12.8,0-15,0-2.3-.7-3.5-3-4-.8-.1-1.7-.2-2.6-.2s-1.2-.1-1.2-.6S80.9,0,81.9,0C85.5,0,90,.2,90.1.2,91,.2,95.4,0,98.2,0s1.5.2,1.5.7-.4.6-1.2.6-1.4.1-2.1.2c-1.9.4-2.4,1.6-2.6,4-.2,2.3-.2,4.3-.2,15v7.6c0,7.9-.8,16.2-6.7,21.3-4.1,3.5-9.4,5.3-14.7,5.1-3.8,0-10.6-.2-15.7-4.9-3.6-3.3-6.3-8.5-6.3-18.8v-10.2c0-10.8,0-12.8,0-15,0-2.3-.8-4-3-4s-5.8,2.5-9.5,5.9Z"/>
    <path class="st3" d="M106.8,73.2h-2.6v-2h7.3v2h-2.6v8.3h-2.1v-8.3h0Z"/>
    <path class="st3" d="M112.7,70.9h2.1v3.8c.4-.7,1.2-1.2,2-1.2,1.5,0,2.3,1,2.3,2.6v5.4h-2.1v-4.7c0-.9-.4-1.4-1.1-1.4s-1.1.5-1.1,1.4v4.7h-2.1v-10.6h0Z"/>
    <path class="st3" d="M120.4,77.6h0c0-2.4,1.4-4.1,3.4-4.1s3.3,1.8,3.3,4.2v.7h-4.7c0,.9.8,1.6,1.7,1.6s1.2-.3,1.6-.8l1.1,1.2c-.7.8-1.7,1.2-2.8,1.2-2,0-3.7-1.6-3.7-3.6,0-.2,0-.3,0-.4ZM125.1,76.9c-.1-1.1-.5-1.7-1.3-1.7s-1.2.6-1.4,1.7h2.7Z"/>
    <path class="st3" d="M131.8,77.4v-6.2h2.1v6.3c0,1.4.7,2.2,1.8,2.2s1.8-.7,1.8-2.1v-6.3h2.1v6.2c0,2.8-1.5,4.2-3.9,4.2s-3.9-1.5-3.9-4.3Z"/>
    <path class="st3" d="M141.3,73.6h2.1v1.1c.4-.7,1.2-1.2,2-1.2,1.5,0,2.3,1,2.3,2.6v5.4h-2.1v-4.7c0-.9-.4-1.4-1.1-1.4s-1.1.5-1.1,1.4v4.7h-2.1v-7.9h0Z"/>
    <path class="st3" d="M149.3,70.9h2.2v1.9h-2.2v-1.9ZM149.3,73.6h2.1v7.9h-2.1v-7.9Z"/>
    <path class="st3" d="M152.6,73.6h2.2l1.5,5.2,1.5-5.2h2.1l-2.6,7.9h-1.9l-2.8-7.9Z"/>
    <path class="st3" d="M160.1,77.6h0c0-2.4,1.4-4.1,3.4-4.1s3.3,1.8,3.3,4.2v.7h-4.7c0,.9.8,1.6,1.7,1.6s1.2-.3,1.6-.8l1.1,1.2c-.7.8-1.7,1.2-2.8,1.2-2,0-3.7-1.6-3.7-3.6,0-.2,0-.3,0-.4ZM164.9,76.9c-.1-1.1-.6-1.7-1.3-1.7s-1.2.6-1.4,1.7h2.7Z"/>
    <path class="st3" d="M168.2,73.6h2.1v1.4c.3-.9,1.1-1.6,2.1-1.5v2.2h-.1c-1.2,0-2,.8-2,2.4v3.3h-2.1v-7.8Z"/>
    <path class="st3" d="M172.9,80.5l.9-1.5c.6.5,1.3.8,2.1.9.6,0,.8-.3.8-.6h0c0-.4-.6-.6-1.4-1-1.1-.5-2.1-1-2.1-2.4h0c0-1.3,1.1-2.4,2.4-2.4h.3c.9,0,1.8.3,2.6.8l-.8,1.5c-.5-.4-1.1-.6-1.8-.7-.5,0-.8.3-.8.6h0c0,.4.6.6,1.4,1,1.1.5,2.1,1.1,2.1,2.3h0c0,1.3-1.1,2.4-2.4,2.5h-.4c-1,0-2-.4-2.9-1Z"/>
    <path class="st3" d="M180,70.9h2.2v1.9h-2.2v-1.9ZM180,73.6h2.1v7.9h-2.1v-7.9Z"/>
    <path class="st3" d="M184.1,79.4v-4.1h-.8v-1.8h.8v-2h2.1v2h1.5v1.8h-1.5v3.6c0,.5.2.7.6.7s.6,0,.9-.2v1.6c-.5.3-1,.4-1.5.4-1.2,0-2.1-.3-2.1-2Z"/>
    <path class="st3" d="M193.5,73.6h2.1l-2.6,7.9c-.5,1.6-1.1,2.2-2.3,2.2s-1.2-.2-1.7-.5l.6-1.6c.3.2.5.2.8.3.3,0,.6-.2.7-.5l-2.7-7.8h2.2l1.5,5.2,1.4-5.2Z"/>
    <path class="st3" d="M199.7,77.6v-.2c-.1-2.1,1.4-3.8,3.5-4h.2c2,0,3.7,1.6,3.7,3.6v.6c0,2-1.6,3.7-3.7,3.7s-3.8-1.7-3.7-3.7h0ZM205,77.6h0c0-1.3-.6-2.3-1.6-2.3s-1.6.9-1.6,2.2h0c0,1.3.7,2.3,1.7,2.3s1.5-1,1.5-2.2h0Z"/>
    <path class="st3" d="M208.7,75.4h-.8v-1.7h.8v-.5c0-.6.2-1.3.6-1.7.5-.4,1.1-.6,1.7-.6s.9,0,1.3.2v1.7c-.2,0-.5,0-.8,0-.5,0-.8.2-.8.8v.3h1.6v1.7h-1.5v6.1h-2.1v-6.2Z"/>
    <path class="st3" d="M216.8,71.2h2.1v4.4l3.3-4.4h2.5l-3.4,4.3,3.6,5.9h-2.4l-2.6-4.2-.9,1.2v3h-2.1v-10.2Z"/>
    <path class="st3" d="M225.2,79.2h0c0-1.8,1.1-2.5,2.7-2.5s1.1,0,1.6.3v-.2c0-.9-.5-1.4-1.5-1.4s-1.2.2-1.8.4l-.6-1.7c.8-.4,1.7-.7,2.7-.6,1.5-.2,3,.9,3.2,2.4v5.6h-2v-.9c-.5.6-1.2,1-2,1-1.2,0-2.2-.9-2.3-2.2v-.2ZM229.6,78.8v-.7c-.4-.2-.8-.3-1.2-.2-.8,0-1.2.4-1.2,1.1h0c0,.5.3.9.8,1h.2c.7,0,1.3-.3,1.4-1v-.2Z"/>
    <path class="st3" d="M233.2,73.6h2.1v1.1c.4-.7,1.2-1.2,2-1.2,1.5,0,2.3,1,2.3,2.6v5.4h-2.1v-4.7c0-.9-.4-1.4-1.1-1.4s-1.1.5-1.1,1.4v4.7h-2.1v-7.9h0Z"/>
    <path class="st3" d="M240.6,80.5l.9-1.4c.6.5,1.3.8,2.1.9.6,0,.8-.3.8-.6h0c0-.4-.6-.6-1.4-1-1.1-.5-2.1-1-2.1-2.4h0c0-1.3,1.1-2.4,2.4-2.4h.3c.9,0,1.8.3,2.6.8l-.8,1.5c-.5-.4-1.1-.6-1.8-.7-.5,0-.8.3-.8.6h0c0,.4.6.6,1.4,1,1.1.5,2.1,1.1,2.1,2.3h0c0,1.3-1.1,2.4-2.4,2.4h-.3c-1.1,0-2.2-.3-3-1Z"/>
    <path class="st3" d="M247.2,79.2h0c0-1.8,1.1-2.5,2.7-2.5s1.1,0,1.6.3v-.2c0-.9-.5-1.4-1.5-1.4s-1.2.2-1.8.4l-.6-1.7c.8-.4,1.7-.7,2.7-.6,1.5-.2,3,.9,3.2,2.4v5.5h-2v-.9c-.5.6-1.2,1-2,1-1.2,0-2.3-.9-2.3-2.1,0,0,0-.1,0-.2ZM251.5,78.8v-.7c-.4-.2-.7-.2-1.1-.2-.8,0-1.2.4-1.2,1.1h0c0,.5.3.9.8,1h.2c.7,0,1.3-.4,1.3-1.2q0,0,0,0Z"/>
    <path class="st3" d="M254.5,80.5l.9-1.5c.6.5,1.3.8,2.1.9.6,0,.8-.3.8-.6h0c0-.4-.6-.6-1.4-1-1.1-.5-2.1-1-2.1-2.4h0c0-1.3,1.1-2.4,2.4-2.4h.3c.9,0,1.8.3,2.6.8l-.8,1.5c-.5-.4-1.1-.6-1.8-.7-.5,0-.8.3-.8.6h0c0,.4.6.6,1.4,1,1.1.5,2.1,1.1,2.1,2.3h0c0,1.3-1.1,2.4-2.4,2.5h-.4c-1,0-2-.4-2.9-1Z"/>
    <path class="st2" d="M108.5,9.8q-.1,0-.2.2l-1,2.7c-.2.4-.3.7-.3,1.1s.2.6.8.6h.3c.2,0,.3,0,.3.2s-.1.2-.3.2c-.6,0-1.4,0-2,0s-1.2,0-2.2,0-.4,0-.4-.2.1-.2.2-.2h.6c.9,0,1.2-.8,1.6-1.7l4.7-11.9c.2-.5.3-.8.5-.8s.3.2.5.6c.4,1,3.5,8.7,4.7,11.6.7,1.7,1.2,2,1.7,2.1.3,0,.5,0,.8,0s.2,0,.2.2-.2.2-.9.2h-3.6c-.3,0-.6,0-.6,0s.1-.2.3-.2c.2,0,.2-.3.2-.4h0l-1.5-4c0,0-.1,0-.1,0h-4.3v-.2ZM112.4,8.9q.1,0,.1,0l-1.7-4.6c0-.1,0-.2-.1-.2s-.1.1-.1.2l-1.7,4.6q0,0,.1,0h3.4Z"/>
    <path class="st2" d="M121.1,12.9c-1.6-1.4-2.4-3.5-2.3-5.6,0-2,.8-3.8,2.2-5.2,1.6-1.4,3.8-2.2,6-2,.9,0,1.8.1,2.7.2.7.1,1.3.3,1.9.3s.3.1.3.2-.1.4-.1,1v2q0,.4-.2.4c-.2,0-.2-.1-.2-.4,0-.6-.3-1.3-.7-1.7-1.1-.9-2.4-1.3-3.8-1.2-1.3-.1-2.6.4-3.5,1.2-1.2,1.3-1.9,3.1-1.7,4.9-.2,3.5,2.4,6.5,5.9,6.8h0c1.7,0,2.7-.2,3.4-1.1.3-.4.5-.8.6-1.2,0-.3.1-.4.2-.4s.2,0,.2.3c-.1.8-.2,1.7-.4,2.5,0,.3-.2.5-.5.5-1.1.3-2.2.5-3.4.4-2.5.4-4.8-.4-6.6-1.9Z"/>
    <path class="st2" d="M145.1,6.5s.1,0,.1,0V2c0-.6-.2-.9-.8-1.1-.2,0-.5-.1-.7-.1s-.3,0-.3-.2.1-.2.4-.2h5.1c.3,0,.4,0,.4.2s-.1.2-.3.2-.4,0-.5.1c-.5.1-.7.4-.7,1.1v7.3c0,1.7,0,3.2.1,4,0,.5.2.9.7,1,.3,0,.6,0,1,0s.3,0,.3.2-.2.2-.4.2c-1.2,0-2.4,0-2.9,0s-1.6,0-2.4,0-.4,0-.4-.2.1-.2.3-.2.4,0,.7,0c.4,0,.5-.5.5-1,.1-.8.1-2.3.1-4v-1.7q0,0-.1,0h-7.2s-.1,0-.1,0v1.7c0,1.7,0,3.2.1,4,.1.5.2.9.7,1,.3,0,.6,0,1,0s.3,0,.3.2-.1.2-.4.2c-1.2,0-2.4,0-2.9,0s-1.6,0-2.4,0-.4,0-.4-.2.1-.2.3-.2.5,0,.7,0c.4,0,.5-.5.5-1,.1-.8.1-2.3.1-4V2c0-.6-.2-.9-.8-1.1-.2,0-.5-.1-.7-.1s-.3,0-.3-.2.1-.2.4-.2h5.1c.3,0,.4,0,.4.2s-.2.2-.4.2-.4,0-.5.1c-.5.1-.7.4-.7,1.1v4.4c0,0,.1,0,.1,0h6.9Z"/>
    <path class="st2" d="M152.9,5.9V1.9c0-.6-.2-1-.6-1.1-.2,0-.4-.1-.7-.1s-.3,0-.3-.2.1-.1.4-.1h4.7c.2,0,.4,0,.4.1s-.1.2-.3.2-.4,0-.6.1c-.5.1-.7.4-.7,1.1v7.3c0,1.8,0,3.3.1,4.1,0,.5.2.9.8.9s.6,0,1,0,.3,0,.3.2-.2.2-.4.2c-1.2,0-2.4,0-2.9,0s-1.6,0-2.4,0-.4,0-.4-.2.1-.2.3-.2.4,0,.7,0c.4,0,.5-.4.5-.9.1-.8.1-2.3.1-4.1v-3.3Z"/>
    <path class="st2" d="M160.9,5.9V1.9c0-.6-.2-.9-.8-1.1-.2,0-.5-.1-.7-.1s-.3,0-.3-.2.1-.2.4-.2h7.4c.3,0,.5-.1.8-.1s.2-.1.3-.1.1.1.1.2c-.1.4-.1.8-.1,1.2s-.1,1-.1,1.2-.1.2-.2.2-.2-.1-.2-.3,0-.5-.1-.7c-.1-.3-.3-.6-1.2-.7-.3,0-2.3-.1-2.7-.1s-.1.1-.1.2v4.8c0,0,0,.2.1.2h3c.3,0,.7,0,.9-.3.1-.2.2-.2.3-.2s.1,0,.1,0-.1.4-.1,1.4-.1,1.1-.1,1.2,0,.4-.2.4-.2,0-.2-.2,0-.4-.1-.7c-.1-.2-.4-.7-1.1-.7h-2.7c-.1,0-.1,0-.1.2v4.4c0,1.3.3,1.6,2.3,1.6s1.2,0,1.8-.2c.5-.2.7-.6.9-1.4,0-.2.1-.3.2-.3s.1.2.1.3c0,.7-.1,1.4-.2,2.1-.1.5-.3.5-1,.5h-3.3c-.8,0-1.5,0-2.1,0h-2.4c-.2,0-.4,0-.4-.2s.1-.2.3-.2.4,0,.7,0c.4,0,.5-.5.5-1,.1-.8.1-2.3.1-4v-3h.2Z"/>
    <path class="st2" d="M171.4,2.3c-.4-1-.8-1.2-1.4-1.4-.2-.1-.5-.1-.7-.1s-.2-.1-.2-.2.2-.2.5-.2h5c.2,0,.4,0,.4.2s-.1.2-.3.2c-.3,0-.5,0-.7.1-.1.1-.2.2-.2.4.1.5.2,1,.4,1.5l3.2,8.5h.1c.8-2.1,3.3-8.1,3.7-9.4.1-.2.1-.5.2-.7,0-.2-.1-.3-.2-.4-.2-.1-.5-.1-.8-.1s-.3,0-.3-.1.2-.2.5-.2h3.8c.2,0,.4,0,.4.2s0,.2-.3.2c-.3,0-.6.1-.9.2-.3.2-.5.5-1,1.7-.7,1.8-1.2,2.8-2.3,5.1-1.2,2.8-2.1,4.9-2.5,5.7-.4.9-.6,1.4-.9,1.4s-.4-.3-.7-1.2l-4.8-11.4Z"/>
    <path class="st2" d="M187.1,5.9V1.9c0-.6-.2-.9-.8-1.1-.2,0-.5-.1-.7-.1s-.3,0-.3-.2.1-.2.4-.2h7.4c.3,0,.5-.1.8-.1h.3c.1,0,.1.1.1.2-.1.4-.1.8-.1,1.2s-.1,1-.1,1.2,0,.2-.2.2-.2-.1-.2-.3,0-.5-.1-.7c-.1-.3-.3-.6-1.2-.7-.3,0-2.3-.1-2.7-.1s-.1.1-.1.2v4.8c0,0,0,.2.1.2h3c.3,0,.7,0,.9-.3.1-.2.2-.2.3-.2s.1,0,.1,0c-.1.5-.1.9-.1,1.4s-.1,1.1-.1,1.2,0,.4-.2.4-.2,0-.2-.2,0-.4-.1-.7c-.1-.2-.4-.7-1.1-.7h-2.7c-.1,0-.1,0-.1.2v4.4c0,1.3.3,1.6,2.3,1.6s1.2,0,1.8-.2c.5-.2.7-.6.9-1.4,0-.2.1-.3.2-.3s.1.2.1.3c0,.7-.1,1.4-.2,2.1-.1.5-.3.5-1,.5h-3.3c-.9,0-1.4,0-2,0h-2.4c-.3,0-.4,0-.4-.2s.1-.2.3-.2.5,0,.7,0c.4,0,.5-.5.5-1,.1-.8.1-2.3.1-4v-3.1Z"/>
    <path class="st2" d="M199.5.6c.1-.3.2-.5.3-.5s.3.1.5.6l5.1,10.6,5.1-10.7c.1-.3.2-.4.4-.4s.3.2.3.6l1.7,11.6c.2,1.2.4,1.7.9,1.9.4,0,.8.2,1.2.2s.3,0,.3,0-.2.2-.5.2c-.5,0-3.1,0-3.8,0s-.5,0-.5-.2.1-.2.2-.2.2-.3.1-.8l-1.1-8.3h-.1l-4.1,8.5c-.4.9-.5,1.1-.7,1.1s-.4-.4-.7-.9c-.4-.9-1.9-3.7-2.2-4.3s-1.3-2.8-2-4.2h-.1l-1,7.5v.9c0,.4.2.5.6.6.3,0,.5,0,.8,0s.3,0,.3,0-.2.2-.4.2c-.8,0-1.6,0-2,0s-1.2,0-1.9,0-.3,0-.3-.2.1,0,.3,0h.6c.5,0,.7-.9.8-1.5l1.9-12.4Z"/>
    <path class="st2" d="M217.4,5.9V1.9c0-.6-.2-.9-.8-1.1-.2,0-.5-.1-.7-.1s-.3,0-.3-.2.1-.2.4-.2h7.4c.3,0,.5-.1.8-.1h.3c.1,0,.1.1.1.2-.1.4-.1.8-.1,1.2s0,1-.1,1.2-.1.2-.2.2-.2-.1-.2-.3,0-.5-.1-.7c-.1-.3-.3-.6-1.2-.7-.3,0-2.3-.1-2.7-.1s-.1.1-.1.2v4.8c0,0,0,.2.1.2h3c.4,0,.7,0,.9-.3s.2-.2.3-.2.1,0,.1,0c-.1.5-.1.9-.1,1.4s-.1,1.1-.1,1.2,0,.4-.2.4-.2,0-.2-.2c0-.2,0-.4-.1-.7-.1-.4-.4-.7-1-.7h-2.7c-.1,0-.1,0-.1.2v4.4c0,1.3.3,1.6,2.3,1.6s1.2,0,1.8-.2c.5-.2.7-.6.9-1.4,0-.2.1-.3.2-.3s.1.2.1.3c0,.7-.1,1.4-.2,2.1-.1.5-.3.5-1,.5h-3.3c-.8,0-1.4,0-2,0h-2.4c-.4,0-.4,0-.4-.2s.1-.2.3-.2.5,0,.7,0c.4,0,.5-.5.5-1,.1-.8.1-2.3.1-4v-3.1Z"/>
    <path class="st2" d="M229.9,12.2c0,1.5.3,2,.7,2.1.3,0,.6,0,1,0s.3,0,.3.2-.2.2-.4.2c-1.2,0-2,0-2.3,0s-1.1,0-2,0-.4,0-.4-.2.1-.2.3-.2c.3,0,.6,0,.9,0,.5,0,.6-.7.6-2.3l.2-11.2c0-.4,0-.6.2-.6s.4.2.7.6c.3.3,3.1,3.3,5.8,6.1,1.3,1.3,3.8,4,4.1,4.3h.1l-.2-8.5c0-1.2-.2-1.5-.6-1.7-.3-.1-.7-.1-1-.1s-.3-.1-.3-.2.2-.2.5-.2h4.1c.2,0,.4,0,.4.2s-.1.2-.3.2-.4,0-.6.1c-.5.1-.7.5-.7,1.6l-.2,11.9c0,.4-.1.6-.2.6s-.4-.2-.6-.4c-1.2-1.1-3.6-3.6-5.6-5.5-1.9-1.9-4.1-4.4-4.5-4.7h0v7.7Z"/>
    <path class="st2" d="M249.1,1.5h-2.8c-1.1.1-1.5.2-1.8.6-.1.2-.3.4-.3.7s-.1.2-.2.2-.2-.1-.2-.3.4-2,.4-2.2.1-.4.2-.4c.3.1.5.2.8.2.6.1,1.3.1,1.9.1h7.5c.4,0,.9,0,1.3-.1.2,0,.3-.1.5-.1s.1.1.1.4v2.2c0,.2,0,.3-.2.3s-.2-.1-.2-.4v-.2c0-.5-.5-1-2.2-1h-2.4c0-.1,0,7.6,0,7.6,0,1.7,0,3.2.1,4,0,.5.2.9.7,1,.3,0,.6,0,1,0s.3,0,.3.2-.2.2-.4.2c-1.2,0-2.4,0-3,0s-1.6,0-2.4,0-.4,0-.4-.2.1-.2.3-.2.5,0,.7,0c.4,0,.5-.5.5-1,.1-.8.1-2.3.1-4V1.5Z"/>
    <path class="st2" d="M108.9,26.4c-.6-.8-1-1.7-1-2.7,0-1.5,1.3-3.5,4.6-3.5s1.6,0,2.3.4c.3,0,.3.3.3.5,0,.8-.1,1.6-.2,2.4,0,.3-.1.3-.2.3s-.1,0-.1-.4c0-.6-.2-1.1-.5-1.6-.5-.6-1.3-.9-2.1-.8-1.1,0-2,.9-2,2h0c0,1.9,1.6,3.4,3.1,5.1.6.7,3,2.8,3.3,3.1.6-.9.9-1.9.9-2.9s-.1-.6-.4-.9c-.3-.2-.6-.3-.9-.3s-.2,0-.2-.2.2-.2.3-.2c.8,0,1.5,0,2.3,0,.4,0,.6,0,.6.4-.1,1.6-.8,3.2-1.8,4.5.8.7,1.7,1.3,2.6,1.8.6.3,1.3.6,2,.7.2,0,.3,0,.3.2s-.1.2-.6.2h-1.5c-1.6.2-3.2-.3-4.4-1.4-1.2,1.2-2.8,1.8-4.5,1.7-4,0-5.2-2.5-5.2-4.2,0-1.7,1.2-3.4,3-4.3ZM114.7,32.7c-1.1-.9-2.9-2.7-3.4-3.2s-1.7-1.9-2-2.4c-.9.7-1.4,1.7-1.3,2.9-.1,2,1.4,3.7,3.4,3.9h.2c1.2-.1,2.3-.5,3.1-1.2Z"/>
    <path class="st2" d="M130,29.8q-.1,0-.2.2l-1,2.7c-.2.4-.3.7-.3,1.1s.2.6.8.6h.3c.2,0,.3,0,.3.2s-.2.2-.4.2h-4.2c-.2,0-.4,0-.4-.2s.1-.2.2-.2h.6c.9,0,1.2-.8,1.6-1.7l4.7-11.8c.2-.5.3-.8.5-.8s.3.2.5.6c.4,1,3.5,8.7,4.7,11.6.7,1.7,1.2,2,1.7,2.1.3,0,.5,0,.8,0s.3,0,.3.2-.2.2-.9.2h-3.6c-.3,0-.6,0-.6,0s.1-.2.3-.2c.2,0,.2-.3.2-.4h0l-1.5-4c0,0-.1,0-.2,0l-4.2-.3ZM133.8,28.9q.1,0,.1,0l-1.7-4.7c0,0,0-.2-.1-.2s-.1,0-.1.2l-1.7,4.6q0,0,.1,0h3.4Z"/>
    <path class="st2" d="M141.4,34.5c-.3,0-.4-.2-.4-.6,0-1,.1-2.2.1-2.4,0-.3.1-.5.2-.5s.2.2.2.3c0,.3.1.6.2,1,.4,1.2,1.5,1.9,2.7,1.8,1.3,0,2.4-.8,2.5-2h0c0-1-.3-1.9-1.8-3.1l-.9-.7c-2.1-1.6-2.8-2.9-2.8-4.5s1.7-3.6,4.3-3.6,1.7,0,2.5.3c.2,0,.3,0,.3.2s-.1.8-.1,2.3,0,.6-.2.6-.2,0-.2-.3c0-.4-.2-.9-.5-1.2-.5-.6-1.3-1-2.1-.9-1.1,0-2.1.6-2.2,1.7v.2c0,.9.4,1.5,2,2.7l.5.4c2.3,1.7,3.1,3,3.1,4.9s-.7,2.6-1.8,3.3c-.9.5-1.9.8-3,.8-.8-.1-1.7-.3-2.6-.7Z"/>
    <path class="st2" d="M151.5,34.5c-.3,0-.4-.2-.4-.6,0-1,.1-2.2.1-2.4,0-.3.1-.5.2-.5s.2.2.2.3c0,.3.1.6.2,1,.4,1.2,1.5,1.9,2.7,1.8,1.3,0,2.4-.8,2.5-2h0c0-1-.3-1.9-1.8-3.1l-.9-.7c-2.1-1.6-2.8-2.9-2.8-4.5s1.7-3.6,4.3-3.6,1.7,0,2.5.3c.2,0,.3,0,.3.2s-.1.8-.1,2.3-.1.6-.2.6-.2,0-.2-.3c0-.4-.2-.9-.5-1.2-.5-.6-1.3-1-2.1-.9-1.1,0-2.1.6-2.2,1.7v.2c0,.9.4,1.5,2,2.7l.5.4c2.3,1.7,3.1,3,3.1,4.9s-.7,2.6-1.8,3.3c-.9.5-1.9.8-3,.8-.8-.1-1.7-.3-2.6-.7Z"/>
    <path class="st2" d="M162.4,26v-4c0-.6-.2-.9-.8-1.1-.2,0-.5,0-.7,0s-.3,0-.3-.2.1-.2.4-.2h7.4c.3,0,.5,0,.8,0s.2,0,.3,0,.1,0,.1.2-.1.4-.1,1.2,0,1-.1,1.2,0,.2-.2.2-.2,0-.2-.3,0-.5-.1-.7c-.1-.3-.3-.6-1.2-.7-.3,0-2.3,0-2.7,0s-.1,0-.1.2v4.8c0,0,0,.2.1.2h3c.3,0,.6,0,.9-.3.1-.2.2-.2.3-.2s.1,0,.1,0c-.1.5-.1.9-.2,1.4,0,.4-.1,1.1-.1,1.2s0,.4-.2.4-.3,0-.3,0c0-.2,0-.4-.1-.7-.1-.4-.4-.7-1.1-.7h-2.7c-.1,0-.1,0-.1.2v4.4c0,1.3.3,1.6,2.3,1.6s1.2,0,1.8-.2c.5-.2.7-.6.9-1.4,0-.2.1-.3.2-.3s.2.2.2.3c0,.7-.1,1.4-.2,2.1-.1.5-.3.5-1,.5-1.4,0-2.4,0-3.3,0-.8,0-1.4,0-2,0h-2.4c-.2,0-.4,0-.4-.2s.1-.2.3-.2.5,0,.7,0c.4,0,.5-.5.5-1,.1-.8.1-2.3.1-4l.2-3.1Z"/>
    <path class="st2" d="M172.5,34.5c-.3,0-.4-.2-.4-.6,0-1,.1-2.2.1-2.4,0-.3.1-.5.2-.5.2,0,.2.2.2.3,0,.3.1.6.2,1,.4,1.2,1.5,1.9,2.7,1.8,1.3,0,2.4-.8,2.5-2h0c0-1-.3-1.9-1.8-3.1l-.9-.7c-2.1-1.6-2.8-2.9-2.8-4.5s1.7-3.6,4.3-3.6,1.7,0,2.5.3c.2,0,.3,0,.3.2s-.1.8-.1,2.3-.1.6-.2.6-.2,0-.2-.3c0-.4-.2-.9-.5-1.2-.5-.6-1.3-1-2.1-.9-1.1,0-2.1.6-2.2,1.7v.2c0,.9.4,1.5,2,2.7l.5.4c2.3,1.7,3.1,3,3.1,4.9s-.7,2.6-1.8,3.3c-.9.5-1.9.8-3,.8-.8-.1-1.7-.3-2.6-.7Z"/>
    <path class="st2" d="M182.6,34.5c-.3,0-.4-.2-.4-.6,0-1,.1-2.2.1-2.4,0-.3.1-.5.2-.5s.2.2.2.3c0,.3.1.6.2,1,.4,1.2,1.5,1.9,2.7,1.8,1.3,0,2.4-.8,2.5-2h0c0-1-.3-1.9-1.8-3.1l-.9-.7c-2.1-1.6-2.8-2.9-2.8-4.5s1.7-3.6,4.3-3.6,1.7,0,2.5.3c.2,0,.3,0,.3.2s-.1.8-.1,2.3,0,.6-.2.6-.2,0-.2-.3c0-.4-.2-.9-.5-1.2-.5-.6-1.3-1-2.1-.9-1.1,0-2.1.6-2.2,1.7v.2c0,.9.4,1.5,2,2.7l.5.4c2.3,1.7,3.1,3,3.1,4.9s-.7,2.6-1.8,3.3c-.9.5-1.9.8-3,.8-.8-.1-1.7-.3-2.6-.7Z"/>
    <path class="st2" d="M194.4,20.6c0-.3.2-.5.3-.5s.3,0,.5.6l5.2,10.6,5.1-10.7c.1-.3.2-.4.4-.4s.3.2.3.6l1.7,11.6c.2,1.2.4,1.7.9,1.9.4,0,.8.2,1.2.2s.3,0,.3,0-.2.2-.5.2c-.5,0-3.1,0-3.8,0-.4,0-.5,0-.5-.2s.1-.2.2-.2.2-.3.1-.8l-1.1-8.3h-.1l-4.1,8.5c-.4.9-.5,1.1-.7,1.1s-.4-.4-.7-.9c-.4-.9-1.9-3.7-2.2-4.3-.2-.5-1.3-2.8-2-4.2h-.1l-1,7.6c0,.3-.1.6-.1.9s.2.5.6.6c.3,0,.5,0,.8,0s.3,0,.3,0-.2.2-.4.2h-3.9c-.2,0-.3,0-.3-.2s.1,0,.3,0h.6c.5,0,.7-.9.8-1.5l1.9-12.5Z"/>
    <path class="st2" d="M211.5,26v-4c0-.6-.2-.9-.8-1.1-.2,0-.5,0-.7,0s-.3,0-.3-.2.1-.2.4-.2h7.4c.3,0,.5,0,.8,0s.2,0,.3,0,.1,0,.1.2c-.1.4-.1.8-.1,1.2s0,1-.1,1.2-.1.2-.2.2-.2,0-.2-.3,0-.5-.1-.7c-.1-.3-.3-.6-1.2-.7-.3,0-2.3,0-2.7,0s-.1,0-.1.2v4.8c0,0,0,.2.1.2h3c.3,0,.7,0,.9-.3.1-.2.2-.2.3-.2s.1,0,.1,0-.1.4-.1,1.4-.1,1.1-.1,1.2,0,.4-.2.4-.2,0-.2-.2,0-.4-.1-.7-.4-.7-1.1-.7h-2.7c-.1,0-.1,0-.1.2v4.4c0,1.3.3,1.6,2.3,1.6s1.2,0,1.8-.2c.5-.2.7-.6.9-1.4,0-.2.1-.3.2-.3s.1.2.1.3c0,.7-.1,1.4-.2,2.1-.1.5-.3.5-1,.5-1.4,0-2.4,0-3.3,0-.8,0-1.4,0-2,0h-2.4c-.2,0-.4,0-.4-.2s.1-.2.3-.2.4,0,.7,0c.4,0,.5-.5.5-1,.1-.8.1-2.3.1-4v-3Z"/>
    <path class="st2" d="M224,32.2c0,1.5.3,2,.7,2.1.3,0,.7,0,1,0s.3,0,.3.2-.2.2-.4.2h-4.3c-.3,0-.4,0-.4-.2s.1-.2.3-.2c.3,0,.6,0,.9,0,.5,0,.6-.7.6-2.3l.2-11.2c0-.4.1-.6.2-.6s.4.2.7.6c.3.3,3.1,3.3,5.8,6.1,1.3,1.3,3.8,4,4.1,4.3h.1l-.2-8.5c0-1.2-.2-1.5-.6-1.7-.3,0-.7,0-1,0s-.3,0-.3-.2.2-.2.5-.2c1,0,1.9,0,2.3,0s.9,0,1.8,0,.4,0,.4.2-.1.2-.3.2-.4,0-.6,0c-.5,0-.7.5-.7,1.6l-.2,11.9c0,.4-.1.6-.2.6s-.4-.2-.6-.4c-1.2-1.1-3.6-3.6-5.6-5.5-1.9-1.9-4.1-4.4-4.5-4.7h0v7.7Z"/>
    <path class="st2" d="M242.8,21.6h-2.8c-1.1,0-1.6.2-1.8.6-.1.2-.2.4-.3.7,0,.2-.1.2-.2.2s-.2,0-.2-.3.4-2.1.4-2.2.1-.4.2-.4c.3,0,.5.2.8.2.6,0,1.3,0,1.9,0h7.5c.4,0,.9,0,1.3,0,.2,0,.3,0,.5,0s.2,0,.2.4v2.2c0,.2-.1.3-.2.3s-.2,0-.2-.4v-.2c0-.5-.5-1-2.2-1h-2.4c0,0,0,7.6,0,7.6,0,1.7,0,3.2.1,4,0,.5.2.9.7,1,.3,0,.6,0,1,0s.3,0,.3.2-.1.2-.4.2h-5.4c-.2,0-.4,0-.4-.2s.1-.2.3-.2.5,0,.7,0c.4,0,.5-.5.5-1,.1-.8.1-2.3.1-4v-7.6Z"/>
    <path class="st2" d="M107.8,46v-4c0-.6-.2-1-.6-1.1-.2,0-.4,0-.7,0s-.3,0-.3-.2.1,0,.4,0h4.7c.2,0,.4,0,.4,0s-.1.2-.3.2-.4,0-.6,0c-.5,0-.7.4-.7,1.1v7.3c0,1.8,0,3.3.1,4.1,0,.5.2.9.8.9s.6,0,1,0,.3,0,.3.2-.2.2-.4.2c-1.2,0-2.4,0-2.9,0s-1.7.1-2.5.1-.4,0-.4-.2.1-.2.3-.2.5,0,.7,0c.4,0,.5-.4.5-.9.1-.8.1-2.3.1-4.1v-3.3Z"/>
    <path class="st2" d="M116.3,52.3c0,1.5.3,2,.7,2.1.3,0,.6,0,1,0s.3,0,.3.2-.2.2-.4.2c-1.2,0-2,0-2.3,0s-1.1,0-2,0-.4,0-.4-.2.1-.2.3-.2c.3,0,.6,0,.9,0,.5,0,.6-.7.6-2.3l.2-11.2c0-.4.1-.6.2-.6s.4.2.7.6c.3.3,3.1,3.3,5.8,6.1,1.2,1.3,3.8,4,4.1,4.3h.1l-.2-8.5c0-1.2-.2-1.5-.6-1.7-.3,0-.7,0-1,0s-.3,0-.3-.2.2-.2.5-.2h4.1c.3,0,.4,0,.4.2s-.1.2-.3.2-.4,0-.6,0c-.5,0-.7.5-.7,1.6l-.2,11.9c0,.4-.1.6-.2.6s-.4-.2-.6-.4c-1.2-1.1-3.6-3.6-5.6-5.5-1.9-1.9-4.1-4.4-4.5-4.7h0v7.7Z"/>
    <path class="st2" d="M130.5,54.6c-.3,0-.4-.2-.4-.6,0-1,.1-2.2.1-2.4,0-.3.1-.5.2-.5s.2.2.2.3c0,.3.1.6.2,1,.3,1.2,1.5,2,2.7,1.9,1.3,0,2.4-.8,2.5-2h0c0-1-.3-1.9-1.8-3.1l-.9-.7c-2.1-1.6-2.8-2.9-2.8-4.5s1.7-3.6,4.3-3.6,1.7,0,2.5.3c.2,0,.3,0,.3.2s-.1.8-.1,2.3,0,.6-.2.6-.2,0-.2-.3c0-.4-.2-.9-.5-1.2-.5-.6-1.3-1-2.1-.9-1.1,0-2.1.6-2.2,1.7v.2c0,.9.4,1.5,2,2.7l.5.4c2.3,1.7,3.1,3,3.1,4.9s-.7,2.6-1.8,3.3c-.9.5-1.9.8-3,.8-.8-.2-1.7-.4-2.6-.8Z"/>
    <path class="st2" d="M144.7,41.6h-2.8c-1.1,0-1.5.2-1.8.6-.1.2-.2.4-.3.7,0,.2-.1.2-.2.2s-.2,0-.2-.3.4-2,.4-2.2.1-.4.2-.4c.3,0,.5.2.8.2.6,0,1.3,0,1.9,0h7.5c.4,0,.9,0,1.3,0,.2,0,.3,0,.5,0s.1,0,.1.4-.1,1.7-.1,2.2,0,.3-.2.3-.2,0-.2-.4v-.2c0-.5-.5-1-2.2-1h-2.4v7.7c0,1.7,0,3.2.1,4,0,.5.2.9.7,1,.3,0,.6,0,1,0s.3,0,.3.2-.2.2-.4.2c-1.2,0-2.4,0-3,0s-1.6,0-2.4,0-.4,0-.4-.2.1-.2.3-.2.5,0,.7,0c.4,0,.5-.5.5-1,.1-.8.1-2.3.1-4l.2-7.7Z"/>
    <path class="st2" d="M155.7,46v-4c0-.6-.2-1-.6-1.1-.2,0-.5,0-.7,0s-.3,0-.3-.2.2,0,.4,0h4.7c.2,0,.4,0,.4,0s-.1.2-.3.2-.4,0-.6,0c-.5,0-.7.4-.7,1.1v7.3c0,1.8,0,3.3.1,4.1,0,.5.2.9.8.9s.6,0,1,0,.3,0,.3.2-.1.2-.4.2c-1.2,0-2.4,0-2.9,0s-1.6,0-2.4,0-.4,0-.4-.2.1-.2.3-.2.5,0,.7,0c.4,0,.5-.4.5-.9.1-.8.1-2.3.1-4.1v-3.3Z"/>
    <path class="st2" d="M166.8,41.6h-2.8c-1.1,0-1.6.2-1.8.6-.1.2-.2.4-.3.7,0,.2-.1.2-.2.2s-.2,0-.2-.3.4-2,.4-2.2.1-.4.2-.4c.3,0,.5.2.8.2.6,0,1.3,0,1.9,0h7.5c.4,0,.9,0,1.3,0,.2,0,.3,0,.5,0s.2,0,.2.4v2.2c0,.2-.1.3-.2.3s-.2,0-.2-.4v-.2c0-.5-.5-1-2.2-1h-2.4v7.7c0,1.7,0,3.2.1,4,0,.5.2.9.7,1,.3,0,.6,0,1,0s.3,0,.3.2-.1.2-.4.2c-1.2,0-2.4,0-3,0s-1.6,0-2.4,0-.4,0-.4-.2.1-.2.3-.2.5,0,.7,0c.4,0,.5-.5.5-1,.1-.8.1-2.3.1-4v-7.7Z"/>
    <path class="st2" d="M177.1,46v-4c0-.6-.2-.9-.8-1.1-.2,0-.5,0-.7,0s-.3,0-.3-.2.1-.2.4-.2h5c.3,0,.4,0,.4.2s-.1.2-.3.2-.4,0-.5,0c-.5,0-.7.4-.7,1.1v6.6c0,2.7.5,3.9,1.5,4.6.7.5,1.5.8,2.4.8s1.9-.3,2.6-1c1-1,1.1-2.7,1.1-4.7v-6.3c0-.6-.2-.9-.8-1.1-.2,0-.5,0-.7,0s-.3,0-.3-.2.1-.2.4-.2h4.3c.3,0,.4,0,.4.2s-.1.2-.3.2-.4,0-.5,0c-.5,0-.7.4-.7,1.1v6c0,2.1-.2,4.3-1.8,5.7-1.1.9-2.5,1.4-3.9,1.4-1.5,0-3-.4-4.2-1.3-1-.9-1.7-2.3-1.7-5l-.3-2.8Z"/>
    <path class="st2" d="M196.7,41.6h-2.8c-1.1,0-1.5.2-1.8.6-.1.2-.2.4-.3.7,0,.2-.1.2-.2.2s-.2,0-.2-.3c.1-.7.2-1.4.4-2.2,0-.2.1-.4.2-.4.3,0,.5.2.8.2.6,0,1.3,0,1.9,0h7.5c.4,0,.9,0,1.3,0,.2,0,.3,0,.5,0s.1,0,.1.4-.1,1.7-.1,2.2,0,.3-.2.3-.2,0-.2-.4v-.2c0-.5-.5-1-2.2-1h-2.4v7.7c0,1.7,0,3.2.1,4,.1.5.2.9.7,1,.3,0,.6,0,1,0s.3,0,.3.2-.2.2-.4.2c-1.2,0-2.4,0-3,0s-1.6,0-2.4,0-.4,0-.4-.2.1-.2.3-.2.5,0,.7,0c.4,0,.5-.5.5-1,.1-.8.1-2.3.1-4l.2-7.7Z"/>
    <path class="st2" d="M207.5,46v-4c0-.6-.2-.9-.8-1.1-.2,0-.5,0-.7,0s-.3,0-.3-.2.1-.2.4-.2h7.4c.3,0,.5,0,.8,0s.2,0,.3,0,.1,0,.1.2-.1.4-.1,1.2-.1,1-.1,1.2,0,.2-.2.2-.2,0-.2-.3,0-.5-.1-.7c-.1-.3-.3-.6-1.2-.7-.3,0-2.3,0-2.7,0s-.1,0-.1.2v4.8c0,0,0,.2.1.2h3c.3,0,.6,0,.9-.3.1-.2.2-.2.3-.2s.1,0,.1,0c-.1.5-.1.9-.2,1.4,0,.4-.1,1.1-.1,1.2s0,.4-.2.4-.2,0-.2-.2c0-.2,0-.4-.1-.7-.1-.4-.4-.7-1.1-.7h-2.7c-.1,0-.1,0-.1.2v4.4c0,1.3.3,1.6,2.3,1.6s1.2,0,1.8-.2c.5-.2.7-.6.9-1.4,0-.2.1-.3.2-.3s.2.2.2.3c-.1.7-.2,1.4-.4,2.1-.1.5-.3.5-1,.5h-3.3c-.8,0-1.4,0-1.9,0h-2.3c-.2,0-.4,0-.4-.2s.1-.2.3-.2.5,0,.7,0c.4,0,.5-.5.5-1,.1-.8.1-2.3.1-4v-3Z"/>
  </g>
</svg>