<?xml version="1.0" encoding="utf-8"?>
<!-- Generator: Adobe Illustrator 24.0.3, SVG Export Plug-In . SVG Version: 6.00 Build 0)  -->
<svg version="1.1" id="Layer_1" xmlns="http://www.w3.org/2000/svg" xmlns:xlink="http://www.w3.org/1999/xlink" x="0px" y="0px"
	 width="750px" height="137px" viewBox="0 0 750 137" style="enable-background:new 0 0 750 137;" xml:space="preserve">
<style type="text/css">
	.st0{fill:none;stroke:#000000;stroke-miterlimit:10;}
	.st1{fill:none;}
	.st2{fill:#0051BA;}
	.st3{fill:#88898A;}
</style>
<line class="st0" x1="343.9" y1="27.3" x2="343.9" y2="108.7"/>
<g>
	<rect x="378" y="45.2" class="st1" width="341.1" height="47.6"/>
	<path d="M385.4,45.8h2.5l6.8,15.5h-2.9l-1.6-3.7H383l-1.6,3.7h-2.8L385.4,45.8z M389.3,55.2l-2.7-6.2l-2.6,6.2H389.3z"/>
	<path d="M395.8,55.5L395.8,55.5c0-3.3,2.6-6.1,6.1-6.1c2.2,0,3.5,0.8,4.6,2l-1.7,1.8c-0.8-0.8-1.7-1.5-3-1.5
		c-1.9,0-3.4,1.7-3.4,3.7v0c0,2.1,1.4,3.7,3.5,3.7c1.3,0,2.2-0.6,3-1.4l1.6,1.6c-1.1,1.3-2.5,2.2-4.8,2.2
		C398.4,61.5,395.8,58.8,395.8,55.5z"/>
	<path d="M408.1,55.5L408.1,55.5c0-3.3,2.6-6.1,6.1-6.1c2.2,0,3.5,0.8,4.6,2l-1.7,1.8c-0.8-0.8-1.7-1.5-3-1.5
		c-1.9,0-3.4,1.7-3.4,3.7v0c0,2.1,1.4,3.7,3.5,3.7c1.3,0,2.2-0.6,3-1.4l1.6,1.6c-1.1,1.3-2.5,2.2-4.8,2.2
		C410.6,61.5,408.1,58.8,408.1,55.5z"/>
	<path d="M420.3,55.5L420.3,55.5c0-3.4,2.4-6.1,5.7-6.1c3.7,0,5.6,2.9,5.6,6.2c0,0.2,0,0.5,0,0.7H423c0.3,1.9,1.6,2.9,3.3,2.9
		c1.3,0,2.2-0.5,3.1-1.4l1.6,1.4c-1.1,1.3-2.6,2.2-4.8,2.2C422.9,61.5,420.3,59.1,420.3,55.5z M428.9,54.7c-0.2-1.7-1.2-3.1-2.9-3.1
		c-1.6,0-2.8,1.3-3,3.1H428.9z"/>
	<path d="M433.3,59.8l1.2-1.8c1.3,0.9,2.6,1.4,3.8,1.4c1.1,0,1.8-0.5,1.8-1.3v0c0-0.9-1.2-1.2-2.6-1.6c-1.7-0.5-3.6-1.2-3.6-3.4v0
		c0-2.2,1.8-3.6,4.1-3.6c1.5,0,3,0.5,4.3,1.3l-1.1,1.9c-1.1-0.7-2.3-1.1-3.3-1.1c-1,0-1.6,0.5-1.6,1.1v0c0,0.9,1.3,1.2,2.6,1.6
		c1.7,0.5,3.6,1.3,3.6,3.4v0c0,2.4-1.9,3.7-4.3,3.7C436.5,61.5,434.7,60.9,433.3,59.8z"/>
	<path d="M444.1,59.8l1.2-1.8c1.3,0.9,2.6,1.4,3.8,1.4c1.1,0,1.8-0.5,1.8-1.3v0c0-0.9-1.2-1.2-2.6-1.6c-1.7-0.5-3.6-1.2-3.6-3.4v0
		c0-2.2,1.8-3.6,4.1-3.6c1.5,0,3,0.5,4.3,1.3l-1.1,1.9c-1.1-0.7-2.3-1.1-3.3-1.1c-1,0-1.6,0.5-1.6,1.1v0c0,0.9,1.3,1.2,2.6,1.6
		c1.7,0.5,3.6,1.3,3.6,3.4v0c0,2.4-1.9,3.7-4.3,3.7C447.4,61.5,445.5,60.9,444.1,59.8z"/>
	<path d="M456.1,45.3h2.9v2.5h-2.9V45.3z M456.2,49.7h2.7v11.6h-2.7V49.7z"/>
	<path d="M465,59.5v1.8h-2.7V45.2h2.7v6.4c0.9-1.2,2.1-2.2,4-2.2c2.7,0,5.4,2.2,5.4,6v0c0,3.9-2.6,6-5.4,6
		C467,61.5,465.8,60.6,465,59.5z M471.6,55.5L471.6,55.5c0-2.3-1.5-3.8-3.3-3.8c-1.8,0-3.4,1.5-3.4,3.7v0c0,2.2,1.6,3.7,3.4,3.7
		C470.1,59.2,471.6,57.8,471.6,55.5z"/>
	<path d="M477.2,45.2h2.7v16.1h-2.7V45.2z"/>
	<path d="M482.7,55.5L482.7,55.5c0-3.4,2.4-6.1,5.7-6.1c3.7,0,5.6,2.9,5.6,6.2c0,0.2,0,0.5,0,0.7h-8.5c0.3,1.9,1.6,2.9,3.3,2.9
		c1.3,0,2.2-0.5,3.1-1.4l1.6,1.4c-1.1,1.3-2.6,2.2-4.8,2.2C485.3,61.5,482.7,59.1,482.7,55.5z M491.4,54.7c-0.2-1.7-1.2-3.1-2.9-3.1
		c-1.6,0-2.8,1.3-3,3.1H491.4z"/>
	<path d="M507.3,48.4h-4.9v-2.5H515v2.5H510v12.9h-2.7V48.4z"/>
	<path d="M514.4,55.5L514.4,55.5c0-3.4,2.4-6.1,5.7-6.1c3.7,0,5.6,2.9,5.6,6.2c0,0.2,0,0.5,0,0.7H517c0.3,1.9,1.6,2.9,3.3,2.9
		c1.3,0,2.2-0.5,3.1-1.4l1.6,1.4c-1.1,1.3-2.6,2.2-4.8,2.2C517,61.5,514.4,59.1,514.4,55.5z M523,54.7c-0.2-1.7-1.2-3.1-2.9-3.1
		c-1.6,0-2.8,1.3-3,3.1H523z"/>
	<path d="M527.5,57.9L527.5,57.9c0-2.6,2-3.8,4.8-3.8c1.3,0,2.2,0.2,3.1,0.5v-0.3c0-1.6-1-2.5-2.9-2.5c-1.3,0-2.3,0.3-3.3,0.7
		l-0.7-2.1c1.3-0.6,2.6-0.9,4.4-0.9c1.7,0,3,0.5,3.9,1.3c0.9,0.8,1.3,2.1,1.3,3.6v6.9h-2.6v-1.5c-0.8,0.9-2,1.7-3.8,1.7
		C529.5,61.5,527.5,60.3,527.5,57.9z M535.5,57.1v-0.8c-0.7-0.3-1.6-0.5-2.6-0.5c-1.7,0-2.7,0.7-2.7,1.9v0c0,1.1,1,1.8,2.3,1.8
		C534.1,59.6,535.5,58.6,535.5,57.1z"/>
	<path d="M540.6,55.5L540.6,55.5c0-3.3,2.6-6.1,6.1-6.1c2.2,0,3.5,0.8,4.6,2l-1.7,1.8c-0.8-0.8-1.7-1.5-3-1.5
		c-1.9,0-3.4,1.7-3.4,3.7v0c0,2.1,1.4,3.7,3.5,3.7c1.3,0,2.2-0.6,3-1.4l1.6,1.6c-1.1,1.3-2.5,2.2-4.8,2.2
		C543.1,61.5,540.6,58.8,540.6,55.5z"/>
	<path d="M553.7,45.2h2.7v6.2c0.7-1.1,1.8-2,3.6-2c2.6,0,4.1,1.8,4.1,4.4v7.4h-2.7v-6.6c0-1.8-0.9-2.8-2.5-2.8
		c-1.5,0-2.6,1.1-2.6,2.9v6.6h-2.7V45.2z"/>
	<path d="M567.4,45.3h2.9v2.5h-2.9V45.3z M567.5,49.7h2.7v11.6h-2.7V49.7z"/>
	<path d="M573.7,49.7h2.7v1.8c0.7-1.1,1.8-2,3.6-2c2.6,0,4.1,1.8,4.1,4.4v7.4h-2.7v-6.6c0-1.8-0.9-2.8-2.5-2.8
		c-1.5,0-2.6,1.1-2.6,2.9v6.6h-2.7V49.7z"/>
	<path d="M587.3,63.5l1-2c1.3,0.8,2.6,1.2,4.1,1.2c2.4,0,3.7-1.2,3.7-3.5v-0.9c-1,1.2-2.2,2.1-4.1,2.1c-2.8,0-5.3-2-5.3-5.4v0
		c0-3.4,2.6-5.5,5.3-5.5c2,0,3.2,0.9,4.1,2v-1.7h2.7v9.2c0,2-0.5,3.4-1.5,4.4c-1.1,1.1-2.7,1.6-4.8,1.6
		C590.6,64.8,588.8,64.4,587.3,63.5z M596.1,54.9L596.1,54.9c0-1.9-1.6-3.2-3.4-3.2c-1.8,0-3.3,1.3-3.3,3.2v0c0,1.9,1.5,3.2,3.3,3.2
		C594.6,58.1,596.1,56.8,596.1,54.9z"/>
	<path d="M601.2,63.3c1.3-0.3,2-0.9,1.9-2.1h-1.1v-3h2.9v2.6c0,2.4-1.2,3.5-3.4,3.7L601.2,63.3z"/>
	<path d="M614.9,45.9h2.7v12.9h8.1v2.5h-10.8V45.9z"/>
	<path d="M627.4,55.5L627.4,55.5c0-3.4,2.4-6.1,5.7-6.1c3.7,0,5.6,2.9,5.6,6.2c0,0.2,0,0.5,0,0.7H630c0.3,1.9,1.6,2.9,3.3,2.9
		c1.3,0,2.2-0.5,3.1-1.4l1.6,1.4c-1.1,1.3-2.6,2.2-4.8,2.2C630,61.5,627.4,59.1,627.4,55.5z M636,54.7c-0.2-1.7-1.2-3.1-2.9-3.1
		c-1.6,0-2.8,1.3-3,3.1H636z"/>
	<path d="M640.5,57.9L640.5,57.9c0-2.6,2-3.8,4.8-3.8c1.3,0,2.2,0.2,3.1,0.5v-0.3c0-1.6-1-2.5-2.9-2.5c-1.3,0-2.3,0.3-3.3,0.7
		l-0.7-2.1c1.3-0.6,2.6-0.9,4.4-0.9c1.7,0,3,0.5,3.9,1.3c0.9,0.8,1.3,2.1,1.3,3.6v6.9h-2.6v-1.5c-0.8,0.9-2,1.7-3.8,1.7
		C642.5,61.5,640.5,60.3,640.5,57.9z M648.5,57.1v-0.8c-0.7-0.3-1.6-0.5-2.6-0.5c-1.7,0-2.7,0.7-2.7,1.9v0c0,1.1,1,1.8,2.3,1.8
		C647.2,59.6,648.5,58.6,648.5,57.1z"/>
	<path d="M654.2,49.7h2.7v2.6c0.7-1.7,2.1-2.9,4.1-2.8v2.8h-0.2c-2.3,0-4,1.5-4,4.6v4.4h-2.7V49.7z"/>
	<path d="M663.3,49.7h2.7v1.8c0.7-1.1,1.8-2,3.6-2c2.6,0,4.1,1.8,4.1,4.4v7.4h-2.7v-6.6c0-1.8-0.9-2.8-2.5-2.8
		c-1.5,0-2.6,1.1-2.6,2.9v6.6h-2.7V49.7z"/>
	<path d="M677,45.3h2.9v2.5H677V45.3z M677.1,49.7h2.7v11.6h-2.7V49.7z"/>
	<path d="M683.2,49.7h2.7v1.8c0.7-1.1,1.8-2,3.6-2c2.6,0,4.1,1.8,4.1,4.4v7.4H691v-6.6c0-1.8-0.9-2.8-2.5-2.8
		c-1.5,0-2.6,1.1-2.6,2.9v6.6h-2.7V49.7z"/>
	<path d="M696.8,63.5l1-2c1.3,0.8,2.6,1.2,4.1,1.2c2.4,0,3.7-1.2,3.7-3.5v-0.9c-1,1.2-2.2,2.1-4.1,2.1c-2.8,0-5.3-2-5.3-5.4v0
		c0-3.4,2.6-5.5,5.3-5.5c2,0,3.2,0.9,4.1,2v-1.7h2.7v9.2c0,2-0.5,3.4-1.5,4.4c-1.1,1.1-2.7,1.6-4.8,1.6
		C700.1,64.8,698.3,64.4,696.8,63.5z M705.7,54.9L705.7,54.9c0-1.9-1.6-3.2-3.4-3.2c-1.8,0-3.3,1.3-3.3,3.2v0c0,1.9,1.5,3.2,3.3,3.2
		C704.1,58.1,705.7,56.8,705.7,54.9z"/>
	<path d="M710.7,63.3c1.3-0.3,2-0.9,1.9-2.1h-1.1v-3h2.9v2.6c0,2.4-1.2,3.5-3.4,3.7L710.7,63.3z"/>
	<path d="M388.6,85.9c-1.3,1.2-2.9,2-4.7,2c-2.9,0-5.1-1.7-5.1-4.4v0c0-2,1.2-3.4,3.3-4.3c-0.9-1.1-1.3-2.1-1.3-3.2v0
		c0-2.1,1.7-3.9,4.4-3.9c2.4,0,4.1,1.7,4.1,3.7v0c0,2-1.3,3.2-3.4,4l2.6,2.7c0.6-0.9,1.1-1.9,1.6-3l2,1.1c-0.6,1.2-1.3,2.4-2.1,3.5
		l2.4,2.5l-2,1.5L388.6,85.9z M387,84.3l-3.4-3.5c-1.4,0.6-2,1.6-2,2.6v0c0,1.3,1.1,2.2,2.6,2.2C385.2,85.7,386.1,85.1,387,84.3z
		 M386.9,75.9L386.9,75.9c0-1.1-0.7-1.8-1.7-1.8c-1.1,0-1.8,0.8-1.8,1.8v0c0,0.8,0.3,1.3,1.2,2.3C386.1,77.8,386.9,77,386.9,75.9z"
		/>
	<path d="M407.3,72.2h2.5l6.8,15.5h-2.9l-1.6-3.7h-7.3l-1.6,3.7h-2.8L407.3,72.2z M411.2,81.6l-2.7-6.2l-2.6,6.2H411.2z"/>
	<path d="M418,86.2l1.2-1.8c1.3,0.9,2.6,1.4,3.8,1.4c1.1,0,1.8-0.5,1.8-1.3v0c0-0.9-1.2-1.2-2.6-1.6c-1.7-0.5-3.6-1.2-3.6-3.4v0
		c0-2.2,1.8-3.6,4.1-3.6c1.5,0,3,0.5,4.3,1.3l-1.1,1.9c-1.1-0.7-2.3-1.1-3.3-1.1c-1,0-1.6,0.5-1.6,1.1v0c0,0.9,1.3,1.2,2.6,1.7
		c1.7,0.5,3.6,1.3,3.6,3.4v0c0,2.4-1.9,3.7-4.3,3.7C421.3,87.9,419.4,87.3,418,86.2z"/>
	<path d="M428.8,86.2l1.2-1.8c1.3,0.9,2.6,1.4,3.8,1.4c1.1,0,1.8-0.5,1.8-1.3v0c0-0.9-1.2-1.2-2.6-1.6c-1.7-0.5-3.6-1.2-3.6-3.4v0
		c0-2.2,1.8-3.6,4.1-3.6c1.5,0,3,0.5,4.3,1.3l-1.1,1.9c-1.1-0.7-2.3-1.1-3.3-1.1c-1,0-1.6,0.5-1.6,1.1v0c0,0.9,1.3,1.2,2.6,1.7
		c1.7,0.5,3.6,1.3,3.6,3.4v0c0,2.4-1.9,3.7-4.3,3.7C432.1,87.9,430.2,87.3,428.8,86.2z"/>
	<path d="M440.1,81.9L440.1,81.9c0-3.4,2.4-6.1,5.7-6.1c3.7,0,5.6,2.9,5.6,6.2c0,0.2,0,0.5,0,0.7h-8.5c0.3,1.9,1.6,2.9,3.3,2.9
		c1.3,0,2.2-0.5,3.1-1.4l1.6,1.4c-1.1,1.3-2.6,2.2-4.8,2.2C442.7,87.9,440.1,85.5,440.1,81.9z M448.7,81.1c-0.2-1.7-1.2-3.1-2.9-3.1
		c-1.6,0-2.8,1.3-3,3.1H448.7z"/>
	<path d="M453.1,86.2l1.2-1.8c1.3,0.9,2.6,1.4,3.8,1.4c1.1,0,1.8-0.5,1.8-1.3v0c0-0.9-1.2-1.2-2.6-1.6c-1.7-0.5-3.6-1.2-3.6-3.4v0
		c0-2.2,1.8-3.6,4.1-3.6c1.5,0,3,0.5,4.3,1.3l-1.1,1.9c-1.1-0.7-2.3-1.1-3.3-1.1c-1,0-1.6,0.5-1.6,1.1v0c0,0.9,1.3,1.2,2.6,1.7
		c1.7,0.5,3.6,1.3,3.6,3.4v0c0,2.4-1.9,3.7-4.3,3.7C456.4,87.9,454.5,87.3,453.1,86.2z"/>
	<path d="M463.9,86.2l1.2-1.8c1.3,0.9,2.6,1.4,3.8,1.4c1.1,0,1.8-0.5,1.8-1.3v0c0-0.9-1.2-1.2-2.6-1.6c-1.7-0.5-3.6-1.2-3.6-3.4v0
		c0-2.2,1.8-3.6,4.1-3.6c1.5,0,3,0.5,4.3,1.3l-1.1,1.9c-1.1-0.7-2.3-1.1-3.3-1.1c-1,0-1.6,0.5-1.6,1.1v0c0,0.9,1.3,1.2,2.6,1.7
		c1.7,0.5,3.6,1.3,3.6,3.4v0c0,2.4-1.9,3.7-4.3,3.7C467.2,87.9,465.3,87.3,463.9,86.2z"/>
	<path d="M475.8,76.1h2.7v1.8c0.7-1,1.8-2,3.5-2c1.7,0,2.9,0.8,3.5,2c0.9-1.2,2.2-2,3.9-2c2.5,0,4.1,1.6,4.1,4.4v7.4h-2.7v-6.6
		c0-1.8-0.9-2.8-2.4-2.8c-1.5,0-2.5,1-2.5,2.9v6.6h-2.7v-6.6c0-1.8-0.9-2.8-2.4-2.8c-1.5,0-2.5,1.1-2.5,2.9v6.6h-2.7V76.1z"/>
	<path d="M496.1,81.9L496.1,81.9c0-3.4,2.4-6.1,5.7-6.1c3.7,0,5.6,2.9,5.6,6.2c0,0.2,0,0.5,0,0.7h-8.5c0.3,1.9,1.6,2.9,3.3,2.9
		c1.3,0,2.2-0.5,3.1-1.4l1.6,1.4c-1.1,1.3-2.6,2.2-4.8,2.2C498.7,87.9,496.1,85.5,496.1,81.9z M504.7,81.1c-0.2-1.7-1.2-3.1-2.9-3.1
		c-1.6,0-2.8,1.3-3,3.1H504.7z"/>
	<path d="M510,76.1h2.7v1.8c0.7-1.1,1.8-2,3.6-2c2.6,0,4.1,1.8,4.1,4.4v7.4h-2.7v-6.6c0-1.8-0.9-2.8-2.5-2.8c-1.5,0-2.6,1.1-2.6,2.9
		v6.6H510V76.1z"/>
	<path d="M524.2,84.5v-6.1h-1.5v-2.3h1.5v-3.2h2.7v3.2h3.1v2.3h-3.1V84c0,1,0.5,1.5,1.4,1.5c0.6,0,1.1-0.1,1.7-0.4v2.2
		c-0.7,0.4-1.4,0.6-2.4,0.6C525.6,87.9,524.2,87,524.2,84.5z"/>
	<path d="M538.6,85.4l1.6-1.9c1.5,1.3,3,2,4.9,2c1.7,0,2.7-0.8,2.7-1.9v0c0-1.1-0.6-1.7-3.5-2.4c-3.3-0.8-5.1-1.8-5.1-4.6v0
		c0-2.6,2.2-4.5,5.3-4.5c2.2,0,4,0.7,5.6,1.9l-1.5,2c-1.4-1-2.8-1.6-4.2-1.6c-1.6,0-2.5,0.8-2.5,1.8v0c0,1.2,0.7,1.7,3.7,2.4
		c3.3,0.8,4.9,2,4.9,4.5v0c0,2.9-2.3,4.6-5.5,4.6C542.7,87.9,540.4,87.1,538.6,85.4z"/>
	<path d="M561.1,76.1h2.8L559.3,88c-0.9,2.4-2,3.3-3.8,3.3c-1.1,0-1.9-0.3-2.8-0.7l0.9-2c0.5,0.3,1,0.4,1.6,0.4
		c0.7,0,1.2-0.3,1.7-1.3L552,76.1h2.9l3.3,8.6L561.1,76.1z"/>
	<path d="M564.8,86.2l1.2-1.8c1.3,0.9,2.6,1.4,3.8,1.4c1.1,0,1.8-0.5,1.8-1.3v0c0-0.9-1.2-1.2-2.6-1.6c-1.7-0.5-3.6-1.2-3.6-3.4v0
		c0-2.2,1.8-3.6,4.1-3.6c1.5,0,3,0.5,4.3,1.3l-1.1,1.9c-1.1-0.7-2.3-1.1-3.3-1.1c-1,0-1.6,0.5-1.6,1.1v0c0,0.9,1.3,1.2,2.6,1.7
		c1.7,0.5,3.6,1.3,3.6,3.4v0c0,2.4-1.9,3.7-4.3,3.7C568.1,87.9,566.2,87.3,564.8,86.2z"/>
	<path d="M577.1,84.5v-6.1h-1.5v-2.3h1.5v-3.2h2.7v3.2h3.1v2.3h-3.1V84c0,1,0.5,1.5,1.4,1.5c0.6,0,1.1-0.1,1.7-0.4v2.2
		c-0.7,0.4-1.4,0.6-2.4,0.6C578.5,87.9,577.1,87,577.1,84.5z"/>
	<path d="M584.6,81.9L584.6,81.9c0-3.4,2.4-6.1,5.7-6.1c3.7,0,5.6,2.9,5.6,6.2c0,0.2,0,0.5,0,0.7h-8.5c0.3,1.9,1.6,2.9,3.3,2.9
		c1.3,0,2.2-0.5,3.1-1.4l1.6,1.4c-1.1,1.3-2.6,2.2-4.8,2.2C587.2,87.9,584.6,85.5,584.6,81.9z M593.2,81.1c-0.2-1.7-1.2-3.1-2.9-3.1
		c-1.6,0-2.8,1.3-3,3.1H593.2z"/>
	<path d="M598.5,76.1h2.7v1.8c0.7-1,1.8-2,3.5-2c1.7,0,2.9,0.8,3.5,2c0.9-1.2,2.2-2,3.9-2c2.5,0,4.1,1.6,4.1,4.4v7.4h-2.7v-6.6
		c0-1.8-0.9-2.8-2.4-2.8c-1.5,0-2.5,1-2.5,2.9v6.6H606v-6.6c0-1.8-0.9-2.8-2.4-2.8c-1.5,0-2.5,1.1-2.5,2.9v6.6h-2.7V76.1z"/>
	<path d="M618.5,86.2l1.2-1.8c1.3,0.9,2.6,1.4,3.8,1.4c1.1,0,1.8-0.5,1.8-1.3v0c0-0.9-1.2-1.2-2.6-1.6c-1.7-0.5-3.6-1.2-3.6-3.4v0
		c0-2.2,1.8-3.6,4.1-3.6c1.5,0,3,0.5,4.3,1.3l-1.1,1.9c-1.1-0.7-2.3-1.1-3.3-1.1c-1,0-1.6,0.5-1.6,1.1v0c0,0.9,1.3,1.2,2.6,1.7
		c1.7,0.5,3.6,1.3,3.6,3.4v0c0,2.4-1.9,3.7-4.3,3.7C621.7,87.9,619.9,87.3,618.5,86.2z"/>
</g>
<g>
	<path class="st2" d="M288.4,90.9H131c-0.4-0.1-0.7-0.4-0.7-0.9c0-0.3,0.3-0.6,0.7-0.7h157.4c0.4,0.1,0.7,0.4,0.7,0.9
		C289,90.6,288.7,90.9,288.4,90.9z"/>
	<path class="st2" d="M65.1,34.7C62.8,36.8,52.2,47.5,49.7,50l20.4,21.9l8.3,9c2.9,2.8,6.2,5.6,9.7,7c1.5,0.7,3.1,1.2,4.8,1.4
		c0.5,0,0.9,0.1,0.9,0.6c0,0.4-0.4,0.7-1.7,0.7h-6.2c-2.1,0-3.4,0-4.9-0.1c-3.8-0.4-5.8-1.9-8.8-4.6L44.3,55l-0.8-1h-0.4v6.5
		c0,6.5,0,12.1,0.2,15.2c0.1,2,0.8,3.6,2.6,3.8c1.2,0.2,2.3,0.3,3.5,0.3c0.6,0,0.9,0.2,0.9,0.6s-0.6,0.7-1.3,0.7
		c-4,0-8.5-0.2-10.2-0.2c-1.7,0-6.1,0.2-8.9,0.2c-0.9,0-1.4-0.2-1.4-0.7s0.3-0.6,1.1-0.6c0.9,0,1.8-0.1,2.6-0.3
		c1.4-0.3,1.8-1.8,2.1-3.9c0.4-3,0.4-8.6,0.4-15.1V47.9c0-10.8,0-12.8-0.1-15.1s-0.7-3.6-3.1-4.1c-0.9-0.2-1.8-0.2-2.8-0.2
		c-0.8,0-1.2-0.1-1.2-0.6s0.5-0.7,1.6-0.7c3.8,0,8.2,0.3,9.9,0.3c1.7,0,6.2-0.3,8.6-0.3c1,0,1.5,0.1,1.5,0.6s-0.4,0.6-1,0.6
		c-0.7,0-1.3,0.1-2,0.2c-1.9,0.4-2.5,1.6-2.6,4c-0.2,2.3-0.2,4.3-0.2,15.1V51h0.4c2.4-2.6,12.8-13.2,14.8-15.6
		c2.1-2.4,3.6-4.1,3.6-5.3c0-0.8-0.3-1.2-1-1.4S60,28.4,60,28s0.4-0.6,1.1-0.6c1.5,0,5.4,0.2,7.3,0.2h13.7c1.7,0,6.2-0.3,8.7-0.3
		c1.1,0,1.6,0.1,1.6,0.6s-0.4,0.6-1.1,0.6c-0.7,0-1.4,0.1-2.1,0.2c-1.9,0.4-2.4,1.6-2.6,4c-0.1,2.3-0.1,4.3-0.1,15v9.9
		c0,10.3,2.1,14.6,5.5,17.4c2.5,2,5.6,3.1,8.9,2.9c3.6,0.1,7.1-1.3,9.8-3.8c3.9-3.9,4.1-10.3,4.1-17.6v-8.9c0-10.8,0-12.8-0.1-15
		c-0.1-2.3-0.7-3.5-3-4c-0.8-0.1-1.7-0.2-2.6-0.2c-0.8,0-1.2-0.1-1.2-0.6s0.5-0.6,1.5-0.6c3.6,0,8.1,0.2,8.2,0.2
		c0.9,0,5.3-0.2,8.1-0.2c1,0,1.5,0.2,1.5,0.7c0,0.5-0.4,0.6-1.2,0.6c-0.7,0-1.4,0.1-2.1,0.2c-1.9,0.4-2.4,1.6-2.6,4
		c-0.2,2.3-0.2,4.3-0.2,15v7.6c0,7.9-0.8,16.2-6.7,21.3c-4.1,3.5-9.4,5.3-14.7,5.1c-3.8,0-10.6-0.2-15.7-4.9
		c-3.6-3.3-6.3-8.5-6.3-18.8V47.8c0-10.8,0-12.8-0.1-15c-0.1-2.3-0.8-4-3-4C71.9,28.8,68.8,31.3,65.1,34.7z"/>
	<path class="st2" d="M134.3,100.4h-2.6v-2h7.3v2h-2.6v8.3h-2.1V100.4z"/>
	<path class="st2" d="M140.2,98.1h2.1v3.8c0.4-0.7,1.2-1.2,2-1.2c1.5,0,2.3,1,2.3,2.6v5.4h-2.1v-4.7c0-0.9-0.4-1.4-1.1-1.4
		s-1.1,0.5-1.1,1.4v4.7h-2.1V98.1z"/>
	<path class="st2" d="M147.9,104.8v-0.1c0-2.3,1.4-4,3.4-4c2.2,0,3.3,1.8,3.3,4.2c0,0.1,0,0.4,0,0.7h-4.7c0,0.9,0.8,1.6,1.7,1.6
		c0.6,0,1.2-0.3,1.6-0.8l1.1,1.2c-0.7,0.8-1.7,1.2-2.8,1.2c-2,0-3.7-1.6-3.7-3.6C147.9,105,147.9,104.9,147.9,104.8z M152.6,104.1
		c-0.1-1.1-0.5-1.7-1.3-1.7s-1.2,0.6-1.4,1.7H152.6z"/>
	<path class="st2" d="M159.3,104.6v-6.2h2.1v6.3c0,1.4,0.7,2.2,1.8,2.2c1.1,0,1.8-0.7,1.8-2.1v-6.3h2.1v6.2c0,2.8-1.5,4.2-3.9,4.2
		S159.3,107.4,159.3,104.6z"/>
	<path class="st2" d="M168.8,100.8h2.1v1.1c0.4-0.7,1.2-1.2,2-1.2c1.5,0,2.3,1,2.3,2.6v5.4h-2.1v-4.7c0-0.9-0.4-1.4-1.1-1.4
		c-0.7,0-1.1,0.5-1.1,1.4v4.7h-2.1V100.8z"/>
	<path class="st2" d="M176.8,98.1h2.2v1.9h-2.2V98.1z M176.8,100.8h2.1v7.9h-2.1V100.8z"/>
	<path class="st2" d="M180.1,100.8h2.2l1.5,5.2l1.5-5.2h2.1l-2.6,7.9h-1.9L180.1,100.8z"/>
	<path class="st2" d="M187.6,104.8v-0.1c0-2.3,1.4-4,3.4-4c2.2,0,3.3,1.8,3.3,4.2c0,0.1,0,0.4,0,0.7h-4.7c0,0.9,0.8,1.6,1.7,1.6
		c0.6,0,1.2-0.3,1.6-0.8l1.1,1.2c-0.7,0.8-1.7,1.2-2.8,1.2c-2,0-3.7-1.6-3.7-3.6C187.6,105,187.6,104.9,187.6,104.8z M192.4,104.1
		c-0.1-1.1-0.6-1.7-1.3-1.7s-1.2,0.6-1.4,1.7H192.4z"/>
	<path class="st2" d="M195.7,100.8h2.1v1.4c0.3-0.9,1.1-1.6,2.1-1.5v2.2h-0.1c-1.2,0-2,0.8-2,2.4v3.3h-2.1V100.8z"/>
	<path class="st2" d="M200.4,107.7l0.9-1.5c0.6,0.5,1.3,0.8,2.1,0.9c0.6,0,0.8-0.3,0.8-0.6l0,0c0-0.4-0.6-0.6-1.4-1
		c-1.1-0.5-2.1-1-2.1-2.4l0,0c0-1.3,1.1-2.4,2.4-2.4c0.1,0,0.2,0,0.3,0c0.9,0,1.8,0.3,2.6,0.8l-0.8,1.5c-0.5-0.4-1.1-0.6-1.8-0.7
		c-0.5,0-0.8,0.3-0.8,0.6l0,0c0,0.4,0.6,0.6,1.4,1c1.1,0.5,2.1,1.1,2.1,2.3l0,0c0,1.3-1.1,2.4-2.4,2.5c-0.1,0-0.2,0-0.4,0
		C202.3,108.7,201.3,108.3,200.4,107.7z"/>
	<path class="st2" d="M207.5,98.1h2.2v1.9h-2.2V98.1z M207.5,100.8h2.1v7.9h-2.1V100.8z"/>
	<path class="st2" d="M211.6,106.6v-4.1h-0.8v-1.8h0.8v-2h2.1v2h1.5v1.8h-1.5v3.6c0,0.5,0.2,0.7,0.6,0.7c0.3,0,0.6-0.1,0.9-0.2v1.6
		c-0.5,0.3-1,0.4-1.5,0.4C212.5,108.7,211.6,108.3,211.6,106.6z"/>
	<path class="st2" d="M221,100.8h2.1l-2.6,7.9c-0.5,1.6-1.1,2.2-2.3,2.2c-0.6,0-1.2-0.2-1.7-0.5l0.6-1.6c0.3,0.2,0.5,0.2,0.8,0.3
		c0.3,0,0.6-0.2,0.7-0.5l-2.7-7.8h2.2l1.5,5.2L221,100.8z"/>
	<path class="st2" d="M227.2,104.8v-0.2c-0.1-2.1,1.4-3.8,3.5-4c0.1,0,0.1,0,0.2,0c2,0,3.7,1.6,3.7,3.6c0,0.1,0,0.2,0,0.4v0.2
		c0,2-1.6,3.7-3.7,3.7C228.8,108.5,227.1,106.8,227.2,104.8L227.2,104.8z M232.5,104.8v-0.1c0-1.2-0.6-2.2-1.6-2.2s-1.6,0.9-1.6,2.2
		v0.1c0,1.2,0.7,2.2,1.7,2.2S232.5,106,232.5,104.8L232.5,104.8z"/>
	<path class="st2" d="M236.2,102.6h-0.8v-1.7h0.8v-0.5c0-0.6,0.2-1.3,0.6-1.7c0.5-0.4,1.1-0.6,1.7-0.6c0.4,0,0.9,0,1.3,0.2v1.7
		c-0.2-0.1-0.5-0.1-0.8-0.1c-0.5,0-0.8,0.2-0.8,0.8v0.3h1.6v1.7h-1.5v6.1h-2.1V102.6z"/>
	<path class="st2" d="M244.3,98.4h2.1v4.4l3.3-4.4h2.5l-3.4,4.3l3.6,5.9h-2.4l-2.6-4.2l-0.9,1.2v3h-2.1L244.3,98.4z"/>
	<path class="st2" d="M252.7,106.4L252.7,106.4c0-1.8,1.1-2.5,2.7-2.5c0.6,0,1.1,0.1,1.6,0.3v-0.2c0-0.9-0.5-1.4-1.5-1.4
		c-0.6,0-1.2,0.2-1.8,0.4l-0.6-1.7c0.8-0.4,1.7-0.7,2.7-0.6c1.5-0.2,3,0.9,3.2,2.4c0,0.3,0,0.5,0,0.8v4.8h-2v-0.9
		c-0.5,0.6-1.2,1-2,1c-1.2,0-2.2-0.9-2.3-2.2C252.7,106.5,252.7,106.5,252.7,106.4z M257.1,106v-0.7c-0.4-0.2-0.8-0.3-1.2-0.2
		c-0.8,0-1.2,0.4-1.2,1.1l0,0c0,0.5,0.3,0.9,0.8,1c0.1,0,0.1,0,0.2,0c0.7,0.1,1.3-0.3,1.4-1C257.1,106.2,257.1,106.1,257.1,106z"/>
	<path class="st2" d="M260.7,100.8h2.1v1.1c0.4-0.7,1.2-1.2,2-1.2c1.5,0,2.3,1,2.3,2.6v5.4H265v-4.7c0-0.9-0.4-1.4-1.1-1.4
		s-1.1,0.5-1.1,1.4v4.7h-2.1V100.8z"/>
	<path class="st2" d="M268.1,107.7l0.9-1.4c0.6,0.5,1.3,0.8,2.1,0.9c0.6,0,0.8-0.3,0.8-0.6l0,0c0-0.4-0.6-0.6-1.4-1
		c-1.1-0.5-2.1-1-2.1-2.4l0,0c0-1.3,1.1-2.4,2.4-2.4c0.1,0,0.2,0,0.3,0c0.9,0,1.8,0.3,2.6,0.8l-0.8,1.5c-0.5-0.4-1.1-0.6-1.8-0.7
		c-0.5,0-0.8,0.3-0.8,0.6l0,0c0,0.4,0.6,0.6,1.4,1c1.1,0.5,2.1,1.1,2.1,2.3l0,0c0,1.3-1.1,2.4-2.4,2.4c-0.1,0-0.2,0-0.3,0
		C270,108.7,268.9,108.4,268.1,107.7z"/>
	<path class="st2" d="M274.7,106.4L274.7,106.4c0-1.8,1.1-2.5,2.7-2.5c0.6,0,1.1,0.1,1.6,0.3v-0.2c0-0.9-0.5-1.4-1.5-1.4
		c-0.6,0-1.2,0.2-1.8,0.4l-0.6-1.7c0.8-0.4,1.7-0.7,2.7-0.6c1.5-0.2,3,0.9,3.2,2.4c0,0.2,0,0.5,0,0.7v4.8h-2v-0.9
		c-0.5,0.6-1.2,1-2,1c-1.2,0.1-2.3-0.9-2.3-2.1C274.7,106.6,274.7,106.5,274.7,106.4z M279,106v-0.7c-0.4-0.2-0.7-0.2-1.1-0.2
		c-0.8,0-1.2,0.4-1.2,1.1l0,0c0,0.5,0.3,0.9,0.8,1c0.1,0,0.1,0,0.2,0C278.4,107.3,279,106.8,279,106C279,106.1,279,106.1,279,106z"
		/>
	<path class="st2" d="M282,107.7l0.9-1.5c0.6,0.5,1.3,0.8,2.1,0.9c0.6,0,0.8-0.3,0.8-0.6l0,0c0-0.4-0.6-0.6-1.4-1
		c-1.1-0.5-2.1-1-2.1-2.4l0,0c0-1.3,1.1-2.4,2.4-2.4c0.1,0,0.2,0,0.3,0c0.9,0,1.8,0.3,2.6,0.8l-0.8,1.5c-0.5-0.4-1.1-0.6-1.8-0.7
		c-0.5,0-0.8,0.3-0.8,0.6l0,0c0,0.4,0.6,0.6,1.4,1c1.1,0.5,2.1,1.1,2.1,2.3l0,0c0,1.3-1.1,2.4-2.4,2.5c-0.1,0-0.2,0-0.4,0
		C283.9,108.7,282.9,108.3,282,107.7z"/>
	<path class="st3" d="M136,37c-0.1,0-0.1,0-0.2,0.2l-1,2.7c-0.2,0.4-0.3,0.7-0.3,1.1c0,0.3,0.2,0.6,0.8,0.6h0.3c0.2,0,0.3,0,0.3,0.2
		c0,0.2-0.1,0.2-0.3,0.2c-0.6,0-1.4-0.1-2-0.1c-0.2,0-1.2,0.1-2.2,0.1c-0.2,0-0.4,0-0.4-0.2c0-0.2,0.1-0.2,0.2-0.2
		c0.2,0,0.4,0,0.6,0c0.9-0.1,1.2-0.8,1.6-1.7l4.7-11.9c0.2-0.5,0.3-0.8,0.5-0.8s0.3,0.2,0.5,0.6c0.4,1,3.5,8.7,4.7,11.6
		c0.7,1.7,1.2,2,1.7,2.1c0.3,0.1,0.5,0.1,0.8,0.1c0.1,0,0.2,0,0.2,0.2c0,0.2-0.2,0.2-0.9,0.2s-2.1,0-3.6,0c-0.3,0-0.6,0-0.6-0.1
		c0-0.1,0.1-0.2,0.3-0.2c0.2-0.1,0.2-0.3,0.2-0.4c0,0,0,0,0,0l-1.5-4c0-0.1-0.1-0.1-0.1-0.1H136z M139.9,36.1c0.1,0,0.1,0,0.1-0.1
		l-1.7-4.6c0-0.1,0-0.2-0.1-0.2c-0.1,0-0.1,0.1-0.1,0.2l-1.7,4.6c0,0.1,0,0.1,0.1,0.1L139.9,36.1z"/>
	<path class="st3" d="M148.6,40.1c-1.6-1.4-2.4-3.5-2.3-5.6c0-2,0.8-3.8,2.2-5.2c1.6-1.4,3.8-2.2,6-2c0.9,0,1.8,0.1,2.7,0.2
		c0.7,0.1,1.3,0.3,1.9,0.3c0.2,0,0.3,0.1,0.3,0.2s-0.1,0.4-0.1,1c0,0.7,0,1.7,0,2c0,0.4,0,0.4-0.2,0.4c-0.2,0-0.2-0.1-0.2-0.4
		c0-0.6-0.3-1.3-0.7-1.7c-1.1-0.9-2.4-1.3-3.8-1.2c-1.3-0.1-2.6,0.4-3.5,1.2c-1.2,1.3-1.9,3.1-1.7,4.9c-0.2,3.5,2.4,6.5,5.9,6.8
		c0,0,0,0,0,0c1.7,0,2.7-0.2,3.4-1.1c0.3-0.4,0.5-0.8,0.6-1.2c0-0.3,0.1-0.4,0.2-0.4s0.2,0.1,0.2,0.3c-0.1,0.8-0.2,1.7-0.4,2.5
		c0,0.3-0.2,0.5-0.5,0.5c-1.1,0.3-2.2,0.5-3.4,0.4C152.7,42.4,150.4,41.6,148.6,40.1z"/>
	<path class="st3" d="M172.6,33.7c0,0,0.1,0,0.1-0.1v-0.4c0-2.9,0-3.4,0-4c0-0.6-0.2-0.9-0.8-1.1c-0.2,0-0.5-0.1-0.7-0.1
		c-0.2,0-0.3,0-0.3-0.2s0.1-0.2,0.4-0.2c1,0,2.2,0,2.7,0c0.5,0,1.6,0,2.4,0c0.3,0,0.4,0,0.4,0.2s-0.1,0.2-0.3,0.2
		c-0.2,0-0.4,0-0.5,0.1c-0.5,0.1-0.7,0.4-0.7,1.1c0,0.7,0,1.1,0,4v3.3c0,1.7,0,3.2,0.1,4c0,0.5,0.2,0.9,0.7,1c0.3,0,0.6,0.1,1,0.1
		c0.2,0,0.3,0.1,0.3,0.2s-0.2,0.2-0.4,0.2c-1.2,0-2.4-0.1-2.9-0.1s-1.6,0.1-2.4,0.1c-0.3,0-0.4-0.1-0.4-0.2s0.1-0.2,0.3-0.2
		c0.2,0,0.4,0,0.7-0.1c0.4-0.1,0.5-0.5,0.5-1c0.1-0.8,0.1-2.3,0.1-4v-1.7c0-0.1,0-0.1-0.1-0.1h-7.2c0,0-0.1,0-0.1,0.1v1.7
		c0,1.7,0,3.2,0.1,4c0.1,0.5,0.2,0.9,0.7,1c0.3,0,0.6,0.1,1,0.1c0.2,0,0.3,0.1,0.3,0.2s-0.1,0.2-0.4,0.2c-1.2,0-2.4-0.1-2.9-0.1
		s-1.6,0.1-2.4,0.1c-0.2,0-0.4-0.1-0.4-0.2s0.1-0.2,0.3-0.2c0.2,0,0.5,0,0.7-0.1c0.4-0.1,0.5-0.5,0.5-1c0.1-0.8,0.1-2.3,0.1-4v-3.3
		c0-2.9,0-3.4,0-4c0-0.6-0.2-0.9-0.8-1.1c-0.2,0-0.5-0.1-0.7-0.1c-0.2,0-0.3,0-0.3-0.2s0.1-0.2,0.4-0.2c1,0,2.2,0,2.7,0s1.6,0,2.4,0
		c0.3,0,0.4,0,0.4,0.2S167,28,166.8,28c-0.2,0-0.4,0-0.5,0.1c-0.5,0.1-0.7,0.4-0.7,1.1c0,0.7,0,1.1,0,4v0.4c0,0.1,0.1,0.1,0.1,0.1
		H172.6z"/>
	<path class="st3" d="M180.4,33.1c0-2.9,0-3.4,0-4c0-0.6-0.2-1-0.6-1.1c-0.2,0-0.4-0.1-0.7-0.1c-0.2,0-0.3,0-0.3-0.2
		c0-0.2,0.1-0.1,0.4-0.1c0.7,0,1.9,0,2.4,0s1.6,0,2.3,0c0.2,0,0.4,0,0.4,0.1c0,0.1-0.1,0.2-0.3,0.2c-0.2,0-0.4,0-0.6,0.1
		c-0.5,0.1-0.7,0.4-0.7,1.1c0,0.7,0,1.1,0,4v3.3c0,1.8,0,3.3,0.1,4.1c0,0.5,0.2,0.9,0.8,0.9c0.3,0,0.6,0.1,1,0.1
		c0.2,0,0.3,0.1,0.3,0.2s-0.2,0.2-0.4,0.2c-1.2,0-2.4-0.1-2.9-0.1s-1.6,0.1-2.4,0.1c-0.2,0-0.4-0.1-0.4-0.2s0.1-0.2,0.3-0.2
		c0.2,0,0.4,0,0.7-0.1c0.4-0.1,0.5-0.4,0.5-0.9c0.1-0.8,0.1-2.3,0.1-4.1L180.4,33.1z"/>
	<path class="st3" d="M188.4,33.1c0-2.9,0-3.4,0-4c0-0.6-0.2-0.9-0.8-1.1c-0.2,0-0.5-0.1-0.7-0.1c-0.2,0-0.3,0-0.3-0.2
		s0.1-0.2,0.4-0.2h1.5h1.2c0.6,0,4.3,0,4.7,0c0.3,0,0.5-0.1,0.8-0.1c0.1,0,0.2-0.1,0.3-0.1c0.1,0,0.1,0.1,0.1,0.2
		c-0.1,0.4-0.1,0.8-0.1,1.2c0,0.2-0.1,1-0.1,1.2c0,0.2-0.1,0.2-0.2,0.2c-0.1,0-0.2-0.1-0.2-0.3c0-0.2,0-0.5-0.1-0.7
		c-0.1-0.3-0.3-0.6-1.2-0.7c-0.3,0-2.3-0.1-2.7-0.1c-0.1,0-0.1,0.1-0.1,0.2v4.8c0,0.1,0,0.2,0.1,0.2c0.4,0,2.6,0,3,0
		c0.3,0,0.7-0.1,0.9-0.3c0.1-0.2,0.2-0.2,0.3-0.2s0.1,0,0.1,0.1c0,0.1-0.1,0.4-0.1,1.4c0,0.4-0.1,1.1-0.1,1.2s0,0.4-0.2,0.4
		c-0.2,0-0.2-0.1-0.2-0.2s0-0.4-0.1-0.7c-0.1-0.2-0.4-0.7-1.1-0.7c-0.4,0-2.2,0-2.7,0c-0.1,0-0.1,0.1-0.1,0.2v1.5c0,0.6,0,2.4,0,2.9
		c0,1.3,0.3,1.6,2.3,1.6c0.6,0,1.2,0,1.8-0.2c0.5-0.2,0.7-0.6,0.9-1.4c0-0.2,0.1-0.3,0.2-0.3c0.1,0,0.1,0.2,0.1,0.3
		c0,0.7-0.1,1.4-0.2,2.1c-0.1,0.5-0.3,0.5-1,0.5c-1.4,0-2.4,0-3.3,0c-0.8,0-1.5-0.1-2.1-0.1h-1.1h-1.3c-0.2,0-0.4-0.1-0.4-0.2
		s0.1-0.2,0.3-0.2c0.2,0,0.4,0,0.7-0.1c0.4-0.1,0.5-0.5,0.5-1c0.1-0.8,0.1-2.3,0.1-4V33.1z"/>
	<path class="st3" d="M198.9,29.5c-0.4-1-0.8-1.2-1.4-1.4c-0.2-0.1-0.5-0.1-0.7-0.1c-0.2,0-0.2-0.1-0.2-0.2s0.2-0.2,0.5-0.2
		c1,0,2.1,0,2.7,0s1.4,0,2.3,0c0.2,0,0.4,0,0.4,0.2s-0.1,0.2-0.3,0.2c-0.3,0-0.5,0-0.7,0.1c-0.1,0.1-0.2,0.2-0.2,0.4
		c0.1,0.5,0.2,1,0.4,1.5l3.2,8.5h0.1c0.8-2.1,3.3-8.1,3.7-9.4c0.1-0.2,0.1-0.5,0.2-0.7c0-0.2-0.1-0.3-0.2-0.4
		c-0.2-0.1-0.5-0.1-0.8-0.1c-0.2,0-0.3,0-0.3-0.1c0-0.1,0.2-0.2,0.5-0.2c0.9,0,1.7,0,2,0c0.2,0,1.2,0,1.8,0c0.2,0,0.4,0,0.4,0.2
		S212.2,28,212,28c-0.3,0-0.6,0.1-0.9,0.2c-0.3,0.2-0.5,0.5-1,1.7c-0.7,1.8-1.2,2.8-2.3,5.1c-1.2,2.8-2.1,4.9-2.5,5.7
		c-0.4,0.9-0.6,1.4-0.9,1.4s-0.4-0.3-0.7-1.2L198.9,29.5z"/>
	<path class="st3" d="M214.6,33.1c0-2.9,0-3.4,0-4c0-0.6-0.2-0.9-0.8-1.1c-0.2,0-0.5-0.1-0.7-0.1c-0.2,0-0.3,0-0.3-0.2
		s0.1-0.2,0.4-0.2h1.5h1.2c0.6,0,4.3,0,4.7,0c0.3,0,0.5-0.1,0.8-0.1c0.1,0,0.2,0,0.3,0c0.1,0,0.1,0.1,0.1,0.2
		c-0.1,0.4-0.1,0.8-0.1,1.2c0,0.2-0.1,1-0.1,1.2c0,0.2,0,0.2-0.2,0.2s-0.2-0.1-0.2-0.3c0-0.2,0-0.5-0.1-0.7
		c-0.1-0.3-0.3-0.6-1.2-0.7c-0.3,0-2.3-0.1-2.7-0.1c-0.1,0-0.1,0.1-0.1,0.2v4.8c0,0.1,0,0.2,0.1,0.2c0.4,0,2.6,0,3,0
		c0.3,0,0.7-0.1,0.9-0.3c0.1-0.2,0.2-0.2,0.3-0.2c0.1,0,0.1,0,0.1,0.1c-0.1,0.5-0.1,0.9-0.1,1.4c0,0.4-0.1,1.1-0.1,1.2
		s0,0.4-0.2,0.4c-0.2,0-0.2-0.1-0.2-0.2s0-0.4-0.1-0.7c-0.1-0.2-0.4-0.7-1.1-0.7c-0.4,0-2.2,0-2.7,0c-0.1,0-0.1,0.1-0.1,0.2v1.5
		c0,0.6,0,2.4,0,2.9c0,1.3,0.3,1.6,2.3,1.6c0.6,0,1.2,0,1.8-0.2c0.5-0.2,0.7-0.6,0.9-1.4c0-0.2,0.1-0.3,0.2-0.3
		c0.1,0,0.1,0.2,0.1,0.3c0,0.7-0.1,1.4-0.2,2.1c-0.1,0.5-0.3,0.5-1,0.5c-1.4,0-2.4,0-3.3,0s-1.4-0.1-2-0.1h-1.1h-1.3
		c-0.3,0-0.4-0.1-0.4-0.2s0.1-0.2,0.3-0.2c0.2,0,0.5,0,0.7-0.1c0.4-0.1,0.5-0.5,0.5-1c0.1-0.8,0.1-2.3,0.1-4L214.6,33.1z"/>
	<path class="st3" d="M227,27.8c0.1-0.3,0.2-0.5,0.3-0.5s0.3,0.1,0.5,0.6l5.1,10.6l5.1-10.7c0.1-0.3,0.2-0.4,0.4-0.4
		c0.2,0,0.3,0.2,0.3,0.6l1.7,11.6c0.2,1.2,0.4,1.7,0.9,1.9c0.4,0.1,0.8,0.2,1.2,0.2c0.2,0,0.3,0,0.3,0.1c0,0.1-0.2,0.2-0.5,0.2
		c-0.5,0-3.1-0.1-3.8-0.1c-0.4,0-0.5-0.1-0.5-0.2c0-0.1,0.1-0.2,0.2-0.2c0.1,0,0.2-0.3,0.1-0.8l-1.1-8.3h-0.1l-4.1,8.5
		c-0.4,0.9-0.5,1.1-0.7,1.1s-0.4-0.4-0.7-0.9c-0.4-0.9-1.9-3.7-2.2-4.3s-1.3-2.8-2-4.2h-0.1l-1,7.5c0,0.3,0,0.6,0,0.9
		c0,0.4,0.2,0.5,0.6,0.6c0.3,0.1,0.5,0.1,0.8,0.1c0.1,0,0.3,0,0.3,0.1s-0.2,0.2-0.4,0.2c-0.8,0-1.6-0.1-2-0.1
		c-0.3,0-1.2,0.1-1.9,0.1c-0.2,0-0.3,0-0.3-0.2s0.1-0.1,0.3-0.1c0.2,0,0.4,0,0.6,0c0.5-0.1,0.7-0.9,0.8-1.5L227,27.8z"/>
	<path class="st3" d="M244.9,33.1c0-2.9,0-3.4,0-4c0-0.6-0.2-0.9-0.8-1.1c-0.2,0-0.5-0.1-0.7-0.1c-0.2,0-0.3,0-0.3-0.2
		s0.1-0.2,0.4-0.2h1.5h1.2c0.6,0,4.3,0,4.7,0c0.3,0,0.5-0.1,0.8-0.1c0.1,0,0.2,0,0.3,0c0.1,0,0.1,0.1,0.1,0.2
		c-0.1,0.4-0.1,0.8-0.1,1.2c0,0.2,0,1-0.1,1.2c-0.1,0.2-0.1,0.2-0.2,0.2s-0.2-0.1-0.2-0.3c0-0.2,0-0.5-0.1-0.7
		c-0.1-0.3-0.3-0.6-1.2-0.7c-0.3,0-2.3-0.1-2.7-0.1c-0.1,0-0.1,0.1-0.1,0.2v4.8c0,0.1,0,0.2,0.1,0.2c0.4,0,2.6,0,3,0
		s0.7-0.1,0.9-0.3c0.2-0.2,0.2-0.2,0.3-0.2c0.1,0,0.1,0,0.1,0.1c-0.1,0.5-0.1,0.9-0.1,1.4c0,0.4-0.1,1.1-0.1,1.2s0,0.4-0.2,0.4
		c-0.2,0-0.2-0.1-0.2-0.2c0-0.2,0-0.4-0.1-0.7c-0.1-0.4-0.4-0.7-1-0.7c-0.4,0-2.2,0-2.7,0c-0.1,0-0.1,0.1-0.1,0.2v1.5
		c0,0.6,0,2.4,0,2.9c0,1.3,0.3,1.6,2.3,1.6c0.6,0,1.2,0,1.8-0.2c0.5-0.2,0.7-0.6,0.9-1.4c0-0.2,0.1-0.3,0.2-0.3
		c0.1,0,0.1,0.2,0.1,0.3c0,0.7-0.1,1.4-0.2,2.1c-0.1,0.5-0.3,0.5-1,0.5c-1.4,0-2.4,0-3.3,0c-0.8,0-1.4-0.1-2-0.1h-1.1
		c-0.4,0-0.9,0-1.3,0s-0.4-0.1-0.4-0.2s0.1-0.2,0.3-0.2c0.2,0,0.5,0,0.7-0.1c0.4-0.1,0.5-0.5,0.5-1c0.1-0.8,0.1-2.3,0.1-4
		L244.9,33.1z"/>
	<path class="st3" d="M257.4,39.4c0,1.5,0.3,2,0.7,2.1c0.3,0.1,0.6,0.1,1,0.1c0.2,0,0.3,0,0.3,0.2c0,0.2-0.2,0.2-0.4,0.2
		c-1.2,0-2-0.1-2.3-0.1s-1.1,0.1-2,0.1c-0.2,0-0.4,0-0.4-0.2s0.1-0.2,0.3-0.2c0.3,0,0.6,0,0.9-0.1c0.5-0.1,0.6-0.7,0.6-2.3l0.2-11.2
		c0-0.4,0-0.6,0.2-0.6s0.4,0.2,0.7,0.6c0.3,0.3,3.1,3.3,5.8,6.1c1.3,1.3,3.8,4,4.1,4.3h0.1l-0.2-8.5c0-1.2-0.2-1.5-0.6-1.7
		c-0.3-0.1-0.7-0.1-1-0.1c-0.2,0-0.3-0.1-0.3-0.2s0.2-0.2,0.5-0.2c1,0,1.9,0,2.3,0c0.4,0,0.9,0,1.8,0c0.2,0,0.4,0,0.4,0.2
		s-0.1,0.2-0.3,0.2c-0.2,0-0.4,0-0.6,0.1c-0.5,0.1-0.7,0.5-0.7,1.6l-0.2,11.9c0,0.4-0.1,0.6-0.2,0.6s-0.4-0.2-0.6-0.4
		c-1.2-1.1-3.6-3.6-5.6-5.5c-1.9-1.9-4.1-4.4-4.5-4.7l0,0L257.4,39.4z"/>
	<path class="st3" d="M276.6,28.7l-2.8,0.1c-1.1,0-1.5,0.1-1.8,0.5c-0.1,0.2-0.3,0.4-0.3,0.7c0,0.2-0.1,0.2-0.2,0.2
		s-0.2-0.1-0.2-0.3s0.4-2,0.4-2.2c0-0.1,0.1-0.4,0.2-0.4c0.3,0.1,0.5,0.2,0.8,0.2c0.6,0.1,1.3,0.1,1.9,0.1h7.5c0.4,0,0.9,0,1.3-0.1
		c0.2,0,0.3-0.1,0.5-0.1c0.1,0,0.1,0.1,0.1,0.4c0,0.3,0,1.7,0,2.2c0,0.2,0,0.3-0.2,0.3c-0.2,0-0.2-0.1-0.2-0.4v-0.2
		c0-0.5-0.5-1-2.2-1l-2.4-0.1v7.7c0,1.7,0,3.2,0.1,4c0,0.5,0.2,0.9,0.7,1c0.3,0,0.6,0.1,1,0.1c0.2,0,0.3,0.1,0.3,0.2
		s-0.2,0.2-0.4,0.2c-1.2,0-2.4-0.1-3-0.1c-0.5,0-1.6,0.1-2.4,0.1c-0.3,0-0.4-0.1-0.4-0.2s0.1-0.2,0.3-0.2c0.2,0,0.5,0,0.7-0.1
		c0.4-0.1,0.5-0.5,0.5-1c0.1-0.8,0.1-2.3,0.1-4L276.6,28.7z"/>
	<path class="st3" d="M136.4,53.6c-0.6-0.8-1-1.7-1-2.7c0-1.5,1.3-3.5,4.6-3.5c0.8,0,1.6,0.1,2.3,0.4c0.3,0.1,0.3,0.3,0.3,0.5
		c0,0.8-0.1,1.6-0.2,2.4c0,0.3-0.1,0.3-0.2,0.3c-0.1,0-0.1-0.1-0.1-0.4c0-0.6-0.2-1.1-0.5-1.6c-0.5-0.6-1.3-0.9-2.1-0.8
		c-1.1,0-2,0.9-2,2c0,0,0,0.1,0,0.1c0,1.8,1.6,3.3,3.1,5c0.6,0.7,3,2.8,3.3,3.1c0.6-0.9,0.9-1.9,0.9-2.9c0-0.3-0.1-0.6-0.4-0.9
		c-0.3-0.2-0.6-0.3-0.9-0.3c-0.1,0-0.2,0-0.2-0.2s0.2-0.2,0.3-0.2c0.8,0,1.5,0,2.3,0.1c0.4,0,0.6,0.1,0.6,0.4
		c-0.1,1.6-0.8,3.2-1.8,4.5c0.8,0.7,1.7,1.3,2.6,1.8c0.6,0.3,1.3,0.6,2,0.7c0.2,0,0.3,0,0.3,0.2c0,0.2-0.1,0.2-0.6,0.2h-1.5
		c-1.6,0.2-3.2-0.3-4.4-1.4c-1.2,1.2-2.8,1.8-4.5,1.7c-4,0-5.2-2.5-5.2-4.2C133.5,56.2,134.6,54.5,136.4,53.6z M142.2,59.9
		c-1.1-0.9-2.9-2.7-3.4-3.2c-0.5-0.5-1.7-1.9-2-2.4c-0.9,0.7-1.4,1.7-1.3,2.9c-0.1,2,1.4,3.7,3.4,3.9c0.1,0,0.2,0,0.2,0
		C140.3,61,141.4,60.6,142.2,59.9z"/>
	<path class="st3" d="M157.5,57c-0.1,0-0.1,0-0.2,0.2l-1,2.7c-0.2,0.4-0.3,0.7-0.3,1.1c0,0.3,0.2,0.6,0.8,0.6h0.3
		c0.2,0,0.3,0,0.3,0.2S157.2,62,157,62c-0.6,0-1.4,0-2,0c-0.2,0-1.2,0-2.2,0c-0.2,0-0.4,0-0.4-0.2c0-0.2,0.1-0.2,0.2-0.2
		c0.2,0,0.4,0,0.6,0c0.9-0.1,1.2-0.8,1.6-1.7l4.7-11.8c0.2-0.5,0.3-0.8,0.5-0.8c0.2,0,0.3,0.2,0.5,0.6c0.4,1,3.5,8.7,4.7,11.6
		c0.7,1.7,1.2,2,1.7,2.1c0.3,0.1,0.5,0.1,0.8,0.1c0.2,0,0.3,0,0.3,0.2s-0.2,0.2-0.9,0.2c-0.7,0-2.1,0-3.6,0c-0.3,0-0.6,0-0.6-0.1
		s0.1-0.2,0.3-0.2c0.2-0.1,0.2-0.3,0.2-0.4c0,0,0,0,0,0l-1.5-4c0-0.1-0.1-0.1-0.2-0.1L157.5,57z M161.3,56.1c0.1,0,0.1,0,0.1-0.1
		l-1.7-4.7c0-0.1,0-0.2-0.1-0.2c-0.1,0-0.1,0.1-0.1,0.2l-1.7,4.6c0,0.1,0,0.1,0.1,0.1H161.3z"/>
	<path class="st3" d="M168.9,61.7c-0.3-0.1-0.4-0.2-0.4-0.6c0-1,0.1-2.2,0.1-2.4c0-0.3,0.1-0.5,0.2-0.5c0.1,0,0.2,0.2,0.2,0.3
		c0,0.3,0.1,0.6,0.2,1c0.4,1.2,1.5,1.9,2.7,1.8c1.3,0.1,2.4-0.8,2.5-2c0,0,0-0.1,0-0.1c0-0.9-0.3-1.8-1.8-3l-0.9-0.7
		c-2.1-1.6-2.8-2.9-2.8-4.5c0-2.1,1.7-3.6,4.3-3.6c0.8,0,1.7,0.1,2.5,0.3c0.2,0,0.3,0.1,0.3,0.2c0,0.1-0.1,0.8-0.1,2.3
		c0,0.4,0,0.6-0.2,0.6c-0.2,0-0.2-0.1-0.2-0.3c0-0.4-0.2-0.9-0.5-1.2c-0.5-0.6-1.3-1-2.1-0.9c-1.1-0.1-2.1,0.6-2.2,1.7
		c0,0.1,0,0.2,0,0.2c0,0.9,0.4,1.5,2,2.7l0.5,0.4c2.3,1.7,3.1,3,3.1,4.9c0,1.3-0.7,2.6-1.8,3.3c-0.9,0.5-1.9,0.8-3,0.8
		C170.7,62.3,169.8,62.1,168.9,61.7z"/>
	<path class="st3" d="M179,61.7c-0.3-0.1-0.4-0.2-0.4-0.6c0-1,0.1-2.2,0.1-2.4c0-0.3,0.1-0.5,0.2-0.5s0.2,0.2,0.2,0.3
		c0,0.3,0.1,0.6,0.2,1c0.4,1.2,1.5,1.9,2.7,1.8c1.3,0.1,2.4-0.8,2.5-2c0,0,0-0.1,0-0.1c0-0.9-0.3-1.8-1.8-3l-0.9-0.7
		c-2.1-1.6-2.8-2.9-2.8-4.5c0-2.1,1.7-3.6,4.3-3.6c0.8,0,1.7,0.1,2.5,0.3c0.2,0,0.3,0.1,0.3,0.2c0,0.1-0.1,0.8-0.1,2.3
		c0,0.4-0.1,0.6-0.2,0.6s-0.2-0.1-0.2-0.3c0-0.4-0.2-0.9-0.5-1.2c-0.5-0.6-1.3-1-2.1-0.9c-1.1-0.1-2.1,0.6-2.2,1.7
		c0,0.1,0,0.2,0,0.2c0,0.9,0.4,1.5,2,2.7l0.5,0.4c2.3,1.7,3.1,3,3.1,4.9c0,1.3-0.7,2.6-1.8,3.3c-0.9,0.5-1.9,0.8-3,0.8
		C180.8,62.3,179.9,62.1,179,61.7z"/>
	<path class="st3" d="M189.9,53.2c0-2.9,0-3.4,0-4s-0.2-0.9-0.8-1.1c-0.2,0-0.5-0.1-0.7-0.1c-0.2,0-0.3,0-0.3-0.2
		c0-0.2,0.1-0.2,0.4-0.2h1.5h1.2c0.6,0,4.3,0,4.7,0c0.3,0,0.5-0.1,0.8-0.1c0.1,0,0.2-0.1,0.3-0.1c0.1,0,0.1,0.1,0.1,0.2
		s-0.1,0.4-0.1,1.2c0,0.2,0,1-0.1,1.2c-0.1,0.2,0,0.2-0.2,0.2s-0.2-0.1-0.2-0.3c0-0.2,0-0.5-0.1-0.7c-0.1-0.3-0.3-0.6-1.2-0.7
		c-0.3,0-2.3-0.1-2.7-0.1c-0.1,0-0.1,0.1-0.1,0.2v4.8c0,0.1,0,0.2,0.1,0.2c0.4,0,2.6,0,3,0c0.3,0,0.6-0.1,0.9-0.3
		c0.1-0.2,0.2-0.2,0.3-0.2c0.1,0,0.1,0,0.1,0.1c-0.1,0.5-0.1,0.9-0.2,1.4c0,0.4-0.1,1.1-0.1,1.2c0,0.1,0,0.4-0.2,0.4
		c-0.2,0-0.3,0-0.3-0.1c0-0.2,0-0.4-0.1-0.7c-0.1-0.4-0.4-0.7-1.1-0.7c-0.4,0-2.2,0-2.7,0c-0.1,0-0.1,0.1-0.1,0.2v1.5
		c0,0.6,0,2.4,0,2.9c0,1.3,0.3,1.6,2.3,1.6c0.6,0,1.2,0,1.8-0.2c0.5-0.2,0.7-0.6,0.9-1.4c0-0.2,0.1-0.3,0.2-0.3
		c0.1,0,0.2,0.2,0.2,0.3c0,0.7-0.1,1.4-0.2,2.1c-0.1,0.5-0.3,0.5-1,0.5c-1.4,0-2.4,0-3.3-0.1c-0.8-0.1-1.4,0-2,0h-1.1h-1.3
		c-0.2,0-0.4,0-0.4-0.2c0-0.2,0.1-0.2,0.3-0.2c0.2,0,0.5,0,0.7-0.1c0.4-0.1,0.5-0.5,0.5-1c0.1-0.8,0.1-2.3,0.1-4L189.9,53.2z"/>
	<path class="st3" d="M200,61.7c-0.3-0.1-0.4-0.2-0.4-0.6c0-1,0.1-2.2,0.1-2.4c0-0.3,0.1-0.5,0.2-0.5c0.2,0,0.2,0.2,0.2,0.3
		c0,0.3,0.1,0.6,0.2,1c0.4,1.2,1.5,1.9,2.7,1.8c1.3,0.1,2.4-0.8,2.5-2c0,0,0-0.1,0-0.1c0-0.9-0.3-1.8-1.8-3l-0.9-0.7
		c-2.1-1.6-2.8-2.9-2.8-4.5c0-2.1,1.7-3.6,4.3-3.6c0.8,0,1.7,0.1,2.5,0.3c0.2,0,0.3,0.1,0.3,0.2c0,0.1-0.1,0.8-0.1,2.3
		c0,0.4-0.1,0.6-0.2,0.6s-0.2-0.1-0.2-0.3c0-0.4-0.2-0.9-0.5-1.2c-0.5-0.6-1.3-1-2.1-0.9c-1.1-0.1-2.1,0.6-2.2,1.7
		c0,0.1,0,0.2,0,0.2c0,0.9,0.4,1.5,2,2.7l0.5,0.4c2.3,1.7,3.1,3,3.1,4.9c0,1.3-0.7,2.6-1.8,3.3c-0.9,0.5-1.9,0.8-3,0.8
		C201.8,62.3,200.9,62.1,200,61.7z"/>
	<path class="st3" d="M210.1,61.7c-0.3-0.1-0.4-0.2-0.4-0.6c0-1,0.1-2.2,0.1-2.4c0-0.3,0.1-0.5,0.2-0.5s0.2,0.2,0.2,0.3
		c0,0.3,0.1,0.6,0.2,1c0.4,1.2,1.5,1.9,2.7,1.8c1.3,0.1,2.4-0.8,2.5-2c0,0,0-0.1,0-0.1c0-0.9-0.3-1.8-1.8-3l-0.9-0.7
		c-2.1-1.6-2.8-2.9-2.8-4.5c0-2.1,1.7-3.6,4.3-3.6c0.8,0,1.7,0.1,2.5,0.3c0.2,0,0.3,0.1,0.3,0.2c0,0.1-0.1,0.8-0.1,2.3
		c0,0.4,0,0.6-0.2,0.6c-0.2,0-0.2-0.1-0.2-0.3c0-0.4-0.2-0.9-0.5-1.2c-0.5-0.6-1.3-1-2.1-0.9c-1.1-0.1-2.1,0.6-2.2,1.7
		c0,0.1,0,0.1,0,0.2c0,0.9,0.4,1.5,2,2.7l0.5,0.4c2.3,1.7,3.1,3,3.1,4.9c0,1.3-0.7,2.6-1.8,3.3c-0.9,0.5-1.9,0.8-3,0.8
		C211.9,62.3,211,62.1,210.1,61.7z"/>
	<path class="st3" d="M221.9,47.8c0-0.3,0.2-0.5,0.3-0.5s0.3,0.1,0.5,0.6l5.2,10.6l5.1-10.7c0.1-0.3,0.2-0.4,0.4-0.4
		c0.2,0,0.3,0.2,0.3,0.6l1.7,11.6c0.2,1.2,0.4,1.7,0.9,1.9c0.4,0.1,0.8,0.2,1.2,0.2c0.2,0,0.3,0,0.3,0.1c0,0.1-0.2,0.2-0.5,0.2
		c-0.5,0-3.1,0-3.8-0.1c-0.4,0-0.5-0.1-0.5-0.2s0.1-0.2,0.2-0.2c0.1,0,0.2-0.3,0.1-0.8l-1.1-8.3h-0.1l-4.1,8.5
		c-0.4,0.9-0.5,1.1-0.7,1.1c-0.2,0-0.4-0.4-0.7-0.9c-0.4-0.9-1.9-3.7-2.2-4.3c-0.2-0.5-1.3-2.8-2-4.2h-0.1l-1,7.6
		c0,0.3-0.1,0.6-0.1,0.9c0,0.4,0.2,0.5,0.6,0.6c0.3,0.1,0.5,0.1,0.8,0.1c0.1,0,0.3,0,0.3,0.1c0,0.1-0.2,0.2-0.4,0.2
		c-0.8,0-1.6,0-2,0s-1.2,0-1.9,0c-0.2,0-0.3,0-0.3-0.2s0.1-0.1,0.3-0.1c0.2,0,0.4,0,0.6,0c0.5-0.1,0.7-0.9,0.8-1.5L221.9,47.8z"/>
	<path class="st3" d="M239,53.2c0-2.9,0-3.4,0-4s-0.2-0.9-0.8-1.1c-0.2,0-0.5-0.1-0.7-0.1c-0.2,0-0.3,0-0.3-0.2
		c0-0.2,0.1-0.2,0.4-0.2h1.5h1.2c0.6,0,4.3,0,4.7,0c0.3,0,0.5-0.1,0.8-0.1c0.1,0,0.2-0.1,0.3-0.1c0.1,0,0.1,0.1,0.1,0.2
		c-0.1,0.4-0.1,0.8-0.1,1.2c0,0.2,0,1-0.1,1.2c-0.1,0.2-0.1,0.2-0.2,0.2c-0.1,0-0.2-0.1-0.2-0.3c0-0.2,0-0.5-0.1-0.7
		c-0.1-0.3-0.3-0.6-1.2-0.7c-0.3,0-2.3-0.1-2.7-0.1c-0.1,0-0.1,0.1-0.1,0.2v4.8c0,0.1,0,0.2,0.1,0.2c0.4,0,2.6,0,3,0
		c0.3,0,0.7-0.1,0.9-0.3c0.1-0.2,0.2-0.2,0.3-0.2c0.1,0,0.1,0,0.1,0.1s-0.1,0.4-0.1,1.4c0,0.4-0.1,1.1-0.1,1.2c0,0.1,0,0.4-0.2,0.4
		c-0.2,0-0.2-0.1-0.2-0.2c0-0.1,0-0.4-0.1-0.7s-0.4-0.7-1.1-0.7c-0.4,0-2.2,0-2.7,0c-0.1,0-0.1,0.1-0.1,0.2v1.5c0,0.6,0,2.4,0,2.9
		c0,1.3,0.3,1.6,2.3,1.6c0.6,0,1.2,0,1.8-0.2c0.5-0.2,0.7-0.6,0.9-1.4c0-0.2,0.1-0.3,0.2-0.3c0.1,0,0.1,0.2,0.1,0.3
		c0,0.7-0.1,1.4-0.2,2.1c-0.1,0.5-0.3,0.5-1,0.5c-1.4,0-2.4,0-3.3-0.1c-0.8-0.1-1.4,0-2,0h-1.1h-1.3c-0.2,0-0.4,0-0.4-0.2
		s0.1-0.2,0.3-0.2c0.2,0,0.4,0,0.7-0.1c0.4-0.1,0.5-0.5,0.5-1c0.1-0.8,0.1-2.3,0.1-4L239,53.2z"/>
	<path class="st3" d="M251.5,59.4c0,1.5,0.3,2,0.7,2.1c0.3,0.1,0.7,0.1,1,0.1c0.2,0,0.3,0,0.3,0.2c0,0.2-0.2,0.2-0.4,0.2
		c-1.2,0-2,0-2.3,0c-0.4,0-1.1,0-2,0c-0.3,0-0.4,0-0.4-0.2c0-0.2,0.1-0.2,0.3-0.2c0.3,0,0.6,0,0.9-0.1c0.5-0.1,0.6-0.7,0.6-2.3
		l0.2-11.2c0-0.4,0.1-0.6,0.2-0.6s0.4,0.2,0.7,0.6c0.3,0.3,3.1,3.3,5.8,6.1c1.3,1.3,3.8,4,4.1,4.3h0.1l-0.2-8.5
		c0-1.2-0.2-1.5-0.6-1.7c-0.3-0.1-0.7-0.1-1-0.1c-0.2,0-0.3-0.1-0.3-0.2c0-0.1,0.2-0.2,0.5-0.2c1,0,1.9,0.1,2.3,0.1
		c0.2,0,0.9-0.1,1.8-0.1c0.2,0,0.4,0,0.4,0.2c0,0.2-0.1,0.2-0.3,0.2c-0.2,0-0.4,0-0.6,0.1c-0.5,0.1-0.7,0.5-0.7,1.6l-0.2,11.9
		c0,0.4-0.1,0.6-0.2,0.6s-0.4-0.2-0.6-0.4c-1.2-1.1-3.6-3.6-5.6-5.5c-1.9-1.9-4.1-4.4-4.5-4.7l0,0L251.5,59.4z"/>
	<path class="st3" d="M270.3,48.8l-2.8,0.1c-1.1,0-1.6,0.1-1.8,0.5c-0.1,0.2-0.2,0.4-0.3,0.7c0,0.2-0.1,0.2-0.2,0.2
		c-0.1,0-0.2-0.1-0.2-0.3s0.4-2.1,0.4-2.2s0.1-0.4,0.2-0.4c0.3,0.1,0.5,0.2,0.8,0.2c0.6,0.1,1.3,0.1,1.9,0.1h7.5
		c0.4,0,0.9,0,1.3-0.1c0.2,0,0.3-0.1,0.5-0.1c0.1,0,0.2,0.1,0.2,0.4c0,0.3,0,1.7,0,2.2c0,0.2-0.1,0.3-0.2,0.3s-0.2-0.1-0.2-0.4v-0.2
		c0-0.5-0.5-1-2.2-1l-2.4-0.1v7.7c0,1.7,0,3.2,0.1,4c0,0.5,0.2,0.9,0.7,1c0.3,0,0.6,0.1,1,0.1c0.2,0,0.3,0,0.3,0.2
		c0,0.2-0.1,0.2-0.4,0.2c-1.2,0-2.4,0-3,0s-1.6,0-2.4,0c-0.2,0-0.4,0-0.4-0.2c0-0.2,0.1-0.2,0.3-0.2c0.2,0,0.5,0,0.7-0.1
		c0.4-0.1,0.5-0.5,0.5-1c0.1-0.8,0.1-2.3,0.1-4L270.3,48.8z"/>
	<path class="st3" d="M135.3,73.2c0-2.9,0-3.4,0-4s-0.2-1-0.6-1.1c-0.2,0-0.4-0.1-0.7-0.1c-0.2,0-0.3,0-0.3-0.2s0.1-0.1,0.4-0.1
		c0.7,0,1.9,0,2.4,0c0.5,0,1.6,0,2.3,0c0.2,0,0.4,0,0.4,0.1c0,0.1-0.1,0.2-0.3,0.2c-0.2,0-0.4,0-0.6,0.1c-0.5,0.1-0.7,0.4-0.7,1.1
		c0,0.7,0,1.1,0,4v3.3c0,1.8,0,3.3,0.1,4.1c0,0.5,0.2,0.9,0.8,0.9c0.3,0,0.6,0.1,1,0.1c0.2,0,0.3,0,0.3,0.2c0,0.2-0.2,0.2-0.4,0.2
		c-1.2,0-2.4-0.1-2.9-0.1S134.8,82,134,82c-0.2,0-0.4-0.1-0.4-0.2s0.1-0.2,0.3-0.2c0.2,0,0.5,0,0.7-0.1c0.4-0.1,0.5-0.4,0.5-0.9
		c0.1-0.8,0.1-2.3,0.1-4.1L135.3,73.2z"/>
	<path class="st3" d="M143.8,79.5c0,1.5,0.3,2,0.7,2.1c0.3,0.1,0.6,0.1,1,0.1c0.2,0,0.3,0,0.3,0.2s-0.2,0.2-0.4,0.2
		c-1.2,0-2-0.1-2.3-0.1c-0.2,0-1.1,0.1-2,0.1c-0.3,0-0.4,0-0.4-0.2s0.1-0.2,0.3-0.2c0.3,0,0.6,0,0.9-0.1c0.5-0.1,0.6-0.7,0.6-2.3
		l0.2-11.2c0-0.4,0.1-0.6,0.2-0.6s0.4,0.2,0.7,0.6c0.3,0.3,3.1,3.3,5.8,6.1c1.2,1.3,3.8,4,4.1,4.3h0.1l-0.2-8.5
		c0-1.2-0.2-1.5-0.6-1.7c-0.3-0.1-0.7-0.1-1-0.1c-0.2,0-0.3,0-0.3-0.2s0.2-0.2,0.5-0.2c1,0,1.9,0,2.3,0c0.2,0,0.9,0,1.8,0
		c0.3,0,0.4,0,0.4,0.2s-0.1,0.2-0.3,0.2c-0.2,0-0.4,0-0.6,0.1c-0.5,0.1-0.7,0.5-0.7,1.6l-0.2,11.9c0,0.4-0.1,0.6-0.2,0.6
		s-0.4-0.2-0.6-0.4c-1.2-1.1-3.6-3.6-5.6-5.5c-1.9-1.9-4.1-4.4-4.5-4.7l0,0L143.8,79.5z"/>
	<path class="st3" d="M158,81.8c-0.3-0.1-0.4-0.2-0.4-0.6c0-1,0.1-2.2,0.1-2.4c0-0.3,0.1-0.5,0.2-0.5s0.2,0.2,0.2,0.3
		c0,0.3,0.1,0.6,0.2,1c0.3,1.2,1.5,2,2.7,1.9c1.3,0.1,2.4-0.8,2.5-2c0,0,0-0.1,0-0.1c0-0.9-0.3-1.8-1.8-3l-0.9-0.7
		c-2.1-1.6-2.8-2.9-2.8-4.5c0-2.1,1.7-3.6,4.3-3.6c0.8,0,1.7,0.1,2.5,0.3c0.2,0,0.3,0.1,0.3,0.2c0,0.1-0.1,0.8-0.1,2.3
		c0,0.4,0,0.6-0.2,0.6c-0.2,0-0.2-0.1-0.2-0.3c0-0.4-0.2-0.9-0.5-1.2c-0.5-0.6-1.3-1-2.1-0.9c-1.1-0.1-2.1,0.6-2.2,1.7
		c0,0.1,0,0.1,0,0.2c0,0.9,0.4,1.5,2,2.7l0.5,0.4c2.3,1.7,3.1,3,3.1,4.9c0,1.3-0.7,2.6-1.8,3.3c-0.9,0.5-1.9,0.8-3,0.8
		C159.8,82.4,158.9,82.2,158,81.8z"/>
	<path class="st3" d="M172.2,68.8l-2.8,0.1c-1.1,0-1.5,0.1-1.8,0.5c-0.1,0.2-0.2,0.4-0.3,0.7c0,0.2-0.1,0.2-0.2,0.2
		s-0.2-0.1-0.2-0.3c0-0.2,0.4-2,0.4-2.2c0-0.1,0.1-0.4,0.2-0.4c0.3,0.1,0.5,0.2,0.8,0.2c0.6,0.1,1.3,0.1,1.9,0.1h7.5
		c0.4,0,0.9,0,1.3-0.1c0.2,0,0.3-0.1,0.5-0.1c0.1,0,0.1,0.1,0.1,0.4s-0.1,1.7-0.1,2.2c0,0.2,0,0.3-0.2,0.3c-0.2,0-0.2-0.1-0.2-0.4
		v-0.2c0-0.5-0.5-1-2.2-1h-2.4v7.7c0,1.7,0,3.2,0.1,4c0,0.5,0.2,0.9,0.7,1c0.3,0,0.6,0.1,1,0.1c0.2,0,0.3,0,0.3,0.2
		s-0.2,0.2-0.4,0.2c-1.2,0-2.4-0.1-3-0.1s-1.6,0.1-2.4,0.1c-0.3,0-0.4-0.1-0.4-0.2s0.1-0.2,0.3-0.2c0.2,0,0.5,0,0.7-0.1
		c0.4-0.1,0.5-0.5,0.5-1c0.1-0.8,0.1-2.3,0.1-4L172.2,68.8z"/>
	<path class="st3" d="M183.2,73.2c0-2.9,0-3.4,0-4s-0.2-1-0.6-1.1c-0.2,0-0.5-0.1-0.7-0.1c-0.2,0-0.3,0-0.3-0.2s0.2-0.1,0.4-0.1
		c0.7,0,1.9,0,2.4,0s1.6,0,2.3,0c0.2,0,0.4,0,0.4,0.1c0,0.1-0.1,0.2-0.3,0.2c-0.2,0-0.4,0-0.6,0.1c-0.5,0.1-0.7,0.4-0.7,1.1
		c0,0.7,0,1.1,0,4v3.3c0,1.8,0,3.3,0.1,4.1c0,0.5,0.2,0.9,0.8,0.9c0.3,0,0.6,0.1,1,0.1c0.2,0,0.3,0,0.3,0.2c0,0.2-0.1,0.2-0.4,0.2
		c-1.2,0-2.4-0.1-2.9-0.1c-0.5,0-1.6,0.1-2.4,0.1c-0.2,0-0.4-0.1-0.4-0.2s0.1-0.2,0.3-0.2c0.2,0,0.5,0,0.7-0.1
		c0.4-0.1,0.5-0.4,0.5-0.9c0.1-0.8,0.1-2.3,0.1-4.1L183.2,73.2z"/>
	<path class="st3" d="M194.3,68.8l-2.8,0.1c-1.1,0-1.6,0.1-1.8,0.5c-0.1,0.2-0.2,0.4-0.3,0.7c0,0.2-0.1,0.2-0.2,0.2
		c-0.1,0-0.2-0.1-0.2-0.3c0-0.2,0.4-2,0.4-2.2c0-0.1,0.1-0.4,0.2-0.4c0.3,0.1,0.5,0.2,0.8,0.2c0.6,0.1,1.3,0.1,1.9,0.1h7.5
		c0.4,0,0.9,0,1.3-0.1c0.2,0,0.3-0.1,0.5-0.1c0.1,0,0.2,0.1,0.2,0.4s0,1.7,0,2.2c0,0.2-0.1,0.3-0.2,0.3s-0.2-0.1-0.2-0.4v-0.2
		c0-0.5-0.5-1-2.2-1h-2.4v7.7c0,1.7,0,3.2,0.1,4c0,0.5,0.2,0.9,0.7,1c0.3,0,0.6,0.1,1,0.1c0.2,0,0.3,0,0.3,0.2s-0.1,0.2-0.4,0.2
		c-1.2,0-2.4-0.1-3-0.1s-1.6,0.1-2.4,0.1c-0.2,0-0.4-0.1-0.4-0.2s0.1-0.2,0.3-0.2c0.2,0,0.5,0,0.7-0.1c0.4-0.1,0.5-0.5,0.5-1
		c0.1-0.8,0.1-2.3,0.1-4L194.3,68.8z"/>
	<path class="st3" d="M204.6,73.2c0-2.9,0-3.4,0-4s-0.2-0.9-0.8-1.1c-0.2,0-0.5-0.1-0.7-0.1c-0.2,0-0.3,0-0.3-0.2
		c0-0.2,0.1-0.2,0.4-0.2c1,0,2.2,0,2.7,0c0.6,0,1.6,0,2.3,0c0.3,0,0.4,0,0.4,0.2c0,0.2-0.1,0.2-0.3,0.2c-0.2,0-0.4,0-0.5,0.1
		c-0.5,0.1-0.7,0.4-0.7,1.1c0,0.7,0,1.1,0,4v2.6c0,2.7,0.5,3.9,1.5,4.6c0.7,0.5,1.5,0.8,2.4,0.8c1,0,1.9-0.3,2.6-1
		c1-1,1.1-2.7,1.1-4.7v-2.3c0-2.9,0-3.4,0-4s-0.2-0.9-0.8-1.1c-0.2,0-0.5-0.1-0.7-0.1c-0.2,0-0.3,0-0.3-0.2c0-0.2,0.1-0.2,0.4-0.2
		c1,0,2.1,0,2.2,0c0.2,0,1.4,0,2.1,0c0.3,0,0.4,0,0.4,0.2c0,0.2-0.1,0.2-0.3,0.2c-0.2,0-0.4,0-0.5,0.1c-0.5,0.1-0.7,0.4-0.7,1.1
		c0,0.7,0,1.1,0,4v2c0,2.1-0.2,4.3-1.8,5.7c-1.1,0.9-2.5,1.4-3.9,1.4c-1.5,0.1-3-0.4-4.2-1.3c-1-0.9-1.7-2.3-1.7-5L204.6,73.2z"/>
	<path class="st3" d="M224.2,68.8l-2.8,0.1c-1.1,0-1.5,0.1-1.8,0.5c-0.1,0.2-0.2,0.4-0.3,0.7c0,0.2-0.1,0.2-0.2,0.2
		s-0.2-0.1-0.2-0.3c0.1-0.7,0.2-1.4,0.4-2.2c0-0.2,0.1-0.4,0.2-0.4c0.3,0.1,0.5,0.2,0.8,0.2c0.6,0.1,1.3,0.1,1.9,0.1h7.5
		c0.4,0,0.9,0,1.3-0.1c0.2,0,0.3-0.1,0.5-0.1c0.1,0,0.1,0.1,0.1,0.4s-0.1,1.7-0.1,2.2c0,0.2,0,0.3-0.2,0.3c-0.2,0-0.2-0.1-0.2-0.4
		v-0.2c0-0.5-0.5-1-2.2-1h-2.4v7.7c0,1.7,0,3.2,0.1,4c0.1,0.5,0.2,0.9,0.7,1c0.3,0,0.6,0.1,1,0.1c0.2,0,0.3,0,0.3,0.2
		s-0.2,0.2-0.4,0.2c-1.2,0-2.4-0.1-3-0.1s-1.6,0.1-2.4,0.1c-0.2,0-0.4-0.1-0.4-0.2s0.1-0.2,0.3-0.2c0.2,0,0.5,0,0.7-0.1
		c0.4-0.1,0.5-0.5,0.5-1c0.1-0.8,0.1-2.3,0.1-4L224.2,68.8z"/>
	<path class="st3" d="M235,73.2c0-2.9,0-3.4,0-4s-0.2-0.9-0.8-1.1c-0.2,0-0.5-0.1-0.7-0.1c-0.2,0-0.3,0-0.3-0.2
		c0-0.2,0.1-0.2,0.4-0.2h1.5h1.2c0.6,0,4.3,0,4.7,0c0.3,0,0.5-0.1,0.8-0.1c0.1,0,0.2-0.1,0.3-0.1c0.1,0,0.1,0.1,0.1,0.2
		c0,0.1-0.1,0.4-0.1,1.2c0,0.2-0.1,1-0.1,1.2s0,0.2-0.2,0.2s-0.2-0.1-0.2-0.3c0-0.2,0-0.5-0.1-0.7c-0.1-0.3-0.3-0.6-1.2-0.7
		c-0.3,0-2.3-0.1-2.7-0.1c-0.1,0-0.1,0.1-0.1,0.2v4.8c0,0.1,0,0.2,0.1,0.2c0.4,0,2.6,0,3,0c0.3,0,0.6-0.1,0.9-0.3
		c0.1-0.2,0.2-0.2,0.3-0.2c0.1,0,0.1,0,0.1,0.1c-0.1,0.5-0.1,0.9-0.2,1.4c0,0.4-0.1,1.1-0.1,1.2c0,0.1,0,0.4-0.2,0.4
		s-0.2-0.1-0.2-0.2c0-0.2,0-0.4-0.1-0.7c-0.1-0.4-0.4-0.7-1.1-0.7c-0.4,0-2.2,0-2.7,0c-0.1,0-0.1,0.1-0.1,0.2v1.5c0,0.6,0,2.4,0,2.9
		c0,1.3,0.3,1.6,2.3,1.6c0.6,0,1.2,0,1.8-0.2c0.5-0.2,0.7-0.6,0.9-1.4c0-0.2,0.1-0.3,0.2-0.3s0.2,0.2,0.2,0.3
		c-0.1,0.7-0.2,1.4-0.4,2.1c-0.1,0.5-0.3,0.5-1,0.5c-1.4,0-2.4,0-3.3,0c-0.8,0-1.4-0.1-1.9-0.1H235h-1.3c-0.2,0-0.4-0.1-0.4-0.2
		s0.1-0.2,0.3-0.2c0.2,0,0.5,0,0.7-0.1c0.4-0.1,0.5-0.5,0.5-1c0.1-0.8,0.1-2.3,0.1-4L235,73.2z"/>
</g>
</svg>
